<svg width="50" height="50" viewBox="0 0 50 50" version="1.1" xmlns="http://www.w3.org/2000/svg" xmlns:xlink="http://www.w3.org/1999/xlink">
<title>Group 2</title>
<desc>Created using Figma</desc>
<g id="Canvas" transform="translate(20385 -10361)">
<g id="Group 2">
<g id="Vector">
<use xlink:href="#path0_fill" transform="translate(-20385 10364.4)" fill="#FFFCFB"/>
</g>
<g id="Vector">
<use xlink:href="#path1_fill" transform="translate(-20352.5 10377.3)" fill="#FFFCFB"/>
</g>
<g id="Vector">
<use xlink:href="#path2_fill" transform="translate(-20381.5 10393.3)" fill="#FFFBF9"/>
</g>
<g id="Vector">
<use xlink:href="#path3_fill" transform="translate(-20368.4 10361)" fill="#FFFBF9"/>
</g>
</g>
</g>
<defs>
<path id="path0_fill" d="M 12.4233 5.11301e-06C 13.932 3.26709 15.4826 6.4923 16.9494 9.71751C 11.3337 15.5815 10.6631 17.3407 11.3336 24.7545C 10.7469 25.0477 10.1183 25.3828 9.53156 25.7178C 9.15439 25.5503 8.86106 25.4246 8.5677 25.299C 8.48388 25.5922 8.44198 25.8435 8.35816 26.2624C 6.17892 27.2676 3.87397 28.3567 1.61091 29.4038C -2.78947 19.1418 2.15569 5.19384 12.4233 5.11301e-06Z"/>
<path id="path1_fill" d="M 4.60993 29.2363C 3.05931 25.8854 1.55061 22.7021 0 19.3093C 2.17924 17.5501 3.89747 15.4977 4.86137 12.817C 5.82526 10.1782 5.9091 7.45567 5.19665 4.60743C 8.59124 3.01578 11.8182 1.50789 15.087 4.76186e-14C 19.1102 9.17298 15.5061 23.2885 4.60993 29.2363Z"/>
<path id="path2_fill" d="M 6.78916 1.42411C 11.3572 6.65983 14.7099 8.8379 18.6493 9.00544C 18.1464 8.58659 17.853 8.29338 17.5177 8.08395C 15.8833 7.03681 14.207 6.07343 12.6144 4.9844C 11.0219 3.85348 9.68084 2.47125 8.4655 0.795819C 9.01031 0.502619 9.3875 0.293205 9.8904 5.11301e-06C 11.6505 2.30372 13.7878 4.06292 16.5119 5.0263C 19.194 5.98967 21.8762 5.94778 24.726 5.36138C 25.7737 6.82738 26.3185 8.54471 27.1147 10.1364C 27.911 11.7699 28.6654 13.4034 29.4197 15.037C 26.9052 16.9218 19.9065 17.4245 14.7518 16.0422C 9.34558 14.5762 2.80788 10.4714 2.04631e-05 4.56554C 2.26307 3.56028 4.4842 2.51314 6.78916 1.42411ZM 18.9007 9.00544C 18.8588 8.96356 18.8169 8.92168 18.775 8.87979C 18.7331 8.92168 18.6912 8.96356 18.6493 9.00544C 18.6912 9.04733 18.775 9.08921 18.8169 9.1311C 18.9007 9.08921 18.9007 9.04733 18.9007 9.00544Z"/>
<path id="path3_fill" d="M 19.1522 16.7897C 15.3804 12.0985 10.6028 10.2555 4.56802 11.4283C 3.01741 8.16126 1.50869 4.89418 -1.02315e-05 1.62709C 7.5016 -2.05885 22.3791 0.161072 29.0006 11.9729C 27.8272 12.9362 23.4268 15.1143 19.1522 16.7897ZM 25.3546 12.8944C 24.0973 9.75292 21.9181 7.4492 19.2779 5.56434C 16.0928 3.26062 12.5306 2.08782 8.63311 1.79462C 6.5796 1.66896 6.41198 1.71086 5.23854 2.38103C 9.13602 3.26063 12.824 4.224 16.1766 6.06698C 19.6131 7.86806 22.421 10.4231 25.3546 12.8944Z"/>
</defs>
</svg>
