<svg width="61" height="40" viewBox="0 0 61 40" version="1.1" xmlns="http://www.w3.org/2000/svg" xmlns:xlink="http://www.w3.org/1999/xlink">
<title>Group</title>
<desc>Created using Figma</desc>
<g id="Canvas" transform="translate(20617 -10364)">
<g id="Group">
<g id="Vector">
<use xlink:href="#path0_fill" transform="translate(-20617 10364)" fill="#FFFBF9"/>
</g>
<g id="Vector">
<use xlink:href="#path1_fill" transform="translate(-20608.9 10380.6)" fill="#FFFCFB"/>
</g>
</g>
</g>
<defs>
<path id="path0_fill" d="M 31.8576 39.9593C 27.6285 39.9593 23.3995 40.0295 19.1704 39.9242C 16.915 39.8891 14.6595 39.7136 12.4392 39.2923C 6.23662 38.0637 2.21902 34.2023 0.562644 28.1645C -1.62236 20.3013 2.74766 12.0871 10.3599 9.41922C 11.4524 9.03308 12.6507 8.82246 13.8137 8.64694C 14.8357 8.50653 15.611 8.08528 16.2101 7.2779C 16.4568 6.96197 16.7035 6.64604 16.9502 6.36521C 21.003 1.66134 26.2189 -0.164044 32.2805 0.0114731C 38.9412 0.222094 46.9412 5.17169 49.3729 13.2104C 49.7253 14.3688 50.2892 15.1411 51.5931 15.4219C 56.4566 16.3346 59.135 19.6343 60.5094 24.0925C 61.32 26.7253 61.0733 29.4282 60.157 32.0259C 59.1702 34.8342 57.3024 36.8 54.624 38.0988C 52.157 39.2923 49.4786 39.7838 46.765 39.9242C 44.1218 40.0295 41.4787 39.9944 38.8355 39.9944C 36.58 39.9593 34.2188 39.9593 31.8576 39.9593ZM 27.3114 23.3553C 27.1352 22.583 26.9942 21.8459 26.818 21.1438C 26.0074 18.0898 24.351 15.5623 21.4612 14.1231C 17.1264 11.9116 12.7916 12.1924 8.84453 14.9656C 4.93266 17.7036 3.69919 21.6703 4.50976 26.2338C 5.4613 31.4993 9.86656 35.1852 14.5185 35.5713C 15.8225 35.6767 17.0912 35.8522 18.3951 35.8522C 27.981 35.8873 37.5316 35.8873 47.1174 35.8873C 48.2452 35.8873 49.3729 35.7469 50.4654 35.5011C 52.9324 35.0097 54.7297 33.6055 55.9279 31.3589C 58.4654 26.655 56.1746 22.232 53.5315 19.9854C 52.6152 19.178 51.4874 18.827 50.2892 18.7217C 49.8311 18.6865 49.3729 18.7217 48.95 18.7217C 46.9412 18.7217 46.5183 18.3706 46.0249 16.475C 45.9897 16.2995 45.9192 16.1591 45.9192 15.9836C 44.7562 10.1915 41.1615 6.54073 35.699 4.71535C 30.2012 2.88997 25.2673 4.04838 21.003 8.01508C 20.7563 8.2257 20.5801 8.50653 20.3335 8.78735C 20.7916 9.34901 21.3907 9.48943 21.9193 9.80536C 23.1528 10.5074 24.4215 11.1042 25.5493 11.9116C 29.4259 14.6847 31.1528 18.5812 31.4699 23.3202C 29.9898 23.3553 28.6506 23.3553 27.3114 23.3553Z"/>
<path id="path1_fill" d="M 15.1302 6.83809C 13.8968 6.83809 12.769 6.83809 11.5708 6.83809C 11.2536 6.38174 11.0069 5.8903 10.6898 5.43395C 9.52677 3.78408 7.65894 3.39795 5.93208 4.38084C 4.66337 5.11802 3.92328 6.41685 4.09949 7.71568C 4.2757 9.15492 5.40345 10.5942 6.74264 10.875C 7.65894 11.0856 8.64571 11.1558 9.59724 11.1558C 17.7734 11.1909 25.9496 11.1558 34.1257 11.1558C 34.9011 11.1558 35.7116 11.1207 36.4869 11.2611C 37.6147 11.4366 38.6719 11.8228 39.0244 13.0865C 38.9891 14.0343 38.39 14.5258 37.6499 14.8768C 36.7689 15.298 35.7821 15.3331 34.8306 15.3331C 29.0861 15.3331 23.3417 15.3331 17.5972 15.3331C 14.4959 15.3331 11.3946 15.3331 8.29328 15.3331C 6.53118 15.3331 4.94529 14.8417 3.5356 13.8588C 0.610512 11.8579 -0.693434 8.20713 0.363828 5.15312C 1.20964 2.69587 4.38143 -0.32303 8.50475 0.0280049C 12.0642 0.343937 14.8483 3.11712 15.1302 6.83809Z"/>
</defs>
</svg>
