<svg width="52" height="51" viewBox="0 0 52 51" version="1.1" xmlns="http://www.w3.org/2000/svg" xmlns:xlink="http://www.w3.org/1999/xlink">
<title>Group</title>
<desc>Created using Figma</desc>
<g id="Canvas" transform="translate(20500 -10361)">
<g id="Group">
<g id="Vector">
<use xlink:href="#path0_fill" transform="translate(-20500 10361)" fill="#FFFCFB"/>
</g>
<g id="Vector">
<use xlink:href="#path1_fill" transform="translate(-20495.3 10403.1)" fill="#FEF6F0"/>
</g>
<g id="Vector">
<use xlink:href="#path2_fill" transform="translate(-20459.4 10405.3)" fill="#83D611"/>
</g>
<g id="Vector">
<use xlink:href="#path3_fill" transform="translate(-20467 10382)" fill="#FFFBF9"/>
</g>
<g id="Vector">
<use xlink:href="#path4_fill" transform="translate(-20472.5 10379.3)" fill="#FEF6F0"/>
</g>
<g id="Vector">
<use xlink:href="#path5_fill" transform="translate(-20476 10387.1)" fill="#FEF2E9"/>
</g>
<g id="Vector">
<use xlink:href="#path6_fill" transform="translate(-20469.4 10387.4)" fill="#FEF2E9"/>
</g>
<g id="Vector">
<use xlink:href="#path7_fill" transform="translate(-20474 10376)" fill="#FEF2E9"/>
</g>
<g id="Vector">
<use xlink:href="#path8_fill" transform="translate(-20487.6 10387.2)" fill="#FEF6F0"/>
</g>
<g id="Vector">
<use xlink:href="#path9_fill" transform="translate(-20492.8 10378.2)" fill="#FEF6F0"/>
</g>
<g id="Vector">
<use xlink:href="#path10_fill" transform="translate(-20487.6 10378.2)" fill="#FEF6F0"/>
</g>
<g id="Vector">
<use xlink:href="#path11_fill" transform="translate(-20484.9 10382.7)" fill="#FEF6F0"/>
</g>
<g id="Vector">
<use xlink:href="#path12_fill" transform="translate(-20490.2 10382.7)" fill="#FFFBF9"/>
</g>
<g id="Vector">
<use xlink:href="#path13_fill" transform="translate(-20482.3 10378.2)" fill="#FFFBF9"/>
</g>
<g id="Vector">
<use xlink:href="#path14_fill" transform="translate(-20488.9 10370.6)" fill="#FEF2E9"/>
</g>
</g>
</g>
<defs>
<path id="path0_fill" d="M 26.1668 41.1629C 19.2829 41.1629 12.436 41.1629 5.5521 41.1629C 5.14499 41.1629 4.73789 41.1262 4.29376 41.1629C 1.74005 41.4194 -0.0364517 39.4405 0.000558554 36.9852C 0.0745791 26.028 0.0375824 15.0708 0.0375824 4.11355C 0.0375824 3.82038 0.0375733 3.5272 0.0745836 3.23403C 0.259635 1.51166 1.62901 0.192388 3.33148 0.0458033C 3.92365 -0.0274891 4.51583 0.00916603 5.10799 0.00916603C 19.0979 0.00916603 33.0507 0.00916603 47.0406 0.00916603C 47.5587 0.00916603 48.1139 -0.0274891 48.6321 0.0458033C 50.4826 0.192388 51.8149 1.51166 51.963 3.30733C 52 3.71044 52 4.11353 52 4.55329C 52 15.2906 52 25.9913 52 36.7287C 52 37.0952 52 37.425 52 37.7914C 51.8519 39.697 50.4826 41.0163 48.5581 41.1629C 48.0769 41.1995 47.5958 41.1629 47.1517 41.1629C 40.1567 41.1629 33.1618 41.1629 26.1668 41.1629ZM 25.6117 24.3789C 25.0565 24.5988 24.6494 24.7087 24.3163 24.8919C 22.984 25.6249 22.3548 26.7243 22.4658 28.2268C 22.5769 29.656 23.3541 30.6454 24.6864 31.1585C 26.0928 31.6715 27.3512 31.3417 28.3875 30.2423C 28.6465 29.9858 28.8686 29.656 29.1277 29.3628C 31.1632 31.5982 32.0144 31.7815 34.8272 30.6821C 36.6037 31.2684 36.6037 31.2317 38.4542 31.0852C 38.8614 31.0485 39.2685 31.0852 39.6756 31.1585C 41.8222 31.4516 43.5246 30.6821 44.746 28.9597C 46.0043 27.2373 46.4855 25.2584 46.3004 23.1329C 46.0413 20.4944 43.8947 18.9919 41.267 19.505C 40.8229 19.5783 40.4158 19.7248 39.8976 19.8714C 39.6386 17.9292 40.8969 16.6832 41.7112 15.2174C 41.267 14.9608 40.971 14.7776 40.6009 14.5944C 38.7503 15.9503 38.4543 17.9292 38.0101 19.7615C 36.9738 19.6515 36.0486 19.395 35.1233 19.4683C 34.1981 19.505 33.3098 19.8714 32.3475 20.0913C 31.2002 18.3323 30.0899 16.7198 29.0536 14.9975C 28.2394 13.6416 27.2031 13.0919 25.6487 13.4583C 24.9825 13.6416 24.2423 13.7149 23.7612 14.5944C 24.2053 16.4633 25.4636 17.5627 27.5362 17.7459C 27.3512 20.1646 26.9441 22.3634 25.6117 24.3789ZM 18.7277 8.69433C 17.7655 9.24402 16.9883 9.72042 16.2111 10.1602C 14.2495 7.81482 11.8438 7.55829 9.10508 9.42725C 10.1414 11.5527 11.3257 13.4217 14.1385 13.495C 13.9535 14.3378 13.8054 15.0708 13.6574 15.6937C 12.9172 16.1335 12.325 16.5 11.6958 16.8664C 11.3257 16.6466 10.9926 16.39 10.6225 16.2068C 9.03109 15.4006 7.18056 15.877 6.2553 17.3428C 5.29304 18.882 5.70015 20.7509 7.25458 21.8137C 7.62469 22.0702 8.06881 22.2534 8.47592 22.4733C 8.10582 24.7087 8.95706 26.1746 11.0296 26.8708C 11.0296 27.3839 10.9926 27.787 11.0296 28.1901C 11.1407 29.9858 12.473 31.305 14.2125 31.3417C 16.063 31.3783 17.5064 30.0957 17.6174 28.2268C 17.6544 27.787 17.6174 27.3106 17.6174 26.8342C 19.764 26.1013 20.5042 24.5621 20.2082 22.4367C 20.7263 22.1435 21.2075 21.9236 21.6146 21.6304C 22.9099 20.641 23.243 18.7354 22.3918 17.3428C 21.5035 15.9136 19.7271 15.4006 18.2096 16.0968C 17.7285 16.3167 17.3214 16.6099 16.9143 16.8664C 16.2481 16.4267 15.6929 16.0602 14.9897 15.5838C 15.3228 14.6677 15.6189 13.7882 15.952 12.9086C 16.5812 11.4428 17.9506 10.7099 19.1719 9.83035C 19.0609 9.46389 18.9498 9.20737 18.7277 8.69433Z"/>
<path id="path1_fill" d="M 0.0669077 0.266779C 1.54732 -0.0263904 39.7419 -0.0997008 42.5177 0.156823C 42.5547 0.523285 42.6657 0.889761 42.6657 1.29287C 42.6657 2.57549 42.7027 3.8581 42.6657 5.17736C 42.5917 7.2662 41.2223 8.65875 39.1127 8.84198C 38.6316 8.87863 38.1505 8.84198 37.7063 8.84198C 26.8253 8.84198 15.9073 8.84198 5.02629 8.84198C 4.50815 8.84198 3.95298 8.87864 3.43483 8.80535C 1.65834 8.58547 0.28896 7.37613 0.103909 5.65376C -0.0811425 3.85809 0.0298974 2.06244 0.0669077 0.266779ZM 3.39783 5.94695C 3.96001 6.35309 31.4886 6.24012 32.932 5.94695C 33.7832 5.39725 34.0793 4.59103 33.6722 3.67487C 33.3021 2.83201 32.5249 2.53884 31.6366 2.57549C 31.4516 2.57549 31.2666 2.57549 31.1185 2.57549C 22.5322 2.57549 13.9828 2.57549 5.4334 2.57549C 5.02628 2.57549 4.58214 2.57549 4.21204 2.64878C 3.32379 2.83202 2.86388 3.53337 2.80565 4.4078C 2.76291 5.04966 2.83565 5.5408 3.39783 5.94695ZM 40.5562 4.37114C 40.5191 3.12517 39.5568 2.17237 38.2985 2.13573C 36.9661 2.13573 35.8929 3.16182 35.9299 4.44444C 35.9669 5.65376 37.0032 6.67986 38.2245 6.71651C 39.5199 6.75315 40.5932 5.6904 40.5562 4.37114Z"/>
<path id="path2_fill" d="M 4.62723 2.23633C 4.66424 3.5556 3.59093 4.61834 2.29557 4.5817C 1.07423 4.54505 0.0379576 3.51895 0.000947307 2.30963C -0.036063 1.02701 1.0372 -0.035726 2.36957 0.000920269C 3.66493 0.0375665 4.62723 0.990359 4.62723 2.23633Z"/>
<path id="path3_fill" d="M 5.86537 2.08715C 6.3465 1.61074 6.64257 1.24427 7.01268 0.951099C 7.41979 0.621283 7.86395 0.291485 8.34508 0.1449C 10.0846 -0.368147 11.4539 0.511349 11.639 2.30701C 11.861 4.32256 11.3059 6.11822 9.86249 7.62072C 9.12229 8.39029 8.16001 8.7201 7.12373 8.53687C 6.23548 8.39029 5.38425 8.42693 4.49601 8.53687C 3.12663 8.68346 2.09035 8.13376 1.31313 7.07102C 0.313854 5.67847 -0.0932585 4.13933 0.0177723 2.45361C 0.0917928 1.53745 0.350829 0.694594 1.27609 0.328131C 2.31237 -0.0749771 3.38571 -0.0749905 4.27395 0.657934C 4.82911 1.0244 5.2732 1.50081 5.86537 2.08715Z"/>
<path id="path4_fill" d="M 1.81351 -8.94683e-06C 3.25691 1.97889 4.18214 3.88451 3.77503 6.15658C 2.99781 6.85285 2.25761 7.51249 1.55441 8.17212C 0.999259 7.58578 0.444123 6.99943 0 6.55967C 0.592164 4.3609 1.18434 2.27206 1.81351 -8.94683e-06Z"/>
<path id="path5_fill" d="M 0.000387154 1.79714C 0.0207205 0.774522 0.893318 -0.0395156 1.9249 0.00148346C 2.9256 0.0412549 3.70171 0.841608 3.70141 1.8338C 3.70111 2.83595 2.9612 3.62946 1.8879 3.66611C 0.777594 3.66611 -0.0201383 2.82941 0.000387154 1.79714Z"/>
<path id="path6_fill" d="M 0.979866 0C 1.53502 1.02609 2.05315 2.01553 2.68233 3.15157C 2.2012 3.22486 1.92999 3.40139 1.46097 3.29816C 0.952335 3.18621 0.609736 2.89505 0.350664 2.56524C -0.278511 1.79567 -0.0564217 0.989448 0.979866 0Z"/>
<path id="path7_fill" d="M 1.48041 0.645986C 0.777216 1.08574 0.370103 0.865858 0 0.389457C 0.629175 -0.160236 0.915895 -0.174298 1.48041 0.645986Z"/>
<path id="path8_fill" d="M 1.87507 0.000207744C 3.02213 -0.0177851 3.98463 1.13624 3.79958 2.19898C 3.65154 3.15178 2.80029 3.81142 1.83802 3.81142C 0.912762 3.77478 0.172593 3.15179 0.0245515 2.27228C -0.1605 1.0996 0.724382 0.0182573 1.87507 0.000207744Z"/>
<path id="path9_fill" d="M 1.89826 3.84785C 0.713743 3.81932 -0.225769 2.76631 0.0477442 1.46585C 0.232795 0.58634 1.04705 0 1.97231 0C 2.89756 0 3.67477 0.659637 3.85982 1.53915C 4.11305 2.7427 3.08746 3.8765 1.89826 3.84785Z"/>
<path id="path10_fill" d="M -1.80714e-05 1.86896C -1.80714e-05 0.806221 0.777198 -8.94683e-06 1.8505 -8.94683e-06C 2.92379 -8.94683e-06 3.77504 0.769571 3.84906 1.79567C 3.88607 2.85841 2.92383 3.81121 1.88754 3.81121C 0.851254 3.77456 0.0369922 2.9317 -1.80714e-05 1.86896Z"/>
<path id="path11_fill" d="M 1.92453 3.73792C 0.851236 3.73792 1.80714e-05 2.89504 1.80714e-05 1.86895C 1.80714e-05 0.842854 0.888237 0 1.96154 0C 3.03483 0 3.8861 0.842868 3.8861 1.90561C 3.84909 2.89506 2.99783 3.73792 1.92453 3.73792Z"/>
<path id="path12_fill" d="M 3.85019 1.94225C 3.81318 3.005 2.99894 3.77457 1.88863 3.77457C 0.852344 3.73792 -0.0358937 2.85841 0.00111661 1.83232C 0.0381269 0.806226 0.926382 8.94683e-06 1.99968 8.94683e-06C 3.10999 0.0366552 3.8872 0.842868 3.85019 1.94225Z"/>
<path id="path13_fill" d="M 1.88374 3.81122C 0.73291 3.81122 -0.188838 2.71183 0.0332232 1.53915C 0.181264 0.62299 0.92147 0 1.88374 0C 2.846 0 3.58621 0.586344 3.73425 1.53915C 3.95631 2.71183 3.03456 3.81122 1.88374 3.81122Z"/>
<path id="path14_fill" d="M 3.77506 1.73862C 2.10959 2.94795 1.07328 2.61814 -1.80714e-05 0.529301C 2.03555 -0.423501 2.96083 -0.130335 3.77506 1.73862Z"/>
</defs>
</svg>
