<svg width="156" height="204" viewBox="0 0 156 204" version="1.1" xmlns="http://www.w3.org/2000/svg" xmlns:xlink="http://www.w3.org/1999/xlink">
<title>Vector</title>
<desc>Created using Figma</desc>
<g id="Canvas" transform="matrix(4 0 0 4 81068 -41440)">
<g id="Vector">
<use xlink:href="#path0_fill" transform="translate(-20267 10360)" fill="#FFFBF9"/>
</g>
</g>
<defs>
<path id="path0_fill" d="M 34.6352 14.6341C 35.0879 14.7911 35.5082 14.9168 35.8638 15.1052C 37.7391 15.9217 38.7737 17.3349 38.8707 19.3133C 38.9353 20.8521 38.9353 22.4222 38.8707 23.9924C 38.7737 26.1279 37.7391 27.8237 35.8962 29.017C 35.5082 29.2682 35.1202 29.4881 34.6999 29.7079C 34.6999 31.6235 34.6999 33.5392 34.6999 35.4862C 35.4435 35.7374 36.1225 35.4548 36.8014 35.3292C 37.4481 35.2036 38.0947 35.0465 39 34.8581C 37.7391 36.3655 36.1548 37.0564 34.6999 37.9985C 34.6676 38.3753 34.6352 38.7522 34.6352 39.1604C 34.6352 41.3587 34.5382 43.5883 34.6676 45.7866C 34.8292 49.1154 32.0487 51.031 29.3652 50.9996C 22.8665 50.9054 16.3356 50.9682 9.8369 50.9682C 6.53908 50.9682 4.56684 49.0526 4.53451 45.7866C 4.50218 43.2429 4.53451 40.6678 4.53451 38.0613C 3.75855 37.5902 3.01491 37.182 2.30362 36.7109C 1.62466 36.2713 1.01036 35.7374 0.42839 35.1407C 1.81865 34.9837 3.04725 35.8002 4.46984 35.5804C 4.46984 33.6648 4.46984 31.7491 4.46984 29.8021C 4.11419 29.6137 3.75855 29.4567 3.4029 29.2369C 1.33368 28.0749 0.137411 26.3477 0.0404165 23.9924C -0.0242467 22.5793 0.0080829 21.1661 0.0080829 19.7843C 0.0404145 17.1778 1.20435 15.6704 3.72622 14.8854C 3.92021 14.8225 4.11419 14.7597 4.40517 14.6969C 4.4375 14.3515 4.50218 13.9432 4.50218 13.5664C 4.50218 10.8971 4.50218 8.22777 4.50218 5.58986C 4.50218 5.18162 4.50218 4.77337 4.53451 4.39653C 4.79316 1.85283 6.73306 0.0942188 9.38425 7.66692e-06C 9.6429 7.66692e-06 9.90156 7.66692e-06 10.1602 7.66692e-06C 16.4649 7.66692e-06 22.7695 7.66692e-06 29.0742 7.66692e-06C 29.6885 7.66692e-06 30.3351 -3.8372e-06 30.9171 0.125611C 33.051 0.62807 34.5382 2.38667 34.6029 4.61634C 34.6676 7.44267 34.6352 10.2376 34.6352 13.0639C 34.6352 13.535 34.6352 14.1003 34.6352 14.6341ZM 32.1457 7.78812C 31.7901 7.72532 31.4667 7.6625 31.1758 7.6625C 23.4808 7.6625 15.7536 7.6625 8.05866 7.6625C 7.73534 7.6625 7.3797 7.78812 7.08871 7.81952C 6.86239 10.3004 6.95937 13.5978 7.21803 14.6969C 7.50901 14.7283 7.8 14.7597 8.09098 14.7597C 9.90155 14.7597 11.7121 14.7283 13.5227 14.7597C 15.8182 14.8226 17.5641 16.1415 18.1784 18.2769C 18.2754 18.6538 18.4048 19.0306 18.5018 19.4389C 18.8574 19.4703 19.1484 19.5017 19.4717 19.5017C 19.7627 19.5017 20.0537 19.4389 20.3447 19.4075C 20.4417 19.1877 20.5063 19.062 20.5063 18.905C 20.7327 16.5497 22.9959 14.6027 25.7117 14.7283C 27.4576 14.8225 29.2359 14.7597 30.9818 14.7283C 31.3374 14.7283 31.6607 14.6655 32.081 14.6027C 32.1457 12.3103 32.1457 10.0492 32.1457 7.78812ZM 7.15336 46.1635C 8.34963 46.4147 30.6261 46.4147 32.0164 46.1949C 32.3074 44.8445 32.275 40.1339 31.9517 39.0662C 31.6607 39.0976 31.3374 39.129 31.0464 39.1918C 29.2035 39.6315 27.3606 39.6629 25.5177 39.4744C 23.9981 39.3174 22.5756 38.9092 21.3146 38.0299C 20.668 37.5588 20.1183 36.9622 19.4717 36.3655C 18.2754 38.1869 16.4002 39.0034 14.2987 39.3488C 12.3911 39.6629 10.4835 39.6629 8.60828 39.286C 8.12331 39.1918 7.60601 39.0976 7.12104 39.0034C 6.92705 40.5422 6.92704 45.0015 7.15336 46.1635ZM 9.25491 17.115C 7.89699 17.115 6.57139 17.0836 5.21346 17.115C 3.40289 17.1464 2.52994 17.9315 2.46528 19.6587C 2.40061 21.0091 2.40061 22.3594 2.46528 23.7098C 2.5946 26.0023 4.17886 27.5411 6.53907 27.6353C 8.34964 27.6981 10.1602 27.6981 11.9708 27.6353C 14.2987 27.5411 15.8829 25.9081 15.9799 23.647C 16.0122 22.328 16.0122 21.0405 15.9799 19.7215C 15.9476 17.9943 15.0746 17.1464 13.2964 17.115C 11.9384 17.115 10.5805 17.115 9.25491 17.115ZM 29.6885 17.115C 28.3306 17.115 27.005 17.0836 25.647 17.115C 23.9335 17.1464 23.0282 17.9315 22.9635 19.5645C 22.8989 20.9777 22.8989 22.3908 22.9635 23.7726C 23.0605 26.0023 24.6448 27.541 26.9403 27.6039C 28.7509 27.6667 30.5614 27.6667 32.372 27.6039C 34.7969 27.541 36.3811 25.9081 36.4458 23.5528C 36.4781 22.2966 36.4781 21.0405 36.4458 19.7843C 36.4135 17.9629 35.5729 17.115 33.6976 17.0836C 32.372 17.115 31.0141 17.115 29.6885 17.115ZM 18.4048 21.9198C 18.4048 22.5165 18.4048 22.9561 18.4048 23.3958C 18.3401 27.2898 15.7212 29.8963 11.7121 30.0219C 10.5159 30.0533 9.31959 30.0219 8.15565 30.0219C 7.8 30.0219 7.47669 30.0847 7.08871 30.1161C 7.08871 32.0632 7.08871 33.8846 7.08871 35.8002C 7.41203 35.8002 7.67068 35.8316 7.897 35.8002C 8.34964 35.706 8.83461 35.6118 9.22259 35.4234C 10.4835 34.8267 11.7121 34.1986 12.9084 33.5392C 13.9753 32.9425 15.01 32.283 16.0769 31.6549C 16.8852 31.1839 17.7258 31.1525 18.6311 31.4351C 18.9544 31.5293 19.2777 31.6863 19.6334 31.8434C 21.0883 30.9326 22.4786 31.1839 23.8365 32.0632C 25.0004 32.8169 26.1644 33.5706 27.393 34.1986C 28.5246 34.7953 29.7208 35.2664 30.9171 35.7374C 31.2727 35.863 31.6931 35.8002 32.1457 35.8316C 32.2427 33.8846 32.2427 32.0318 32.1457 30.0848C 31.4991 30.0534 30.9494 30.0219 30.3998 30.0219C 29.0095 29.9905 27.5869 30.0534 26.229 29.9277C 22.9958 29.6451 20.5063 26.8188 20.571 23.7726C 20.571 23.1759 20.5387 22.5793 20.5387 21.9198C 19.795 21.9198 19.2131 21.9198 18.4048 21.9198ZM 15.9152 4.42792C 18.3724 4.42792 20.7973 4.42792 23.2545 4.42792C 23.3838 4.14529 23.4808 3.86265 23.5778 3.67423C 23.2868 3.07756 22.8342 3.04615 22.3492 3.04615C 20.377 3.04615 18.4371 3.04615 16.4649 3.04615C 16.2709 3.04615 16.0769 3.10897 15.9476 3.14038C 15.3979 3.58003 15.3979 3.95687 15.9152 4.42792Z"/>
</defs>
</svg>
