<svg width="56" height="56" viewBox="0 0 56 56" version="1.1" xmlns="http://www.w3.org/2000/svg" xmlns:xlink="http://www.w3.org/1999/xlink">
<title>Subtract</title>
<desc>Created using Figma</desc>
<g id="Canvas" transform="translate(20727 -10359)">
<g id="Subtract">
<use xlink:href="#path0_fill" transform="translate(-20727 10359)" fill="#FFFBF9"/>
</g>
</g>
<defs>
<path id="path0_fill" fill-rule="evenodd" d="M 47.8304 40.707C 47.2464 39.9326 46.6565 39.1524 46.2776 38.2324C 46.8108 37.499 47.1507 36.6455 47.4905 35.7901C 47.9261 34.6924 48.3636 33.5928 49.2112 32.7451C 49.6311 32.6836 50.0433 32.6289 50.4495 32.5762C 51.4222 32.4473 52.3616 32.3242 53.2776 32.1172C 54.7015 31.7813 55.1624 31.1953 55.2464 29.7295C 55.3304 28.3057 55.3304 26.9229 55.2893 25.499C 55.2054 23.8652 54.6604 23.2373 53.0257 22.9024C 52.2933 22.7422 51.5335 22.6553 50.7698 22.5684L 50.0511 22.4834C 49.1702 22.3574 48.5413 21.8965 48.2054 21.1006L 48.0218 20.669C 47.4554 19.3467 46.887 18.0215 46.3206 16.6611C 46.7151 15.8379 47.2542 15.0986 47.7913 14.3613C 48.512 13.374 49.2308 12.3916 49.5901 11.2158C 49.1741 9.76466 48.1936 8.85841 47.2268 7.96388C 46.8245 7.59181 46.4241 7.22267 46.0686 6.81739C 45.4827 6.18946 44.7698 5.68653 43.512 5.68653C 42.7308 6.20802 41.8909 6.76271 41.0374 7.32814L 38.6507 8.91212C 36.8558 8.17091 35.1702 7.46583 33.4905 6.76368L 33.1194 6.60841C 32.7561 5.77345 32.6448 4.86036 32.5335 3.94239C 32.387 2.74318 32.2386 1.53712 31.5276 0.493176C 29.8929 -0.0829962 28.2581 -0.0234259 26.6233 0.037121C 26.1214 0.0556757 25.6175 0.0742304 25.1155 0.0742304C 24.7229 0.0742304 24.3304 0.269543 23.9847 0.441418C 23.8518 0.508801 23.7229 0.572277 23.6058 0.619152C 23.0589 1.71193 22.9124 2.83888 22.7718 3.917C 22.6429 4.90431 22.5179 5.8506 22.0979 6.69239C 20.678 7.27833 19.3479 7.84181 17.9925 8.41603L 16.5237 9.0381C 15.8948 8.66114 15.2659 8.28419 14.68 7.86525C 14.3011 7.60255 13.9397 7.31935 13.5725 7.03028L 13.0862 6.6504C 12.2483 6.02247 11.3265 5.72853 10.1526 6.18946C 8.51981 7.5713 6.84208 9.08009 5.66825 11.0479C 5.77177 12.6201 6.65263 13.7168 7.51981 14.7959C 8.06278 15.4707 8.59989 16.1387 8.93778 16.9121L 8.18583 18.6338C 7.61356 19.9434 7.04911 21.2354 6.46513 22.6084L 5.56083 22.6797C 4.91825 22.7276 4.28739 22.7744 3.65849 22.8604L 3.35575 22.8965C 2.11161 23.042 0.865517 23.1885 0.0120009 24.6611C 0.0842666 25.4219 0.0569228 26.2119 0.0295791 27.0186C -0.0231553 28.5654 -0.0778428 30.1709 0.556923 31.7402C 1.65849 32.2676 2.81083 32.4434 3.95731 32.6182C 4.90458 32.7627 5.84794 32.9072 6.75809 33.2481C 7.47099 35.0068 8.22489 36.7666 8.98075 38.5254C 8.73661 39.542 8.08622 40.3125 7.43583 41.085C 6.74442 41.9033 6.05302 42.7246 5.83622 43.8447C 5.87333 43.958 5.90458 44.082 5.93583 44.208C 6.00614 44.501 6.08036 44.7998 6.25614 44.9756L 6.3577 45.084C 7.66434 46.4697 8.93388 47.8164 10.3206 49.1221C 10.9495 49.709 11.8304 49.625 12.5843 49.2061C 12.9202 49.0098 13.2581 48.7754 13.596 48.542C 13.76 48.4268 13.9261 48.3115 14.0921 48.2012C 14.4808 47.919 14.8636 47.6358 15.2405 47.3555C 15.7581 46.9727 16.2659 46.5957 16.7757 46.2324C 17.5862 46.5674 18.3831 46.9024 19.1624 47.2305C 20.2386 47.6826 21.2874 48.124 22.3069 48.5361C 22.762 49.4649 22.8597 50.4453 22.9573 51.4258C 23.0589 52.4346 23.1585 53.4443 23.6487 54.4004C 25.5198 55.2881 27.4651 55.1914 29.4612 55.0928C 30.1038 55.0606 30.7503 55.0283 31.4007 55.0283C 32.3362 53.7998 32.555 52.3672 32.7776 50.9258C 32.9026 50.1065 33.0296 49.2832 33.2874 48.4942C 34.1683 48.1172 35.0472 47.7295 35.9261 47.3418C 36.8069 46.9551 37.6878 46.5674 38.5667 46.1904C 39.4515 46.8067 40.303 47.3887 41.1507 47.9697L 42.5901 48.9551C 43.471 49.583 44.3929 49.625 45.1897 48.9551C 46.8655 47.5313 48.5413 46.0645 49.6311 44.0547C 49.3694 42.7432 48.6038 41.7305 47.8304 40.707ZM 45.5667 27.4453C 45.5667 27.4531 45.5667 27.46 45.5667 27.4678C 45.5667 31.7793 44.2034 35.5479 41.9163 38.5156C 38.5589 42.8711 33.2093 45.5049 27.2522 45.6045C 25.0511 45.625 22.8479 45.1592 20.7835 44.2852C 17.8382 43.0391 15.1741 40.9649 13.1936 38.291C 10.9905 35.3272 9.61747 31.6318 9.65067 27.5088C 9.73466 18.6289 16.3147 9.49806 27.6292 9.58204C 30.1311 9.60255 32.5042 10.1309 34.6624 11.0518C 41.096 13.7764 45.5882 20.1035 45.5667 27.4453Z"/>
</defs>
</svg>
