<svg width="63" height="56" viewBox="0 0 63 56" version="1.1" xmlns="http://www.w3.org/2000/svg" xmlns:xlink="http://www.w3.org/1999/xlink">
<title>funds</title>
<desc>Created using Figma</desc>
<g id="Canvas" transform="translate(19723 -7656)">
<g id="funds">
<g id="Group">
<g id="Vector">
<use xlink:href="#path0_fill" transform="translate(-19723 7656)" fill="#FF7800"/>
</g>
<g id="Mask Group">
<mask id="mask0_alpha" mask-type="alpha">
<g id="Vector">
<use xlink:href="#path0_fill" transform="translate(-19723 7656)" fill="#FF871C"/>
</g>
</mask>
<g id="Vector 2" mask="url(#mask0_alpha)">
<use xlink:href="#path1_fill" transform="translate(-19702.6 7653.03)" fill="#B8C0D1"/>
</g>
<g id="Vector 3" mask="url(#mask0_alpha)">
<use xlink:href="#path2_fill" transform="translate(-19726.8 7668.73)" fill="#C4C4C4"/>
</g>
</g>
<g id="Vector">
<use xlink:href="#path3_fill" transform="translate(-19673.4 7674.68)" fill="#B8C0D1"/>
</g>
<g id="Vector">
<use xlink:href="#path4_fill" transform="translate(-19723 7684.83)" fill="#B8C0D1"/>
</g>
<g id="Vector">
<use xlink:href="#path5_fill" transform="translate(-19673.4 7680.34)" fill="#B8C0D1"/>
</g>
<g id="Vector">
<use xlink:href="#path6_fill" transform="translate(-19723 7690.49)" fill="#B8C0D1"/>
</g>
<g id="Vector">
<use xlink:href="#path7_fill" transform="translate(-19673.4 7686)" fill="#B8C0D1"/>
</g>
<g id="Vector">
<use xlink:href="#path8_fill" transform="translate(-19723 7696.15)" fill="#B8C0D1"/>
</g>
</g>
</g>
</g>
<defs>
<path id="path0_fill" d="M 48.161 23.5396C 48.1596 23.528 48.1587 23.5162 48.157 23.5048C 48.1488 23.4476 48.1378 23.3906 48.1222 23.3343L 48.1217 23.3324C 48.1071 23.2798 48.0886 23.2279 48.0677 23.1765C 48.0617 23.1618 48.0551 23.1477 48.0487 23.1332C 48.0322 23.0962 48.0138 23.0597 47.9938 23.0237C 47.9851 23.008 47.9767 22.9923 47.9673 22.9769C 47.9623 22.9685 47.9583 22.9599 47.9531 22.9516C 47.932 22.9183 47.9089 22.887 47.8855 22.8561C 47.8811 22.8503 47.8775 22.8442 47.8731 22.8385C 47.8375 22.7927 47.799 22.7501 47.7586 22.7098C 47.7511 22.7021 47.7428 22.6951 47.735 22.6877C 47.6999 22.6542 47.6636 22.6228 47.6257 22.5932C 47.616 22.5857 47.6066 22.5782 47.5966 22.571C 47.5458 22.5336 47.4935 22.4988 47.4389 22.4687L 26.4403 10.6206L 38.5307 3.06343L 58.7998 14.4997L 50.2634 19.8354C 49.5972 20.2517 49.3972 21.1253 49.8167 21.7865C 50.236 22.4477 51.116 22.6462 51.7822 22.2299L 62.3333 15.635C 62.7575 15.37 63.0102 14.9032 62.9988 14.4058C 62.9875 13.9083 62.714 13.4536 62.2782 13.2077L 39.1974 0.184836C 38.7409 -0.0729444 38.1783 -0.0602109 37.7336 0.217518L 22.9165 9.47908C 22.9135 9.48092 22.9104 9.4829 22.9074 9.48474L 15.5032 14.1128C 15.4998 14.1149 15.4964 14.117 15.4931 14.1191L 0.665855 23.387C 0.241678 23.652 -0.0110325 24.1188 0.000370153 24.6162C 0.0116302 25.1137 0.28515 25.5684 0.721015 25.8143L 23.8019 38.8372C 24.0205 38.9607 24.2634 39.0221 24.5062 39.0221C 24.7703 39.0221 25.034 38.9492 25.2656 38.8045L 35.8167 32.2094C 36.4829 31.7932 36.6829 30.9195 36.2634 30.2584C 35.8442 29.5971 34.9639 29.3985 34.2979 29.815L 24.4687 35.9587L 4.19952 24.5222L 16.29 16.9649L 37.9079 29.1623L 37.9079 45.317C 37.9079 45.8323 38.19 46.3067 38.6444 46.5557C 38.8592 46.6734 39.0964 46.7319 39.3333 46.7319C 39.5975 46.7319 39.8612 46.659 40.0927 46.5143L 47.5064 41.8803C 47.9208 41.6213 48.1723 41.1692 48.1723 40.6831L 48.1723 23.7052C 48.1723 23.6969 48.1708 23.689 48.1706 23.6806C 48.1697 23.6336 48.1666 23.5867 48.161 23.5396ZM 40.7586 42.7544L 40.7586 28.3393C 40.7586 27.8304 40.4832 27.3608 40.0375 27.1094L 19.0266 15.2545L 23.7036 12.3311L 43.9725 23.7675L 42.1979 24.8767C 41.5317 25.2929 41.3317 26.1666 41.7512 26.8277C 42.022 27.255 42.4851 27.4889 42.9587 27.4889C 43.2181 27.4889 43.481 27.4186 43.7167 27.2712L 45.3215 26.2682L 45.3215 39.9022L 40.7586 42.7544Z"/>
<path id="path1_fill" d="M 8.5135 14.8485L 0 10.606L 0.85135 6.78787L 17.4527 0L 42.1418 7.63635L 45.5472 19.0909L 30.2229 27.1515L 28.0946 25.0303L 8.5135 14.8485Z"/>
<path id="path2_fill" d="M 20.0067 4.24242L 20.8581 5.0909L 23.8378 8.90908L 35.7567 14.8485L 40.8648 16.9697L 40.8648 19.9394L 28.5202 28L 5.1081 14.8485L 0 12.7273L 13.6216 0L 20.0067 4.24242Z"/>
<path id="path3_fill" d="M 11.2172 0.217844L 0.666097 6.81275C -0.000100384 7.22899 -0.200074 8.10264 0.219399 8.76378C 0.490212 9.19106 0.953298 9.42493 1.42693 9.42493C 1.68634 9.42493 1.94917 9.35461 2.18492 9.20719L 12.736 2.61229C 13.4022 2.19605 13.6022 1.32239 13.1827 0.661249C 12.7634 -3.80496e-05 11.8833 -0.198679 11.2172 0.217844Z"/>
<path id="path4_fill" d="M 34.2981 6.64556L 24.4689 12.7893L 2.12988 0.185072C 1.44601 -0.200891 0.575419 0.0362324 0.186447 0.715912C -0.202524 1.39517 0.0367879 2.25891 0.72123 2.64502L 23.8021 15.6679C 24.0208 15.7914 24.2636 15.8528 24.5064 15.8528C 24.7705 15.8528 25.0342 15.7799 25.2658 15.6352L 35.8169 9.04015C 36.4831 8.62391 36.6831 7.75026 36.2636 7.08911C 35.8444 6.42768 34.9641 6.22904 34.2981 6.64556Z"/>
<path id="path5_fill" d="M 11.2172 0.217878L 0.666097 6.81278C -0.000100384 7.22902 -0.200074 8.10268 0.219399 8.76382C 0.490212 9.1911 0.953298 9.42496 1.42693 9.42496C 1.68634 9.42496 1.94917 9.35465 2.18492 9.20722L 12.736 2.61232C 13.4022 2.19608 13.6022 1.32243 13.1827 0.661283C 12.7634 -0.00014525 11.8833 -0.198645 11.2172 0.217878Z"/>
<path id="path6_fill" d="M 34.2981 6.64556L 24.4689 12.7893L 2.12988 0.185069C 1.44601 -0.200894 0.575419 0.0362324 0.186447 0.715912C -0.202524 1.39517 0.0367879 2.25891 0.72123 2.64502L 23.8021 15.6679C 24.0208 15.7914 24.2636 15.8528 24.5064 15.8528C 24.7705 15.8528 25.0342 15.7799 25.2658 15.6352L 35.8169 9.04015C 36.4831 8.62391 36.6831 7.75026 36.2636 7.08911C 35.8444 6.42754 34.9641 6.22904 34.2981 6.64556Z"/>
<path id="path7_fill" d="M 11.2172 0.217781L 0.666097 6.81269C -0.000100384 7.22893 -0.200074 8.10258 0.219399 8.76372C 0.490212 9.191 0.953298 9.42487 1.42693 9.42487C 1.68634 9.42487 1.94917 9.35455 2.18492 9.20712L 12.736 2.61222C 13.4022 2.19598 13.6022 1.32233 13.1827 0.661186C 12.7634 -0.000100791 11.8833 -0.198601 11.2172 0.217781Z"/>
<path id="path8_fill" d="M 34.2981 6.64556L 24.4689 12.7893L 2.12988 0.185069C 1.44601 -0.200894 0.575419 0.0362324 0.186447 0.715912C -0.202524 1.39517 0.0367879 2.25891 0.72123 2.64502L 23.8021 15.6679C 24.0208 15.7914 24.2636 15.8528 24.5064 15.8528C 24.7705 15.8528 25.0342 15.7799 25.2658 15.6352L 35.8169 9.04015C 36.4831 8.62391 36.6831 7.75026 36.2636 7.08911C 35.8444 6.42768 34.9641 6.22904 34.2981 6.64556Z"/>
</defs>
</svg>
