<svg width="74" height="70" viewBox="0 0 74 70" version="1.1" xmlns="http://www.w3.org/2000/svg" xmlns:xlink="http://www.w3.org/1999/xlink">
<title>006-t-shirt</title>
<desc>Created using Figma</desc>
<g id="Canvas" transform="translate(20607 -7358)">
<g id="006-t-shirt">
<g id="Group">
<g id="Group">
<g id="Vector">
<use xlink:href="#path0_fill" transform="translate(-20607 7369.94)" fill="#B8C0D1"/>
</g>
<g id="Vector">
<use xlink:href="#path1_fill" transform="translate(-20579.5 7358)" fill="#FF871C"/>
</g>
</g>
</g>
</g>
</g>
<defs>
<path id="path0_fill" d="M 19.1487 19.4444L 19.1487 58.062L 37.0156 58.062L 37.1216 58.062L 55.0546 58.062L 55.0546 19.4444C 58.6451 19.9427 67.8566 24.3601 67.8566 24.3601L 74 10.0216C 65.3684 4.73332 49.0213 -1.21013e-07 49.0213 -1.21013e-07C 47.5194 6.90723 38.2555 6.58801 37.0673 6.67349C 35.8786 6.58801 26.6158 6.9059 25.1126 -1.21013e-07C 25.1126 -1.21013e-07 8.63292 4.73332 0 10.0216L 6.31323 24.3601C 6.31323 24.3601 15.5581 19.9427 19.1487 19.4444ZM 23.638 2.93393C 25.1902 5.95664 28.744 8.80509 36.5704 9.03641C 36.7113 9.04103 36.8228 9.04214 36.8946 9.04808C 36.9509 9.05161 37.0081 9.05447 37.067 9.05447C 37.126 9.05447 37.1845 9.05161 37.243 9.04808C 37.3153 9.04346 37.4252 9.04103 37.568 9.03641C 45.3919 8.80509 48.9475 5.95774 50.4996 2.93613C 54.7671 4.26585 64.4799 7.47449 71.0429 11.0312L 66.7557 21.1515C 63.685 19.7499 58.408 17.4774 55.6623 17.089C 55.5501 17.0733 55.4367 17.0652 55.3247 17.0652C 54.7531 17.0652 54.0587 17.2698 53.6205 17.6479C 53.0984 18.0993 52.6611 18.7544 52.6611 19.4446L 52.6611 55.683L 37.1218 55.683L 37.0158 55.683L 21.5424 55.683L 21.5424 19.4444C 21.5424 18.7544 21.104 18.099 20.5812 17.6476C 20.1434 17.2696 19.5175 17.065 18.9441 17.065C 18.8313 17.065 18.6852 17.0731 18.5731 17.0887C 15.8227 17.4774 10.4954 19.759 7.41966 21.1594L 3.04712 11.0253C 9.61812 7.46987 19.359 4.26123 23.638 2.93393Z"/>
<path id="path1_fill" d="M 8.64549 13.475C 8.55683 13.1626 8.48258 12.778 8.42518 12.4465C 4.13221 12.6498 1.01682 13.6623 0.804488 13.7361C 0.181012 13.9522 -0.150342 14.6021 0.066423 15.2231C 0.23886 15.7146 0.701646 16.0223 1.19724 16.0223C 1.32756 16.0223 1.46077 16.2232 1.58998 16.1792C 1.63431 16.1629 4.09719 15.2775 7.60643 15.2775C 8.95047 15.2775 10.4461 15.2775 12.0229 15.2775C 13.782 15.2775 15.6356 15.5331 17.4823 16.1768C 18.1054 16.3911 18.7891 15.9554 19.0077 15.3357C 19.2262 14.716 18.8979 13.9813 18.2747 13.7645C 15.7362 12.8802 13.2102 12.4866 10.8949 12.4035C 10.8925 12.3942 10.8903 12.3843 10.8903 12.3749C 10.4193 10.067 12.2567 9.85157 14.0903 8.85142C 15.7806 7.92947 16.6829 6.05693 16.3462 4.16215C 15.5259 -0.438335 9.02738 -0.837956 5.68082 1.08943C 4.34609 1.85739 5.55049 3.91476 6.8881 3.14327C 8.43094 2.25459 10.3479 2.21207 12.0355 2.66875C 14.0646 3.21839 14.7798 5.62251 12.8817 6.79692C 11.6638 7.54857 10.2799 7.83672 9.24015 8.87873C 8.29241 9.828 8.21151 11.1458 8.42495 12.3896C 8.48214 12.7212 8.55528 13.0494 8.64527 13.3625C 8.6692 13.4455 8.71841 13.499 8.75276 13.5693C 9.19826 14.4615 10.4552 14.3163 10.8641 13.5704C 10.9226 13.4647 10.9601 13.3455 10.9809 13.2195C 10.9787 13.436 10.9459 13.6453 10.8641 13.794C 10.455 14.5397 9.19915 14.7953 8.75276 13.9033C 4.37557 14.0734 1.19702 15.2775 1.19702 15.2775C 1.19702 15.2775 4.37557 13.9619 8.75276 13.794C 8.71863 13.7235 8.66965 13.5585 8.64549 13.475Z"/>
</defs>
</svg>
