<svg width="70" height="65" viewBox="0 0 70 65" version="1.1" xmlns="http://www.w3.org/2000/svg" xmlns:xlink="http://www.w3.org/1999/xlink">
<title>Group</title>
<desc>Created using Figma</desc>
<g id="Canvas" transform="translate(20311 -7083)">
<g id="Group">
<g id="009-commerce-1">
<g id="Group">
<g id="Group">
<g id="Vector">
<use xlink:href="#path0_fill" transform="translate(-20311 7083)" fill="#B8C0D1"/>
</g>
<g id="Mask Group">
<mask id="mask0_alpha" mask-type="alpha">
<g id="Vector">
<use xlink:href="#path0_fill" transform="translate(-20311 7083)" fill="#B8C0D1"/>
</g>
</mask>
<g id="Vector 2" mask="url(#mask0_alpha)">
<use xlink:href="#path1_fill" transform="translate(-20294 7081.5)" fill="#FF871C"/>
</g>
</g>
</g>
</g>
</g>
</g>
</g>
<defs>
<path id="path0_fill" d="M 66.7827 23.1871L 51.084 23.1871L 40.0483 1.75073C 39.6527 0.982179 38.9837 0.414857 38.1645 0.153165C 37.3451 -0.108528 36.474 -0.0330504 35.7111 0.365549C 35.4458 0.504108 35.2085 0.675448 35 0.871441C 34.7914 0.675585 34.554 0.504108 34.2888 0.365549C 33.526 -0.0330504 32.6546 -0.10839 31.8354 0.153165C 31.0162 0.414719 30.3472 0.982179 29.9515 1.75073L 18.3192 24.3461C 17.9236 25.1146 17.8486 25.9924 18.1084 26.8177C 18.197 27.0994 18.3236 27.3619 18.4789 27.6033L 3.21727 27.6033C 2.574 27.6033 2.05078 27.0762 2.05078 26.4282C 2.05078 25.7803 2.57414 25.253 3.21727 25.253L 14.9074 25.253C 15.4737 25.253 15.9328 24.7907 15.9328 24.2201C 15.9328 23.6496 15.4737 23.1871 14.9074 23.1871L 3.21727 23.1871C 1.44334 23.1871 0 24.6411 0 26.4282C 0 27.9103 0.992852 29.1623 2.3435 29.5469L 8.28242 61.4554C 8.66455 63.5093 10.4475 65 12.5218 65L 57.4783 65C 59.5526 65 61.3354 63.5093 61.7177 61.4554L 67.6566 29.5467C 69.0071 29.1623 70 27.9103 70 26.4282C 70 24.641 68.5567 23.1871 66.7827 23.1871ZM 36.6553 2.19974C 36.9318 2.05526 37.2478 2.02785 37.5447 2.12274C 37.8417 2.2175 38.0844 2.42328 38.2278 2.70191L 49.8601 25.2974C 50.0035 25.576 50.0307 25.8943 49.9365 26.1935C 49.8425 26.4928 49.6382 26.7371 49.3615 26.8816C 49.085 27.0262 48.7691 27.0535 48.472 26.9587C 48.1749 26.864 47.9324 26.6582 47.7889 26.3796L 36.1568 3.78394C 35.8606 3.20877 36.0843 2.49807 36.6553 2.19974ZM 50.3096 29.6695L 49.3393 39.7485L 36.0254 39.7485L 36.0254 29.6695L 50.3096 29.6695ZM 35 6.0243L 45.9687 27.3305C 46.0171 27.4247 46.0698 27.5156 46.1263 27.6033L 23.8737 27.6033C 23.9302 27.5156 23.9829 27.4247 24.0313 27.3306L 25.1009 25.2532L 40.708 25.2532C 41.2743 25.2532 41.7334 24.7908 41.7334 24.2202C 41.7334 23.6497 41.2743 23.1872 40.708 23.1872L 26.1644 23.1872L 35 6.0243ZM 20.1398 25.2973L 31.7722 2.70177C 31.9156 2.42314 32.1582 2.21737 32.4553 2.12261C 32.5715 2.08542 32.6905 2.0671 32.8091 2.0671C 32.9935 2.0671 33.1764 2.11173 33.3447 2.1996C 33.9157 2.49807 34.1394 3.20863 33.8432 3.7838L 22.2108 26.3793C 22.0674 26.6579 21.8248 26.8637 21.5277 26.9585C 21.2309 27.0532 20.915 27.0259 20.6382 26.8813C 20.3617 26.7368 20.1574 26.4925 20.0633 26.1932C 19.9691 25.8942 19.9963 25.576 20.1398 25.2973ZM 4.45279 29.6695L 17.63 29.6695L 18.6003 39.7485L 6.32871 39.7485L 4.45279 29.6695ZM 6.7133 41.8143L 18.7992 41.8143L 19.7695 51.8932L 8.58908 51.8932L 6.7133 41.8143ZM 12.5217 62.9341C 11.4337 62.9341 10.4985 62.1522 10.2981 61.0749L 8.97367 53.9592L 19.9683 53.9592L 20.8324 62.9341L 12.5217 62.9341ZM 33.9746 62.9341L 22.8926 62.9341L 22.0287 53.9592L 33.9746 53.9592L 33.9746 62.9341ZM 33.9746 51.8932L 21.8297 51.8932L 20.8595 41.8143L 33.9746 41.8143L 33.9746 51.8932ZM 33.9746 39.7485L 20.6607 39.7485L 19.6904 29.6695L 33.9746 29.6695L 33.9746 39.7485ZM 47.1074 62.9341L 36.0254 62.9341L 36.0254 53.9592L 47.9713 53.9592L 47.1074 62.9341ZM 48.1703 51.8933L 36.0254 51.8933L 36.0254 41.8145L 49.1405 41.8145L 48.1703 51.8933ZM 59.7019 61.0749C 59.5015 62.1522 58.5662 62.9341 57.4782 62.9341L 49.1676 62.9341L 50.0317 53.9592L 61.0263 53.9592L 59.7019 61.0749ZM 61.4109 51.8933L 50.2306 51.8933L 51.2009 41.8145L 63.2868 41.8145L 61.4109 51.8933ZM 63.6713 39.7483L 51.3998 39.7483L 52.3701 29.6693L 65.5472 29.6693L 63.6713 39.7483ZM 66.7827 27.6035L 66.7661 27.6035L 66.7641 27.6035L 51.5211 27.6035C 51.6764 27.362 51.8029 27.0995 51.8916 26.8178C 52.0533 26.3037 52.0852 25.769 51.9906 25.2532L 66.7827 25.2532C 67.426 25.2532 67.9492 25.7804 67.9492 26.4283C 67.9492 27.0762 67.4259 27.6035 66.7827 27.6035Z"/>
<path id="path1_fill" d="M 1 24.5L 14.5 0L 27.5 0.5L 32.5 21.5L 35 26.5C 35.3333 27.3333 35.5 29.2 33.5 30C 31.5 30.8 30 30 29.5 29.5L 25.5 24L 9.5 24L 7 29C 6 30 4.5 30.5 3 30C 1.86158 29.6205 1.16667 29 1 28.5L 0 28.5L 1 24.5Z"/>
</defs>
</svg>
