<svg width="70" height="58" viewBox="0 0 70 58" version="1.1" xmlns="http://www.w3.org/2000/svg" xmlns:xlink="http://www.w3.org/1999/xlink">
<title>004-first-aid-kit</title>
<desc>Created using Figma</desc>
<g id="Canvas" transform="translate(20310 -7650)">
<g id="004-first-aid-kit">
<g id="Group">
<g id="Group">
<g id="Vector">
<use xlink:href="#path0_fill" transform="translate(-20310 7650)" fill="#B8C0D1"/>
</g>
</g>
</g>
<g id="Group">
<g id="Group">
<g id="Vector">
<use xlink:href="#path1_fill" transform="translate(-20291.9 7668.39)" fill="#FF871C"/>
</g>
</g>
</g>
<g id="Group">
<g id="Group">
<g id="Vector">
<use xlink:href="#path2_fill" transform="translate(-20299.4 7666.32)" fill="#B8C0D1"/>
</g>
</g>
</g>
<g id="Group">
<g id="Group">
<g id="Vector">
<use xlink:href="#path3_fill" transform="translate(-20305 7666.32)" fill="#B8C0D1"/>
</g>
</g>
</g>
</g>
</g>
<defs>
<path id="path0_fill" d="M 64.208 11.757L 49.2232 11.757L 49.2232 8.13371C 49.2232 3.64871 45.5325 2.88749e-08 40.9962 2.88749e-08L 29.0041 2.88749e-08C 24.4678 2.88749e-08 20.7771 3.64871 20.7771 8.13371L 20.7771 11.7571L 5.7921 11.7571C 2.59835 11.757 0 14.326 0 17.4835L 0 52.2736C 0 55.4311 2.59835 58 5.7921 58L 64.2079 58C 67.4017 58 70 55.4311 70 52.2736L 70 17.4835C 70.0001 14.326 67.4018 11.757 64.208 11.757ZM 23.5658 8.13384C 23.5658 5.16921 26.0055 2.75728 29.0041 2.75728L 40.9962 2.75728C 43.9948 2.75728 46.4344 5.16921 46.4344 8.13384L 46.4344 11.7573L 23.5658 11.7573L 23.5658 8.13384ZM 67.2113 52.2736C 67.2113 53.9109 65.8641 55.2429 64.208 55.2429L 5.7921 55.2429C 4.13602 55.2429 2.78879 53.9109 2.78879 52.2736L 2.78879 17.4835C 2.78879 15.8462 4.13602 14.5143 5.7921 14.5143L 64.2079 14.5143C 65.864 14.5143 67.2112 15.8462 67.2112 17.4835L 67.2112 52.2736L 67.2113 52.2736Z"/>
<path id="path1_fill" d="M 32.3505 9.96969L 23.6607 9.96969L 23.6607 1.37857C 23.6607 0.617175 23.0363 -6.43498e-07 22.2663 -6.43498e-07L 11.4787 -6.43498e-07C 10.7087 -6.43498e-07 10.0843 0.617175 10.0843 1.37857L 10.0843 9.96969L 1.3944 9.96969C 0.624395 9.96969 4.67301e-07 10.5869 4.67301e-07 11.3483L 4.67301e-07 22.0135C 4.67301e-07 22.7749 0.624395 23.3921 1.3944 23.3921L 10.0841 23.3921L 10.0841 31.9834C 10.0841 32.7448 10.7085 33.3619 11.4785 33.3619L 22.2662 33.3619C 23.0362 33.3619 23.6606 32.7448 23.6606 31.9834L 23.6606 23.3922L 32.3505 23.3922C 33.1205 23.3922 33.7449 22.7751 33.7449 22.0137L 33.7449 11.3484C 33.7449 10.5869 33.1205 9.96969 32.3505 9.96969ZM 30.9561 20.6351L 22.2663 20.6351C 21.4963 20.6351 20.8719 21.2523 20.8719 22.0137L 20.8719 30.6048L 12.8731 30.6048L 12.8731 22.0137C 12.8731 21.2523 12.2487 20.6351 11.4787 20.6351L 2.78879 20.6351L 2.78879 12.727L 11.4785 12.727C 12.2485 12.727 12.8729 12.1098 12.8729 11.3484L 12.8729 2.75715L 20.8718 2.75715L 20.8718 11.3483C 20.8718 12.1097 21.4962 12.7268 22.2662 12.7268L 30.9561 12.7268L 30.9561 20.6351Z"/>
<path id="path2_fill" d="M 11.1555 1.0065e-06L 1.3944 1.0065e-06C 0.624395 1.0065e-06 -8.34467e-09 0.617175 -8.34467e-09 1.37857C -8.34467e-09 2.13997 0.624395 2.75715 1.3944 2.75715L 11.1553 2.75715C 11.9253 2.75715 12.5497 2.13997 12.5497 1.37857C 12.5498 0.61731 11.9255 1.0065e-06 11.1555 1.0065e-06Z"/>
<path id="path3_fill" d="M 2.09166 1.0065e-06L 1.3944 1.0065e-06C 0.624396 1.0065e-06 -1.29342e-07 0.617175 -1.29342e-07 1.37857C -1.29342e-07 2.13997 0.624396 2.75715 1.3944 2.75715L 2.09166 2.75715C 2.86167 2.75715 3.48606 2.13997 3.48606 1.37857C 3.48606 0.61731 2.86167 1.0065e-06 2.09166 1.0065e-06Z"/>
</defs>
</svg>
