<svg width="70" height="65" viewBox="0 0 70 65" version="1.1" xmlns="http://www.w3.org/2000/svg" xmlns:xlink="http://www.w3.org/1999/xlink">
<title>Group</title>
<desc>Created using Figma</desc>
<g id="Canvas" transform="translate(20017 -7090)">
<g id="Group">
<g id="008-commerce">
<g id="Group">
<g id="Group">
<g id="Vector">
<use xlink:href="#path0_fill" transform="translate(-20017 7148.04)" fill="#B8C0D1"/>
</g>
</g>
</g>
<g id="Group">
<g id="Group">
<g id="Vector">
<use xlink:href="#path1_fill" transform="translate(-20015.8 7094.64)" fill="#B8C0D1"/>
</g>
</g>
</g>
<g id="Group">
<g id="Group">
<g id="Vector">
<use xlink:href="#path2_fill" transform="translate(-19987.8 7109.73)" fill="#B8C0D1"/>
</g>
</g>
</g>
<g id="Group">
<g id="Group">
<g id="Vector">
<use xlink:href="#path3_fill" transform="translate(-19997.2 7109.73)" fill="#B8C0D1"/>
</g>
</g>
</g>
<g id="Group">
<g id="Group">
<g id="Vector">
<use xlink:href="#path4_fill" transform="translate(-20006.5 7109.73)" fill="#B8C0D1"/>
</g>
</g>
</g>
<g id="Group">
<g id="Group">
<g id="Vector">
<use xlink:href="#path5_fill" transform="translate(-20015.8 7109.73)" fill="#B8C0D1"/>
</g>
</g>
</g>
<g id="Group">
<g id="Group">
<g id="Vector">
<use xlink:href="#path6_fill" transform="translate(-19959.8 7109.73)" fill="#B8C0D1"/>
</g>
</g>
</g>
<g id="Group">
<g id="Group">
<g id="Vector">
<use xlink:href="#path7_fill" transform="translate(-19969.2 7109.73)" fill="#B8C0D1"/>
</g>
</g>
</g>
<g id="Group">
<g id="Group">
<g id="Vector">
<use xlink:href="#path8_fill" transform="translate(-19978.5 7109.73)" fill="#B8C0D1"/>
</g>
</g>
</g>
<g id="Group">
<g id="Group">
<g id="Vector">
<use xlink:href="#path9_fill" transform="translate(-19987.8 7095.8)" fill="#B8C0D1"/>
</g>
</g>
</g>
<g id="Group">
<g id="Group">
<g id="Vector">
<use xlink:href="#path10_fill" transform="translate(-19978.5 7095.8)" fill="#B8C0D1"/>
</g>
</g>
</g>
<g id="Group">
<g id="Group">
<g id="Vector">
<use xlink:href="#path11_fill" transform="matrix(0.0834225 -0.996465 0.996535 0.0825796 -19997.2 7109.64)" fill="#B8C0D1"/>
</g>
</g>
</g>
<g id="Group">
<g id="Group">
<g id="Vector">
<use xlink:href="#path12_fill" transform="matrix(0.165421 -0.986263 0.986536 0.163783 -20006.5 7109.54)" fill="#B8C0D1"/>
</g>
</g>
</g>
<g id="Group">
<g id="Group">
<g id="Vector">
<use xlink:href="#path13_fill" transform="matrix(0.996535 -0.0825796 0.0834225 0.996465 -19970.3 7095.9)" fill="#B8C0D1"/>
</g>
</g>
</g>
<g id="Group">
<g id="Group">
<g id="Vector">
<use xlink:href="#path14_fill" transform="matrix(0.986536 -0.163584 0.16522 0.986263 -19962.1 7095.99)" fill="#B8C0D1"/>
</g>
</g>
</g>
<g id="Group">
<g id="Group">
<g id="Vector">
<use xlink:href="#path15_fill" transform="translate(-20012.3 7090)" fill="#B8C0D1"/>
</g>
</g>
</g>
<g id="Group">
<g id="Group">
<g id="Vector">
<use xlink:href="#path16_fill" transform="translate(-20012.3 7116.7)" fill="#B8C0D1"/>
</g>
</g>
</g>
<g id="Group">
<g id="Group">
<g id="Vector">
<use xlink:href="#path17_fill" transform="translate(-19954 7116.7)" fill="#B8C0D1"/>
</g>
</g>
</g>
<g id="Group">
<g id="Group">
<g id="Vector">
<use xlink:href="#path18_fill" transform="translate(-20007.7 7122.5)" fill="#FF7800"/>
</g>
</g>
</g>
<g id="Group">
<g id="Group">
<g id="Vector">
<use xlink:href="#path19_fill" transform="translate(-19970.3 7122.5)" fill="#B8C0D1"/>
</g>
</g>
</g>
<g id="Group">
<g id="Group">
<g id="Vector">
<use xlink:href="#path20_fill" transform="matrix(0.708905 -0.70529 0.708905 0.70529 -20000.3 7132.13)" fill="#B8C0D1"/>
</g>
</g>
</g>
<g id="Group">
<g id="Group">
<g id="Vector">
<use xlink:href="#path21_fill" transform="matrix(0.708905 -0.70529 0.708905 0.70529 -19998 7136.77)" fill="#B8C0D1"/>
</g>
</g>
</g>
<g id="Group">
<g id="Group">
<g id="Vector">
<use xlink:href="#path22_fill" transform="matrix(0.708905 -0.70529 0.708905 0.70529 -19989.8 7136.77)" fill="#B8C0D1"/>
</g>
</g>
</g>
</g>
</g>
</g>
<defs>
<path id="path0_fill" d="M 68.8335 2.32459e-07L 1.16662 2.32459e-07C 0.522677 2.32459e-07 0 0.518786 0 1.16067L 0 5.80364C 0 6.44553 0.522677 6.96432 1.16662 6.96432L 68.8334 6.96432C 69.4786 6.96432 70 6.44553 70 5.80364L 70 1.16081C 70.0001 0.518923 69.4787 2.32459e-07 68.8335 2.32459e-07ZM 67.6668 4.64297L 2.33338 4.64297L 2.33338 2.32148L 67.6669 2.32148L 67.6669 4.64297L 67.6668 4.64297Z"/>
<path id="path1_fill" d="M 67.6317 14.8073L 64.1316 0.878701C 64.0009 0.363314 63.5354 1.03776e-07 63 1.03776e-07L 4.66653 1.03776e-07C 4.131 1.03776e-07 3.66438 0.363314 3.53491 0.878701L 0.0349022 14.8073C -0.052598 15.1543 0.0266991 15.5212 0.247227 15.8033C 0.467755 16.0854 0.807228 16.2501 1.16653 16.2501L 66.5 16.2501C 66.8593 16.2501 67.1977 16.0853 67.4193 15.8033C 67.641 15.5213 67.7192 15.1543 67.6317 14.8073ZM 2.661 13.9286L 5.57763 2.32148L 62.0888 2.32148L 65.0054 13.9286L 2.661 13.9286Z"/>
<path id="path2_fill" d="M 9.3334 -5.97752e-07L 9.3334 2.32148C 9.3334 4.2413 7.76304 5.80364 5.83339 5.80364C 3.90374 5.80364 2.33338 4.2413 2.33338 2.32148L 2.33338 -5.97752e-07L -1.01805e-06 -5.97752e-07L -1.01805e-06 2.32148C -1.01805e-06 5.52153 2.6168 8.12513 5.83339 8.12513C 9.04984 8.12513 11.6668 5.52167 11.6668 2.32148L 11.6668 -5.97752e-07L 9.3334 -5.97752e-07Z"/>
<path id="path3_fill" d="M 9.3334 -5.97752e-07L 9.3334 2.32148C 9.3334 4.2413 7.76304 5.80364 5.83339 5.80364C 3.90374 5.80364 2.33338 4.2413 2.33338 2.32148L 2.33338 -5.97752e-07L -7.84399e-07 -5.97752e-07L -7.84399e-07 2.32148C -7.84399e-07 5.52153 2.6168 8.12513 5.83339 8.12513C 9.04984 8.12513 11.6668 5.52167 11.6668 2.32148L 11.6668 -5.97752e-07L 9.3334 -5.97752e-07Z"/>
<path id="path4_fill" d="M 9.3334 -5.97752e-07L 9.3334 2.32148C 9.3334 4.2413 7.76304 5.80364 5.83339 5.80364C 3.90374 5.80364 2.33338 4.2413 2.33338 2.32148L 2.33338 -5.97752e-07L 4.17233e-07 -5.97752e-07L 4.17233e-07 2.32148C 4.17233e-07 5.52153 2.6168 8.12513 5.83339 8.12513C 9.04998 8.12513 11.6668 5.52167 11.6668 2.32148L 11.6668 -5.97752e-07L 9.3334 -5.97752e-07Z"/>
<path id="path5_fill" d="M 9.3334 -5.97752e-07L 9.3334 2.32148C 9.3334 4.2413 7.76304 5.80364 5.83339 5.80364C 3.90374 5.80364 2.33338 4.2413 2.33338 2.32148L 2.33338 -5.97752e-07L -1.04308e-09 -5.97752e-07L -1.04308e-09 2.32148C -1.04308e-09 5.52153 2.6168 8.12513 5.83339 8.12513C 9.04984 8.12513 11.6668 5.52167 11.6668 2.32148L 11.6668 -5.97752e-07L 9.3334 -5.97752e-07Z"/>
<path id="path6_fill" d="M 9.3334 -5.97752e-07L 9.3334 2.32148C 9.3334 4.2413 7.76304 5.80364 5.83339 5.80364C 3.90374 5.80364 2.33338 4.2413 2.33338 2.32148L 2.33338 -5.97752e-07L -6.00816e-07 -5.97752e-07L -6.00816e-07 2.32148C -6.00816e-07 5.52153 2.6168 8.12513 5.83339 8.12513C 9.04984 8.12513 11.6668 5.52167 11.6668 2.32148L 11.6668 -5.97752e-07L 9.3334 -5.97752e-07Z"/>
<path id="path7_fill" d="M 9.3334 -5.97752e-07L 9.3334 2.32148C 9.3334 4.2413 7.76304 5.80364 5.83339 5.80364C 3.90374 5.80364 2.33339 4.2413 2.33339 2.32148L 2.33339 -5.97752e-07L -3.67165e-07 -5.97752e-07L -3.67165e-07 2.32148C -3.67165e-07 5.52153 2.6168 8.12513 5.83339 8.12513C 9.04984 8.12513 11.6668 5.52167 11.6668 2.32148L 11.6668 -5.97752e-07L 9.3334 -5.97752e-07Z"/>
<path id="path8_fill" d="M 9.3334 -5.97752e-07L 9.3334 2.32148C 9.3334 4.2413 7.76304 5.80364 5.83339 5.80364C 3.90374 5.80364 2.33338 4.2413 2.33338 2.32148L 2.33338 -5.97752e-07L 8.34467e-07 -5.97752e-07L 8.34467e-07 2.32148C 8.34467e-07 5.52153 2.6168 8.12513 5.83339 8.12513C 9.04984 8.12513 11.6668 5.52167 11.6668 2.32148L 11.6668 -5.97752e-07L 9.3334 -5.97752e-07Z"/>
<path id="path9_fill" d="M 2.33338 0L 0 0L 0 13.9286L 2.33338 13.9286L 2.33338 0Z"/>
<path id="path10_fill" d="M 2.33338 0L 0 0L 0 13.9286L 2.33338 13.9286L 2.33338 0Z"/>
<path id="path11_fill" d="M 13.9748 0L 0 0L 0 2.33317L 13.9748 2.33317L 13.9748 0Z"/>
<path id="path12_fill" d="M 14.1239 0L 0 0L 0 2.33306L 14.1239 2.33306L 14.1239 0Z"/>
<path id="path13_fill" d="M 2.33193 0L 0 0L 0 13.9748L 2.33193 13.9748L 2.33193 0Z"/>
<path id="path14_fill" d="M 2.33306 0L 0 0L 0 14.1233L 2.33306 14.1233L 2.33306 0Z"/>
<path id="path15_fill" d="M 59.5 -7.67945e-08L 1.16662 -7.67945e-08C 0.522677 -7.67945e-08 -1.54376e-07 0.520011 -1.54376e-07 1.16067L -1.54376e-07 5.80351L 2.33325 5.80351L 2.33325 2.32135L 58.3334 2.32135L 58.3334 5.80351L 60.6667 5.80351L 60.6667 1.16067C 60.6667 0.520011 60.1452 -7.67945e-08 59.5 -7.67945e-08Z"/>
<path id="path16_fill" d="M 2.33338 0L 0 0L 0 31.3394L 2.33338 31.3394L 2.33338 0Z"/>
<path id="path17_fill" d="M 2.33338 0L 0 0L 0 32.5001L 2.33338 32.5001L 2.33338 0Z"/>
<path id="path18_fill" d="M 33.8333 0L 1.16662 0C 0.522677 0 -2.33651e-07 0.518786 -2.33651e-07 1.16067L -2.33651e-07 19.7321C -2.33651e-07 20.374 0.522677 20.8928 1.16662 20.8928L 33.8333 20.8928C 34.4785 20.8928 34.9999 20.374 34.9999 19.7321L 34.9999 1.16067C 35.0001 0.518786 34.4785 0 33.8333 0ZM 32.6667 18.5715L 2.33325 18.5715L 2.33325 2.32148L 32.6667 2.32148L 32.6667 18.5715Z"/>
<path id="path19_fill" d="M 12.8333 0L 1.16662 0C 0.521447 0 2.0361e-06 0.518786 2.0361e-06 1.16067L 2.0361e-06 26.6965C 2.0361e-06 27.3383 0.521447 27.8571 1.16662 27.8571L 12.8333 27.8571C 13.4784 27.8571 13.9999 27.3383 13.9999 26.6965L 13.9999 1.16067C 13.9999 0.518786 13.4784 0 12.8333 0ZM 11.6666 25.5358L 2.33325 25.5358L 2.33325 2.32148L 11.6666 2.32148L 11.6666 25.5358Z"/>
<path id="path20_fill" d="M 6.58303 0L 0 0L 0 2.32744L 6.58303 2.32744L 6.58303 0Z"/>
<path id="path21_fill" d="M 14.8114 0L 0 0L 0 2.32744L 14.8114 2.32744L 14.8114 0Z"/>
<path id="path22_fill" d="M 6.58303 0L 0 0L 0 2.32744L 6.58303 2.32744L 6.58303 0Z"/>
</defs>
</svg>
