<svg width="71" height="70" viewBox="0 0 71 70" version="1.1" xmlns="http://www.w3.org/2000/svg" xmlns:xlink="http://www.w3.org/1999/xlink">
<title>Group</title>
<desc>Created using Figma</desc>
<g id="Canvas" transform="translate(20606 -7080)">
<g id="Group">
<g id="&#208;&#152;&#208;&#186;&#208;&#190;&#208;&#189;&#208;&#186;&#208;&#176;">
<g id="012-shopping-cart">
<g id="Group">
<g id="Group">
<g id="Group">
<g id="Vector">
<use xlink:href="#path0_fill" transform="translate(-20575.8 7103.71)" fill="#B8C0D1"/>
</g>
</g>
<g id="Group">
<g id="Vector">
<use xlink:href="#path0_fill" transform="translate(-20566.7 7103.71)" fill="#B8C0D1"/>
</g>
</g>
<g id="Group">
<g id="Vector">
<use xlink:href="#path0_fill" transform="translate(-20557.6 7103.71)" fill="#B8C0D1"/>
</g>
</g>
<g id="Group">
<g id="Vector">
<use xlink:href="#path1_fill" transform="translate(-20605.2 7080)" fill="#B8C0D1"/>
</g>
<g id="Vector">
<use xlink:href="#path2_fill" transform="translate(-20554.2 7142.1)" fill="#B8C0D1"/>
</g>
<g id="Vector">
<use xlink:href="#path3_fill" transform="translate(-20583.7 7142.1)" fill="#B8C0D1"/>
</g>
<g id="Vector">
<use xlink:href="#path4_fill" transform="translate(-20584.8 7107.1)" fill="#B8C0D1"/>
</g>
<g id="Vector">
<use xlink:href="#path5_fill" transform="translate(-20583.7 7113.87)" fill="#B8C0D1"/>
</g>
<g id="Vector">
<use xlink:href="#path6_fill" transform="translate(-20582.6 7120.64)" fill="#B8C0D1"/>
</g>
<g id="Vector">
<use xlink:href="#path7_fill" transform="matrix(0.243382 -0.969879 0.970319 0.241621 -20564.7 7091.26)" fill="#B8C0D1"/>
</g>
<g id="Vector">
<use xlink:href="#path8_fill" transform="matrix(0.243396 -0.969875 0.970323 0.241607 -20565.8 7095.77)" fill="#B8C0D1"/>
</g>
</g>
</g>
</g>
</g>
<g id="Mask Group">
<mask id="mask0_alpha" mask-type="alpha">
<g id="012-shopping-cart">
<g id="Group">
<g id="Group">
<g id="Group">
<g id="Vector">
<use xlink:href="#path0_fill" transform="translate(-20575.8 7103.71)" fill="#B8C0D1"/>
</g>
</g>
<g id="Group">
<g id="Vector">
<use xlink:href="#path0_fill" transform="translate(-20566.7 7103.71)" fill="#B8C0D1"/>
</g>
</g>
<g id="Group">
<g id="Vector">
<use xlink:href="#path0_fill" transform="translate(-20557.6 7103.71)" fill="#B8C0D1"/>
</g>
</g>
<g id="Group">
<g id="Vector">
<use xlink:href="#path1_fill" transform="translate(-20605.2 7080)" fill="#B8C0D1"/>
</g>
<g id="Vector">
<use xlink:href="#path2_fill" transform="translate(-20554.2 7142.1)" fill="#B8C0D1"/>
</g>
<g id="Vector">
<use xlink:href="#path3_fill" transform="translate(-20583.7 7142.1)" fill="#B8C0D1"/>
</g>
<g id="Vector">
<use xlink:href="#path4_fill" transform="translate(-20584.8 7107.1)" fill="#B8C0D1"/>
</g>
<g id="Vector">
<use xlink:href="#path5_fill" transform="translate(-20583.7 7113.87)" fill="#B8C0D1"/>
</g>
<g id="Vector">
<use xlink:href="#path6_fill" transform="translate(-20582.6 7120.65)" fill="#B8C0D1"/>
</g>
<g id="Vector">
<use xlink:href="#path7_fill" transform="matrix(0.243398 -0.969875 0.970323 0.241605 -20564.7 7091.26)" fill="#B8C0D1"/>
</g>
<g id="Vector">
<use xlink:href="#path8_fill" transform="matrix(0.243399 -0.969875 0.970323 0.241604 -20565.8 7095.77)" fill="#B8C0D1"/>
</g>
</g>
</g>
</g>
</g>
</mask>
<g id="Vector" mask="url(#mask0_alpha)">
<use xlink:href="#path9_fill" transform="translate(-20558.4 7083.5)" fill="#FF871C"/>
</g>
</g>
</g>
</g>
</g>
<defs>
<path id="path0_fill" d="M 2.26686 0L 0 0L 0 22.5805L 2.26686 22.5805L 2.26686 0Z"/>
<path id="path1_fill" d="M 15.868 53.0643L 18.3728 53.0643L 20.4017 53.0643L 59.7929 53.0643L 69.5074 19.1935L 66.836 19.1935C 66.4822 12.101 62.8248 11.2902 61.204 11.2902C 59.7351 11.2902 58.631 11.8558 57.8038 12.6191L 57.8038 11.2902C 57.8038 9.42287 59.3293 7.90305 61.204 7.90305L 61.204 5.645C 58.0792 5.645 55.537 8.17739 55.537 11.2902L 55.537 12.6191C 54.7107 11.8558 53.6067 11.2902 52.1378 11.2902C 51.1563 11.2902 49.4301 11.5906 48.1379 13.3937L 49.6908 6.82039C 50.083 5.16063 49.6988 3.44115 48.6356 2.10438C 47.5724 0.767616 45.9801 0 44.2684 0C 41.708 0 39.4854 1.72864 38.8643 4.20346L 37.2979 10.4446C 35.2837 6.27726 31.0143 3.38695 26.069 3.38695C 19.1947 3.38695 13.6014 8.95873 13.6014 15.8063C 13.6014 16.9625 13.7748 18.0938 14.0898 19.1935L 12.6074 19.1935L 8.82951 3.38719L -1.33746e-08 3.38719L -1.33746e-08 5.64524L 7.03851 5.64524L 17.8334 50.8062L 15.868 50.8062C 12.7433 50.8062 10.201 53.3386 10.201 56.4515C 10.201 59.5643 12.7433 62.0967 15.868 62.0967L 15.9701 62.0967C 15.9077 62.4647 15.868 62.8407 15.868 63.2259C 15.868 66.9618 18.9181 70 22.6686 70C 26.4191 70 29.4692 66.9618 29.4692 63.2259C 29.4692 62.841 29.4295 62.465 29.3671 62.0967L 45.4392 62.0967C 45.3769 62.4647 45.3372 62.8407 45.3372 63.2259C 45.3372 66.9618 48.3872 70 52.1378 70C 55.8883 70 58.9384 66.9618 58.9384 63.2259C 58.9384 59.4899 55.8883 56.4517 52.1378 56.4517C 49.6272 56.4517 47.4353 57.8178 46.2575 59.8389L 28.5489 59.8389C 27.3713 57.8178 25.1792 56.4517 22.6686 56.4517C 20.158 56.4517 17.9661 57.8178 16.7883 59.8389L 15.868 59.8389C 13.9934 59.8389 12.4678 58.3193 12.4678 56.4517C 12.4678 54.5841 13.9934 53.0643 15.868 53.0643ZM 52.1378 13.5483C 54.7514 13.5483 55.5551 17.1342 55.5619 17.1667C 55.6707 17.6884 56.1333 18.0644 56.6681 18.0644L 56.6715 18.0644C 57.2054 18.0644 57.6677 17.6906 57.7799 17.1701C 57.7879 17.134 58.5914 13.5483 61.2052 13.5483C 63.7567 13.5483 64.4344 16.7016 64.5737 19.1935L 48.7693 19.1935C 48.9088 16.7028 49.5863 13.5483 52.1378 13.5483ZM 38.5025 14.9518L 41.0629 4.75093C 41.4312 3.28314 42.7495 2.25805 44.2682 2.25805C 45.2838 2.25805 46.228 2.71303 46.8593 3.5057C 47.4894 4.29836 47.7172 5.31768 47.4848 6.30351L 44.4394 19.1935L 38.0492 19.1935C 38.363 18.0938 38.5366 16.9627 38.5366 15.8063C 38.5366 15.5173 38.5129 15.2329 38.4936 14.9482L 38.5025 14.9518ZM 36.2698 15.8063C 36.2698 16.9692 36.0613 18.1039 35.6725 19.1935L 32.3345 19.1935C 31.9445 18.1063 31.736 16.9716 31.736 15.8063C 31.736 13.4568 32.5374 11.2361 34.0029 9.43419C 35.4177 11.1785 36.2698 13.3949 36.2698 15.8063ZM 32.3799 7.83874C 30.4961 10.0708 29.4694 12.8561 29.4694 15.8063C 29.4694 16.9637 29.6418 18.095 29.9569 19.1935L 22.1811 19.1935C 22.4962 18.095 22.6686 16.9637 22.6686 15.8063C 22.6686 12.8563 21.6417 10.0708 19.7581 7.83874C 21.4968 6.46922 23.6866 5.645 26.069 5.645C 28.4514 5.645 30.6412 6.46922 32.3799 7.83874ZM 15.868 15.8063C 15.868 13.3949 16.7204 11.1785 18.1349 9.43419C 19.6004 11.2361 20.4017 13.457 20.4017 15.8063C 20.4017 16.9716 20.1933 18.1061 19.8045 19.1935L 16.4665 19.1935C 16.0767 18.1039 15.868 16.9692 15.868 15.8063ZM 13.1478 21.4516L 66.504 21.4516L 58.0838 50.8062L 20.4017 50.8062L 20.1638 50.8062L 13.1478 21.4516ZM 52.1378 58.7093C 54.6382 58.7093 56.6715 60.7346 56.6715 63.2254C 56.6715 65.7161 54.6382 67.7415 52.1378 67.7415C 49.6373 67.7415 47.6041 65.7161 47.6041 63.2254C 47.6041 60.7346 49.6373 58.7093 52.1378 58.7093ZM 22.6686 58.7093C 25.169 58.7093 27.2023 60.7346 27.2023 63.2254C 27.2023 65.7161 25.169 67.7415 22.6686 67.7415C 20.1682 67.7415 18.1349 65.7161 18.1349 63.2254C 18.1349 60.7346 20.1684 58.7093 22.6686 58.7093Z"/>
<path id="path2_fill" d="M 1.13355 2.25829C 1.75959 2.25829 2.2671 1.75275 2.2671 1.12915C 2.2671 0.505535 1.75959 2.82256e-06 1.13355 2.82256e-06C 0.507506 2.82256e-06 0 0.505535 0 1.12915C 0 1.75275 0.507506 2.25829 1.13355 2.25829Z"/>
<path id="path3_fill" d="M 1.13355 2.25829C 1.75959 2.25829 2.2671 1.75275 2.2671 1.12915C 2.2671 0.505535 1.75959 2.82256e-06 1.13355 2.82256e-06C 0.507508 2.82256e-06 0 0.505535 0 1.12915C 0 1.75275 0.507508 2.25829 1.13355 2.25829Z"/>
<path id="path4_fill" d="M 39.6699 0L 0 0L 0 2.25805L 39.6699 2.25805L 39.6699 0Z"/>
<path id="path5_fill" d="M 36.2698 0L 0 0L 0 2.25805L 36.2698 2.25805L 36.2698 0Z"/>
<path id="path6_fill" d="M 32.8693 0L 0 0L 0 2.25805L 32.8693 2.25805L 32.8693 0Z"/>
<path id="path7_fill" d="M 2.25857 0L 0 0L 0 4.67169L 2.25857 4.67169L 2.25857 0Z"/>
<path id="path8_fill" d="M 2.25857 0L 0 0L 0 4.67169L 2.25857 4.67169L 2.25857 0Z"/>
<path id="path9_fill" d="M 1.51103 9L 0 15.5L 9.06618 15.5L 20.1471 15.5L 21.1544 15L 19.1397 5L 14.1029 0L 5.03676 4.5L 1.51103 9Z"/>
</defs>
</svg>
