<svg width="58" height="70" viewBox="0 0 58 70" version="1.1" xmlns="http://www.w3.org/2000/svg" xmlns:xlink="http://www.w3.org/1999/xlink">
<title>Group</title>
<desc>Created using Figma</desc>
<g id="Canvas" transform="translate(20305 -7371)">
<g id="Group">
<g id="Canvas">
<g id="&#195;&#144;&#194;&#152;&#195;&#144;&#194;&#186;&#195;&#144;&#194;&#190;&#195;&#144;&#194;&#189;&#195;&#144;&#194;&#186;&#195;&#144;&#194;&#176;">
<g id="007 repair">
<g id="Group">
<g id="Group">
<g id="Vector">
<g id="Vector">
<use xlink:href="#path0_fill" transform="translate(-20305 7371)" fill="#B8C0D1"/>
</g>
</g>
</g>
</g>
<g id="Group">
<g id="Group">
<g id="Vector">
<g id="Vector">
<use xlink:href="#path1_fill" transform="translate(-20293.6 7416.53)" fill="#B8C0D1"/>
</g>
</g>
</g>
</g>
</g>
<g id="Mask Group">
<mask id="mask0_alpha" mask-type="alpha">
<g id="mask0 alpha">
<g id="007 repair">
<g id="Group">
<g id="Group">
<g id="Vector">
<g id="Vector">
<use xlink:href="#path0_fill" transform="translate(-20305 7371)" fill="#B8C0D1"/>
</g>
</g>
</g>
</g>
<g id="Group">
<g id="Group">
<g id="Vector">
<g id="Vector">
<use xlink:href="#path1_fill" transform="translate(-20293.6 7416.53)" fill="#B8C0D1"/>
</g>
</g>
</g>
</g>
</g>
</g>
</mask>
<g id="Vector" mask="url(#mask0_alpha)">
<g id="Vector">
<use xlink:href="#path2_fill" transform="translate(-20277 7359.5)" fill="#FF871C"/>
</g>
</g>
</g>
</g>
</g>
</g>
</g>
<defs>
<path id="path0_fill" d="M 58 44.1695L 58 44.0556C 58 41.5382 55.9634 39.49 53.4601 39.49L 40.5056 39.49L 41.348 20.5259C 41.3669 20.0988 41.1262 19.7028 40.7395 19.5252C 37.3433 17.9653 35.1488 14.5341 35.1488 10.7839C 35.1488 7.56474 36.7559 4.59332 39.3524 2.82583L 39.3524 9.29012C 39.3524 10.7809 40.5585 11.9937 42.0409 11.9937L 47.3628 11.9937C 48.8451 11.9937 50.0512 10.7809 50.0512 9.29012L 50.0512 2.82596C 52.6478 4.59345 54.2548 7.56488 54.2548 10.784C 54.2548 14.6298 51.9833 18.096 48.468 19.6147C 48.0671 19.7879 47.8159 20.1938 47.8383 20.6321L 48.5716 34.939C 48.6012 35.5171 49.0906 35.9631 49.6665 35.9321C 50.2416 35.9023 50.6837 35.4093 50.654 34.831L 49.9568 21.2286C 53.8575 19.244 56.3398 15.2214 56.3398 10.7839C 56.3398 6.16844 53.6287 1.9712 49.4328 0.0907825C 49.1104 -0.0537284 48.737 -0.024334 48.4407 0.169122C 48.1446 0.362441 47.9658 0.693435 47.9658 1.04849L 47.9658 9.28985C 47.9658 9.6244 47.6952 9.89647 47.3626 9.89647L 42.0408 9.89647C 41.7081 9.89647 41.4376 9.6244 41.4376 9.28985L 41.4376 1.04877C 41.4376 0.693709 41.2588 0.362714 40.9627 0.169395C 40.6665 -0.0240606 40.293 -0.053455 39.9706 0.0910559C 35.7747 1.97134 33.0636 6.16872 33.0636 10.7842C 33.0636 15.1135 35.4631 19.0933 39.2343 21.1154L 39.1984 23.3722C 38.4767 22.797 37.5662 22.4516 36.5768 22.4492C 36.1403 22.4407 34.6895 22.5172 33.5475 23.7167C 32.5796 24.7336 32.4224 25.9312 32.415 26.5542C 32.414 26.6383 32.3984 26.7267 32.3686 26.8172C 31.6651 28.9581 30.7474 30.9863 29.6411 32.8454C 29.3454 33.3422 29.5063 33.9862 30.0003 34.2835C 30.4944 34.581 31.1346 34.4192 31.4303 33.9223C 32.6151 31.9312 33.597 29.7621 34.3484 27.4755C 34.4453 27.1809 34.4963 26.8797 34.5 26.58C 34.5038 26.2656 34.5807 25.6639 35.0537 25.167C 35.6055 24.5875 36.3264 24.5459 36.5207 24.5459C 36.5402 24.5459 36.5527 24.5463 36.5669 24.5463C 37.7593 24.5463 38.7294 25.5235 38.7294 26.7247C 38.7294 27.1922 38.7326 27.6248 38.7358 28.0339C 38.7408 28.6919 38.7451 29.2601 38.7352 29.823C 38.7061 31.4882 38.6323 32.9698 38.5611 34.4026C 38.4684 36.2647 38.3725 38.1901 38.3725 40.5388C 38.3725 41.1179 38.8394 41.5873 39.4151 41.5873L 53.4597 41.5873C 54.8132 41.5873 55.9143 42.6947 55.9143 44.0559L 55.9143 44.1697C 55.9143 45.5309 54.8132 46.6385 53.4597 46.6385L 50.4322 46.6385C 49.8563 46.6385 49.3896 47.1078 49.3896 47.6869C 49.3896 48.2661 49.8564 48.7354 50.4322 48.7354L 53.4597 48.7354C 54.8132 48.7354 55.9143 49.843 55.9143 51.2042L 55.9143 51.2281C 55.9143 52.5892 54.8132 53.6967 53.4597 53.6967L 50.4322 53.6967C 49.8563 53.6967 49.3896 54.166 49.3896 54.7452C 49.3896 55.3243 49.8564 55.7936 50.4322 55.7936L 53.4597 55.7936C 54.8132 55.7936 55.9143 56.9012 55.9143 58.2624L 55.9143 58.4002C 55.9143 59.7613 54.8132 60.8689 53.4597 60.8689L 50.4322 60.8689C 49.8563 60.8689 49.3896 61.3382 49.3896 61.9174C 49.3896 62.4965 49.8564 62.9659 50.4322 62.9659L 53.4597 62.9659C 54.8132 62.9659 55.9143 64.0734 55.9143 65.4346C 55.9143 66.7957 54.8132 67.9032 53.4597 67.9032L 28.5764 67.9032C 26.1241 67.9032 23.8012 66.9605 22.0356 65.2488L 20.9892 64.2343L 20.9892 44.1559C 22.4137 43.3597 23.7665 42.4405 25.0173 41.4172C 25.7736 40.7984 26.5054 40.1312 27.1925 39.434C 27.5977 39.0226 27.5947 38.3588 27.1858 37.9511C 26.7769 37.5434 26.1167 37.5466 25.7113 37.9578C 25.0765 38.602 24.4003 39.2186 23.7014 39.7905C 22.8168 40.5142 21.8759 41.1803 20.893 41.784C 20.5545 40.4666 19.3627 39.4904 17.9484 39.4904L 1.04257 39.4904C 0.466703 39.4904 -2.44125e-15 39.9598 -2.44125e-15 40.5389L -2.44125e-15 68.9515C -2.44125e-15 69.5307 0.466839 70 1.04257 70L 17.9483 70C 19.5644 70 20.8896 68.7254 20.9834 67.1235C 23.0853 68.9823 25.7608 70 28.5764 70L 53.4601 70C 55.9634 70 58 67.9518 58 65.4343C 58 64.0209 57.3581 62.7555 56.3519 61.9172C 57.3581 61.0792 58 59.8136 58 58.4L 58 58.2622C 58 56.8488 57.3581 55.5832 56.3519 54.745C 57.3581 53.9069 58 52.6415 58 51.2279L 58 51.204C 58 49.7905 57.3579 48.525 56.3518 47.6868C 57.3578 46.8486 58 45.583 58 44.1695ZM 18.9041 43.5171C 18.9041 43.5186 18.9041 43.5201 18.9041 43.5216L 18.9041 66.9415C 18.9041 67.4715 18.4753 67.9027 17.9484 67.9027L 2.08514 67.9027L 2.08514 41.5871L 17.9483 41.5871C 18.4753 41.5871 18.904 42.0183 18.904 42.5483L 18.904 43.5171L 18.9041 43.5171Z"/>
<path id="path1_fill" d="M 1.46033 2.93725C 2.26685 2.93725 2.92066 2.27972 2.92066 1.46862C 2.92066 0.657525 2.26685 0 1.46033 0C 0.653813 0 0 0.657525 0 1.46862C 0 2.27972 0.653813 2.93725 1.46033 2.93725Z"/>
<path id="path2_fill" d="M 0 22.5L 7.5 8L 18.5 0L 34.5 10.5L 38.5 34L 25 49.5L 18.5 49C 17.6667 50 15.9 50.5 15.5 44.5C 15.1 38.5 12 34.6667 10.5 33.5L 0 22.5Z"/>
</defs>
</svg>
