<svg width="70" height="70" viewBox="0 0 70 70" version="1.1" xmlns="http://www.w3.org/2000/svg" xmlns:xlink="http://www.w3.org/1999/xlink">
<title>&#208;&#152;&#208;&#186;&#208;&#190;&#208;&#189;&#208;&#186;&#208;&#176;</title>
<desc>Created using Figma</desc>
<g id="Canvas" transform="translate(20016 -7367)">
<g id="&#208;&#152;&#208;&#186;&#208;&#190;&#208;&#189;&#208;&#186;&#208;&#176;">
<g id="001-restaurant">
<g id="Group">
<g id="Group">
<g id="Group">
<g id="Vector">
<use xlink:href="#path0_fill" transform="translate(-19957 7401.59)" fill="#B8C0D1"/>
</g>
<g id="Vector">
<use xlink:href="#path1_fill" transform="translate(-20016 7367)" fill="#B8C0D1"/>
</g>
</g>
</g>
</g>
</g>
<g id="Mask Group">
<mask id="mask0_alpha" mask-type="alpha">
<g id="Group">
<g id="Group">
<g id="Group">
<g id="Vector">
<use xlink:href="#path0_fill" transform="translate(-19957 7401.59)" fill="#B8C0D1"/>
</g>
<g id="Vector">
<use xlink:href="#path1_fill" transform="translate(-20016 7367)" fill="#B8C0D1"/>
</g>
</g>
</g>
</g>
</mask>
<g id="Vector" mask="url(#mask0_alpha)">
<use xlink:href="#path2_fill" transform="translate(-20017.5 7367.5)" fill="#FF7800"/>
</g>
</g>
</g>
</g>
<defs>
<path id="path0_fill" d="M 1.45475 0.00116409C 0.695824 -0.0298711 0.0600827 0.563897 0.0316452 1.32132C 0.0243991 1.51737 0.0145546 1.71274 0.00266004 1.90757C -0.0440978 2.66417 0.531352 3.31536 1.28795 3.36226C 1.3168 3.36417 1.34551 3.36499 1.37381 3.36499C 2.09323 3.36499 2.69752 2.80486 2.74251 2.0771C 2.7559 1.86027 2.7667 1.64261 2.77491 1.42427C 2.80334 0.666845 2.21231 0.0296016 1.45475 0.00116409Z"/>
<path id="path1_fill" d="M 67.9029 23.0178C 68.1141 22.6111 68.1133 22.1152 67.8758 21.7018C 67.7064 21.4069 67.4398 21.1948 67.1348 21.0891C 65.4046 17.0946 62.9193 13.4218 59.7486 10.251C 53.1381 3.64055 44.3488 0 35 0C 25.6512 0 16.8619 3.64055 10.2513 10.2513C 3.64068 16.8621 0 25.6512 0 35C 0 39.9748 1.0351 44.7893 2.99605 49.2032C 2.31479 49.9599 1.94182 50.9284 1.94182 51.9545C 1.94182 53.0544 2.37016 54.0884 3.14781 54.8661C 3.95063 55.6689 5.005 56.07 6.05937 56.07C 6.36535 56.07 6.67105 56.0351 6.97102 55.9675C 7.96537 57.2923 9.05926 58.5565 10.2513 59.7486C 11.947 61.4443 13.7885 62.9409 15.7438 64.2343C 15.2662 65.6681 15.5962 67.314 16.7353 68.4534C 17.5381 69.2562 18.5925 69.6574 19.6469 69.6574C 20.7013 69.6574 21.7558 69.2561 22.5585 68.4534L 23.0856 67.9262C 26.8554 69.2881 30.8727 70 35 70C 44.3488 70 53.1381 66.3595 59.7487 59.7487C 66.3593 53.1379 70 44.3488 70 35C 70 30.848 69.2803 26.8071 67.9029 23.0178ZM 2.74504 35C 2.74504 17.2147 17.2145 2.74504 35 2.74504C 37.0848 2.74504 39.1225 2.94807 41.0978 3.32842L 36.2986 8.12752C 35.7617 8.17469 35.2637 8.23525 35 8.23525C 20.2419 8.23525 8.23525 20.2419 8.23525 35C 8.23525 37.7107 8.64213 40.3278 9.39504 42.7956L 5.10029 47.0903C 3.58367 43.3543 2.74504 39.2737 2.74504 35ZM 30.1634 18.4788L 30.201 19.0857C 30.3088 20.8235 29.6644 22.5262 28.4333 23.7573L 11.6312 40.5593C 11.2064 38.7743 10.9803 36.9132 10.9803 35C 10.9803 22.2965 20.8938 11.8665 33.3905 11.0355L 32.7299 11.6962C 30.9426 13.4835 30.0072 15.9558 30.1634 18.4788ZM 5.08881 52.9249C 4.82959 52.6657 4.68686 52.3212 4.68686 51.9545C 4.68686 51.5878 4.82959 51.2431 5.08881 50.9839L 30.3743 25.6986C 32.1616 23.9112 33.0971 21.4389 32.9407 18.916L 32.9031 18.3091C 32.7955 16.5713 33.4398 14.8686 34.6711 13.6374L 44.1935 4.11523C 44.2337 4.07518 44.2698 4.03252 44.304 3.98891L 44.5653 4.19303C 45.4237 4.46018 46.2667 4.76232 47.0928 5.09783L 37.3431 14.8477C 36.8071 15.3836 36.8071 16.2527 37.3431 16.7888C 37.6111 17.0568 37.9624 17.1907 38.3137 17.1907C 38.6649 17.1907 39.0163 17.0566 39.2842 16.7888L 49.5072 6.56578C 49.588 6.48498 49.6552 6.39584 49.7116 6.30219C 50.5698 6.74406 51.4052 7.22381 52.2169 7.73828L 51.4485 8.50678L 41.2253 18.7298C 40.6894 19.2657 40.6894 20.1348 41.2253 20.6709C 41.4933 20.9389 41.8447 21.0729 42.1959 21.0729C 42.5471 21.0729 42.8985 20.9387 43.1665 20.6709L 54.5061 9.33119C 58.7072 12.5314 62.1018 16.737 64.3288 21.5867L 60.4014 22.6205C 53.7079 24.3826 47.583 27.9009 42.6889 32.795L 37.0824 38.4017C 35.9853 39.4987 35.4215 41.0155 35.5354 42.5627C 35.5908 43.3133 35.3172 44.049 34.7851 44.5812L 23.3648 56.0014C 20.1161 54.1946 17.3284 51.6585 15.2247 48.6128L 34.2568 29.5807C 35.4879 28.3495 37.1909 27.7067 38.9287 27.8127L 39.5355 27.8502C 42.0584 28.0075 44.5307 27.071 46.3181 25.2837L 57.272 14.3298C 57.808 13.7938 57.808 12.9247 57.272 12.3886C 56.7361 11.8528 55.867 11.8528 55.3309 12.3886L 44.377 23.3425C 43.146 24.5738 41.4436 25.2172 39.705 25.1106L 39.0983 25.0731C 36.5761 24.9156 34.1031 25.8523 32.3157 27.6396L 7.02994 52.9249C 6.49496 53.4602 5.6242 53.4599 5.08881 52.9249ZM 9.33256 54.5046L 13.255 50.5822C 15.4105 53.5813 18.1696 56.1168 21.3538 58.012L 17.3709 61.9948C 14.284 59.9715 11.5639 57.4342 9.33256 54.5046ZM 20.6176 66.5123C 20.0823 67.0477 19.2116 67.0474 18.6765 66.5124C 18.1413 65.9775 18.1413 65.1066 18.6765 64.5714L 36.7259 46.5221C 37.823 45.4249 38.3869 43.9082 38.2729 42.3609C 38.2175 41.6105 38.4911 40.8745 39.0234 40.3424L 44.6298 34.7359C 49.1807 30.1849 54.876 26.9134 61.1 25.2751L 62.1249 25.0052L 20.6176 66.5123ZM 35 67.255C 31.6069 67.255 28.3352 66.7271 25.2613 65.7509L 29.7633 61.2489C 31.4573 61.5865 33.2082 61.7647 35.0001 61.7647C 40.1841 61.7647 45.2167 60.2738 49.554 57.4535C 53.7768 54.7075 57.1335 50.8506 59.2609 46.2999C 59.5819 45.6132 59.2856 44.7963 58.5989 44.4753C 57.9119 44.154 57.0951 44.4506 56.7742 45.1373C 52.8313 53.5705 44.2844 59.0196 35 59.0196C 34.0396 59.0196 33.0925 58.9616 32.1614 58.8507L 65.7504 25.2619C 66.7263 28.3359 67.255 31.607 67.255 34.9999C 67.255 52.7853 52.7855 67.255 35 67.255Z"/>
<path id="path2_fill" d="M 40.5 5L 45.5 0L 48 1L 46 3.5L 48 5C 49 4 51.21 2.35502 52.5 3C 53.5 3.5 51.3333 5.83333 50.5 6.5L 53.5 7.5C 54 6.33333 55.5 6.5 56 7C 56.6681 7.66813 55.6667 9.5 55 10L 59 12L 60.5 15L 56.5 21.5L 44 28.5L 35 30L 11 54L 4 59.5L 0 53.5L 13 40L 19 31L 30.5 15L 40.5 5Z"/>
</defs>
</svg>
