<svg width="76" height="53" viewBox="0 0 76 53" version="1.1" xmlns="http://www.w3.org/2000/svg" xmlns:xlink="http://www.w3.org/1999/xlink">
<title>Group</title>
<desc>Created using Figma</desc>
<g id="Canvas" transform="translate(20607 -7661)">
<g id="Group">
<g id="hand">
<g id="Vector">
<use xlink:href="#path0_fill" transform="translate(-20607 7661)" fill="#B8C0D1"/>
</g>
</g>
<g id="Vector">
<use xlink:href="#path1_fill" transform="translate(-20592 7671)" fill="#FD7822"/>
</g>
</g>
</g>
<defs>
<path id="path0_fill" d="M 74.375 5.03942e-09L 1.54763 5.03942e-09C 1.14056 -3.26795e-05 0.749874 0.158924 0.460197 0.442434C 0.170519 0.725945 0.00518086 1.11118 -3.03992e-10 1.51468L -3.03992e-10 51.4853C 0.00518086 51.8888 0.170519 52.2741 0.460197 52.5576C 0.749874 52.8411 1.14056 53 1.54763 53L 74.4524 53C 74.8594 53 75.2501 52.8411 75.5398 52.5576C 75.8295 52.2741 75.9948 51.8888 76 51.4853L 76 1.51468C 75.9663 1.1076 75.7815 0.727369 75.4813 0.447572C 75.1811 0.167776 74.7869 0.00829916 74.375 5.03942e-09ZM 71.0574 2.27203C 71.3588 2.27588 71.6523 2.36801 71.901 2.53683C 72.1497 2.70565 72.3425 2.94362 72.4551 3.22079C 72.5676 3.49796 72.595 3.80195 72.5338 4.09451C 72.4725 4.38707 72.3253 4.65513 72.1107 4.86496C 71.8961 5.07478 71.6237 5.217 71.3278 5.27373C 71.0319 5.33045 70.7256 5.29914 70.4476 5.18373C 70.1696 5.06832 69.9322 4.87397 69.7653 4.62514C 69.5984 4.37631 69.5095 4.08411 69.5098 3.78532C 69.498 3.5815 69.5303 3.37754 69.6044 3.18706C 69.6785 2.99659 69.7927 2.82397 69.9395 2.68074C 70.0862 2.53751 70.2621 2.42697 70.4554 2.35649C 70.6486 2.286 70.8548 2.25721 71.0602 2.27203L 71.0574 2.27203ZM 4.24755 2.49797L 66.1979 2.49797C 66.5423 2.49797 66.8726 2.6336 67.1161 2.87503C 67.3596 3.11645 67.4965 3.44389 67.4965 3.78532C 67.4965 4.12674 67.3596 4.45418 67.1161 4.6956C 66.8726 4.93703 66.5423 5.07266 66.1979 5.07266L 4.24755 5.07266C 3.90314 5.07266 3.57283 4.93703 3.3293 4.6956C 3.08576 4.45418 2.94894 4.12674 2.94894 3.78532C 2.94894 3.44389 3.08576 3.11645 3.3293 2.87503C 3.57283 2.6336 3.90314 2.49797 4.24755 2.49797ZM 72.8316 49.972L 3.08964 49.972L 3.08964 7.79797L 72.909 7.79797L 72.909 49.972L 72.8316 49.972Z"/>
<path id="path1_fill" d="M 34.0535 20.746C 34.3809 20.7517 34.7013 20.6512 34.9659 20.4599C 35.2305 20.2685 35.4249 19.9968 35.5195 19.686L 39.9162 4.84601C 39.9947 4.61772 40.0147 4.37366 39.9744 4.13579C 39.9341 3.89793 39.8348 3.67372 39.6854 3.48336C 39.5372 3.29847 39.3497 3.14833 39.1361 3.04369C 38.9226 2.93904 38.6883 2.88248 38.4501 2.87804L 10.5224 2.87804L 9.98356 1.13601C 9.90631 0.809478 9.71885 0.518903 9.45223 0.312429C 9.18561 0.105954 8.85583 -0.00403016 8.51754 0.00069741L 1.57429 0.00069741C 1.36983 -0.00545519 1.16621 0.029153 0.975494 0.10247C 0.784779 0.175786 0.610857 0.28632 0.464038 0.427514C 0.317219 0.568709 0.200493 0.737691 0.120782 0.924441C 0.0410713 1.11119 -2.49922e-15 1.31191 0 1.51468C -2.49922e-15 1.71746 0.0410713 1.91818 0.120782 2.10493C 0.200493 2.29168 0.317219 2.46066 0.464038 2.60186C 0.610857 2.74305 0.784779 2.85358 0.975494 2.9269C 1.16621 3.00022 1.36983 3.03482 1.57429 3.02867L 7.35962 3.02867L 12.1432 19.6107L 13.84 26.6513L 13.84 29.5287C 13.0673 29.8217 12.4027 30.3406 11.9343 31.0166C 11.4659 31.6926 11.2159 32.4939 11.2175 33.314C 11.2175 34.4093 11.6564 35.4597 12.4376 36.2342C 13.2189 37.0087 14.2785 37.4438 15.3834 37.4438C 16.4883 37.4438 17.5479 37.0087 18.3292 36.2342C 19.1104 35.4597 19.5493 34.4093 19.5493 33.314C 19.5509 32.4939 19.3009 31.6926 18.8325 31.0166C 18.3641 30.3406 17.6995 29.8217 16.9268 29.5287L 16.9268 28.014L 32.0472 28.014L 32.0472 29.5287C 31.2745 29.8217 30.6098 30.3406 30.1415 31.0166C 29.6731 31.6926 29.4231 32.4939 29.4246 33.314C 29.4246 34.4093 29.8635 35.4597 30.6448 36.2342C 31.4261 37.0087 32.4857 37.4438 33.5906 37.4438C 34.6955 37.4438 35.7551 37.0087 36.5363 36.2342C 37.3176 35.4597 37.7565 34.4093 37.7565 33.314C 37.758 32.4937 37.5077 31.6924 37.0391 31.0163C 36.5705 30.3403 35.9056 29.8214 35.1326 29.5287L 35.1326 26.5007C 35.1296 26.0965 34.965 25.71 34.6748 25.426C 34.3847 25.142 33.9927 24.9838 33.585 24.986L 16.6173 24.986L 15.6141 20.746L 34.0535 20.746ZM 33.5906 34.678C 33.3989 34.6791 33.209 34.6428 33.0315 34.571C 32.854 34.4992 32.6926 34.3935 32.5564 34.2598C 32.4203 34.1261 32.312 33.9671 32.2379 33.7919C 32.1638 33.6166 32.1253 33.4287 32.1246 33.2387C 32.1184 33.0469 32.1522 32.8559 32.2239 32.6776C 32.2956 32.4994 32.4036 32.3377 32.5412 32.2027C 32.6788 32.0678 32.843 31.9624 33.0236 31.8932C 33.2042 31.824 33.3972 31.7925 33.5906 31.8007C 33.7821 31.7996 33.972 31.8359 34.1493 31.9076C 34.3267 31.9793 34.4881 32.0849 34.6242 32.2185C 34.7604 32.352 34.8686 32.5109 34.9428 32.6859C 35.017 32.861 35.0557 33.0488 35.0566 33.2387C 35.063 33.4306 35.0293 33.6217 34.9577 33.8002C 34.8861 33.9786 34.7781 34.1404 34.6405 34.2755C 34.5029 34.4107 34.3386 34.5162 34.1579 34.5854C 33.9772 34.6547 33.7841 34.6862 33.5906 34.678ZM 26.8007 13.0234L 26.1845 17.718L 21.709 17.718L 21.0927 13.0234L 26.8007 13.0234ZM 20.6299 9.99399L 20.0896 5.90601L 27.8812 5.90601L 27.341 9.99399L 20.6299 9.99399ZM 18.5462 17.718L 14.7657 17.718L 13.3771 13.0234L 17.8526 13.0234L 18.5462 17.718ZM 32.897 17.718L 29.2713 17.718L 29.8889 13.0234L 34.2856 13.0234L 32.897 17.718ZM 35.2114 9.99399L 30.3518 9.99399L 30.8921 5.90601L 36.3693 5.90601L 35.2114 9.99399ZM 16.9212 5.8307L 17.4614 9.91867L 12.5231 9.91867L 11.3666 5.8307L 16.9212 5.8307ZM 15.3735 34.678C 15.1819 34.679 14.992 34.6425 14.8147 34.5706C 14.6373 34.4988 14.4759 34.393 14.3398 34.2594C 14.2037 34.1257 14.0954 33.9668 14.0213 33.7916C 13.9471 33.6165 13.9084 33.4286 13.9075 33.2387C 13.9099 33.0527 13.9502 32.8691 14.0259 32.6988C 14.1015 32.5286 14.2111 32.3753 14.348 32.2481C 14.4849 32.1208 14.6463 32.0223 14.8225 31.9584C 14.9987 31.8944 15.1861 31.8664 15.3735 31.876C 15.5651 31.8749 15.7549 31.9112 15.9323 31.9829C 16.1097 32.0546 16.271 32.1602 16.4072 32.2938C 16.5433 32.4273 16.6516 32.5862 16.7258 32.7612C 16.8 32.9363 16.8387 33.1241 16.8396 33.314C 16.8373 33.4992 16.7975 33.6822 16.7225 33.8519C 16.6475 34.0216 16.5388 34.1746 16.403 34.3018C 16.2672 34.4291 16.1069 34.528 15.9317 34.5926C 15.7566 34.6572 15.5701 34.6863 15.3834 34.678L 15.3735 34.678Z"/>
</defs>
</svg>
