<svg width="86" height="70" viewBox="0 0 86 70" version="1.1" xmlns="http://www.w3.org/2000/svg" xmlns:xlink="http://www.w3.org/1999/xlink">
<title>Group</title>
<desc>Created using Figma</desc>
<g id="Canvas" transform="translate(20016 -7650)">
<g id="Group">
<g id="bus">
<g id="Vector">
<use xlink:href="#path0_fill" transform="translate(-20016 7650)" fill="#B8C0D1"/>
</g>
</g>
<g id="Vector">
<use xlink:href="#path1_fill" transform="translate(-20008.8 7668.58)" fill="#FF871C"/>
</g>
</g>
</g>
<defs>
<path id="path0_fill" d="M 81.7 51.4397L 81.7 50.0113C 81.7063 49.8201 81.674 49.6296 81.6048 49.451C 81.5357 49.2725 81.4311 49.1097 81.2974 48.9721C 81.1637 48.8346 81.0036 48.7253 80.8266 48.6506C 80.6495 48.5759 80.4592 48.5375 80.2669 48.5375C 80.0746 48.5375 79.8843 48.5759 79.7073 48.6506C 79.5303 48.7253 79.3701 48.8346 79.2364 48.9721C 79.1027 49.1097 78.9982 49.2725 78.929 49.451C 78.8599 49.6296 78.8275 49.8201 78.8339 50.0113L 78.8339 51.4397L 67.3677 51.4397L 67.3677 24.2814C 67.3652 19.3631 65.4027 14.6465 61.9104 11.166C 58.4182 7.68549 53.6813 5.72512 48.7386 5.71483L 44.4339 5.71483L 44.4339 4.28184C 44.4289 3.14828 43.9744 2.06249 43.1692 1.26064C 42.3639 0.458791 41.2731 0.00573108 40.1339 0L 25.8 1.20918e-15C 24.6608 0.00696613 23.5705 0.46121 22.7661 1.26393C 21.9617 2.06666 21.5084 3.15294 21.5047 4.28651L 21.5047 5.71483L 18.6276 5.71483C 16.1787 5.71748 13.7544 6.20007 11.4929 7.13503C 9.23145 8.06999 7.17722 9.43902 5.44748 11.164C 3.71775 12.8889 2.3464 14.9359 1.41172 17.1882C 0.477039 19.4405 -0.00265978 21.854 1.1092e-05 24.2907L 1.1092e-05 47.1625C 0.00165991 50.5674 1.36032 53.8326 3.77801 56.2422C 6.1957 58.6517 9.47506 60.0088 12.8969 60.0158L 18.6323 60.0158C 18.6323 62.6638 19.6894 65.2033 21.5711 67.0757C 23.4529 68.9481 26.005 70 28.6662 70C 31.3273 70 33.8794 68.9481 35.7612 67.0757C 37.6429 65.2033 38.7 62.6638 38.7 60.0158L 81.7 60.0158C 82.8397 60.01 83.9311 59.5566 84.7364 58.754C 85.5417 57.9515 85.9959 56.8649 86 55.7308C 85.9975 54.5956 85.5441 53.5075 84.7386 52.7036C 83.9331 51.8997 82.8408 51.4454 81.7 51.4397ZM 24.3677 4.29584C 24.3689 3.91724 24.5202 3.5544 24.7887 3.28611C 25.0571 3.01782 25.4211 2.86572 25.8016 2.86286L 40.1292 2.86286C 40.5103 2.86491 40.8753 3.01659 41.1447 3.28492C 41.414 3.55326 41.5661 3.91656 41.5677 4.29584L 41.5677 5.71949L 24.3677 5.71949L 24.3677 4.29584ZM 12.9016 57.1607C 10.2394 57.1545 7.68831 56.098 5.8079 54.2228C 3.92749 52.3476 2.87125 49.8068 2.87085 47.1578L 2.87085 24.2907C 2.87084 20.1275 4.53106 16.1345 7.48703 13.1882C 10.443 10.2419 14.4531 8.58313 18.637 8.57613L 48.7386 8.57613C 52.9216 8.58437 56.9305 10.2436 59.8855 13.1898C 62.8404 16.136 64.5 20.1283 64.5 24.2907L 64.5 57.156L 61.6339 57.156L 61.6339 22.8624C 61.6339 21.7269 61.1811 20.6378 60.3749 19.8341C 59.5687 19.0305 58.475 18.578 57.3339 18.5759L 45.8677 18.5759C 44.7266 18.578 43.6329 19.0305 42.8267 19.8341C 42.0205 20.6378 41.5677 21.7269 41.5677 22.8624L 41.5677 57.156L 38.2841 57.156C 38.2606 57.0767 38.2278 57.0004 38.2028 56.9226C 38.1777 56.8448 38.148 56.7671 38.1215 56.6893C 37.9693 56.2492 37.7864 55.8203 37.5742 55.4056L 37.5492 55.3636C 37.3345 54.9587 37.0915 54.5693 36.8221 54.1983L 36.7158 54.0427C 36.4504 53.6893 36.1616 53.354 35.8511 53.0391C 35.7854 52.9707 35.7182 52.9053 35.6509 52.84C 35.3409 52.5373 35.0113 52.2551 34.6643 51.9951C 34.597 51.9453 34.5267 51.9018 34.4594 51.8551C 34.1214 51.6141 33.7684 51.3948 33.4024 51.1985C 33.3539 51.172 33.3086 51.1425 33.2601 51.1176C 32.8555 50.9127 32.4376 50.735 32.0092 50.5855L 31.7778 50.5046C 31.3385 50.3616 30.8897 50.2493 30.4346 50.1685C 30.4018 50.1685 30.3721 50.1498 30.3392 50.1451C 30.2751 50.1343 30.211 50.1327 30.1469 50.1234C 29.9322 50.0912 29.7164 50.0663 29.4996 50.0487C 29.3854 50.0393 29.2713 50.03 29.1571 50.0253C 28.9529 50.0152 28.7484 50.0152 28.5442 50.0253C 28.416 50.0253 28.2878 50.0253 28.1611 50.0347C 27.9746 50.0455 27.7885 50.0616 27.6029 50.0829C 27.4633 50.0957 27.3241 50.1123 27.1854 50.1327C 27.1291 50.1327 27.0744 50.1436 27.0181 50.1529C 26.9618 50.1623 26.882 50.1887 26.8132 50.2027C 26.4878 50.2638 26.1658 50.3417 25.8485 50.4361C 25.7422 50.4672 25.6343 50.4937 25.5358 50.5279C 25.1627 50.6517 24.7972 50.7972 24.4412 50.9635C 24.3255 51.0164 24.216 51.0787 24.1019 51.1378C 23.8392 51.2716 23.5838 51.4173 23.3357 51.575C 23.2263 51.6435 23.1152 51.7104 23.0074 51.7835C 22.6809 52.0065 22.3677 52.2481 22.0692 52.507C 22.0176 52.5521 21.9707 52.6019 21.9128 52.6486C 21.6497 52.8904 21.3992 53.1454 21.1623 53.4125C 21.1015 53.4808 21.0415 53.5498 20.9824 53.6195C 20.4343 54.2723 19.9733 54.9929 19.6111 55.7635L 19.522 55.9642C 19.3659 56.3151 19.2301 56.6745 19.1155 57.0409C 19.103 57.0813 19.0826 57.1187 19.0701 57.1607L 12.9125 57.1607L 12.9016 57.1607ZM 35.8339 60.0173C 35.8339 60.9538 35.6485 61.881 35.2884 62.7461C 34.9282 63.6113 34.4004 64.3974 33.7349 65.0595C 33.0695 65.7216 32.2795 66.2469 31.4101 66.6052C 30.5406 66.9636 29.6088 67.148 28.6677 67.148C 27.7266 67.148 26.7948 66.9636 25.9254 66.6052C 25.0559 66.2469 24.2659 65.7216 23.6005 65.0595C 22.935 64.3974 22.4072 63.6113 22.0471 62.7461C 21.6869 61.881 21.5016 60.9538 21.5016 60.0173C 21.5005 59.6181 21.5366 59.2197 21.6095 58.8271C 21.6797 58.4263 21.7843 58.0322 21.9222 57.6493C 21.9675 57.5201 22.0285 57.4003 22.0786 57.2758C 22.1766 57.0325 22.2877 56.7946 22.4116 56.5632C 22.4867 56.4294 22.568 56.305 22.654 56.1758C 22.785 55.9692 22.9264 55.7693 23.0777 55.5768C 23.17 55.4617 23.2685 55.3512 23.367 55.2407C 23.5367 55.0545 23.7157 54.8769 23.9033 54.7086C 24.0051 54.617 24.1093 54.5283 24.216 54.4425C 24.4254 54.2783 24.6436 54.1256 24.8696 53.9851C 24.976 53.9182 25.0807 53.8482 25.1902 53.7859C 25.4345 53.6542 25.6861 53.5362 25.9439 53.4328C 26.0549 53.3861 26.1612 53.3332 26.2754 53.2927C 26.5542 53.1973 26.8389 53.1194 27.1275 53.0593C 27.2323 53.036 27.3324 53.0002 27.4403 52.9815C 27.5482 52.9629 27.6576 52.966 27.7655 52.9535C 28.1104 52.9049 28.4585 52.8815 28.8069 52.8835C 28.9632 52.8835 29.1196 52.91 29.276 52.9224C 29.56 52.9441 29.8425 52.9825 30.1219 53.0376C 30.2783 53.0687 30.4237 53.1091 30.5738 53.1496C 30.8511 53.227 31.1236 53.3206 31.39 53.4296C 31.5151 53.481 31.6418 53.5308 31.7637 53.5852C 32.0803 53.7377 32.3851 53.9135 32.6753 54.1111C 32.7332 54.1485 32.7957 54.1796 32.8504 54.2185C 33.1897 54.4638 33.5068 54.7382 33.798 55.0385C 33.8824 55.1256 33.9544 55.222 34.0341 55.3138C 34.2298 55.5341 34.412 55.7658 34.5798 56.0078C 34.6705 56.1416 34.7534 56.2801 34.8363 56.4201C 34.9737 56.6571 35.0975 56.9018 35.2068 57.1529C 35.2694 57.2945 35.3351 57.4345 35.3882 57.5808C 35.5332 57.9703 35.6436 58.3717 35.7182 58.7804C 35.7182 58.8022 35.7307 58.8224 35.7338 58.8442C 35.8049 59.2301 35.84 59.6218 35.8386 60.0142L 35.8339 60.0173ZM 44.4339 57.1607L 44.4339 22.8624C 44.4339 22.4837 44.5848 22.1205 44.8536 21.8524C 45.1224 21.5844 45.4871 21.4334 45.8677 21.4325L 57.3339 21.4325C 57.7144 21.4334 58.0791 21.5844 58.3479 21.8524C 58.6167 22.1205 58.7677 22.4837 58.7677 22.8624L 58.7677 57.156L 44.4339 57.156L 44.4339 57.1607ZM 81.7 57.1607L 67.3677 57.1607L 67.3677 54.301L 81.6953 54.301C 82.0617 54.3212 82.4063 54.4801 82.6587 54.7451C 82.9111 55.0102 83.052 55.3612 83.0526 55.7263C 83.0532 56.0914 82.9134 56.4429 82.6619 56.7087C 82.4104 56.9746 82.0663 57.1346 81.7 57.156L 81.7 57.1607ZM 28.649 55.7308C 27.623 55.7394 26.6339 56.1124 25.8598 56.7825C 25.0857 57.4526 24.5777 58.3758 24.4271 59.3856C 24.3897 59.5946 24.3713 59.8066 24.3724 60.0189C 24.3749 61.1531 24.828 62.2403 25.633 63.0434C 26.438 63.8464 27.5294 64.3001 28.6693 64.3054C 29.8113 64.2992 30.9044 63.8434 31.7096 63.0375C 32.5148 62.2316 32.9666 61.1413 32.9662 60.0049C 32.9638 59.7589 32.9392 59.5136 32.8927 59.2721C 32.7173 58.2788 32.1957 57.3789 31.4195 56.7304C 30.6434 56.0819 29.6624 55.7263 28.649 55.7262L 28.649 55.7308ZM 28.6677 61.4472C 28.2877 61.4448 27.9239 61.2932 27.6555 61.0255C 27.387 60.7578 27.2355 60.3955 27.2339 60.0173L 27.2511 59.8415C 27.2984 59.5007 27.4659 59.1876 27.7236 58.9582C 27.9814 58.7288 28.3126 58.5979 28.6583 58.589C 28.9992 58.5934 29.3274 58.7176 29.585 58.9398C 29.8426 59.1619 30.0128 59.4676 30.0656 59.8026C 30.0803 59.8733 30.0886 59.9452 30.0906 60.0173C 30.0878 60.3928 29.9373 60.7523 29.6713 61.0187C 29.4053 61.2851 29.0451 61.4373 28.6677 61.4425L 28.6677 61.4472ZM 34.4 34.2936L 34.4 22.8624C 34.4 21.7269 33.9472 20.6378 33.141 19.8341C 32.3349 19.0305 31.2412 18.578 30.1 18.5759L 11.4677 18.5759C 10.3266 18.578 9.23287 19.0305 8.42668 19.8341C 7.6205 20.6378 7.16772 21.7269 7.16772 22.8624L 7.16772 34.2936C 7.16813 35.429 7.62105 36.5179 8.42714 37.3214C 9.23323 38.125 10.3267 38.5777 11.4677 38.5801L 30.1016 38.5801C 31.2423 38.5772 32.3354 38.1244 33.1411 37.3209C 33.9469 36.5174 34.3996 35.4287 34.4 34.2936ZM 10.0323 34.2936L 10.0323 22.8624C 10.0323 22.4837 10.1833 22.1205 10.4521 21.8524C 10.7209 21.5844 11.0856 21.4334 11.4662 21.4325L 30.1 21.4325C 30.4804 21.4334 30.845 21.5844 31.1135 21.8525C 31.3821 22.1206 31.5327 22.4839 31.5323 22.8624L 31.5323 34.2936C 31.5323 34.6719 31.3815 35.0347 31.113 35.3025C 30.8445 35.5703 30.4802 35.7211 30.1 35.7219L 11.4677 35.7219C 11.0874 35.7211 10.723 35.5703 10.4542 35.3026C 10.1854 35.0349 10.0343 34.672 10.0339 34.2936L 10.0323 34.2936ZM 16.7794 24.7093C 16.6465 24.5755 16.4882 24.4693 16.3137 24.3968C 16.1393 24.3243 15.9521 24.2869 15.763 24.2869C 15.574 24.2869 15.3868 24.3243 15.2123 24.3968C 15.0379 24.4693 14.8796 24.5755 14.7467 24.7093L 13.3128 26.1376C 13.1703 26.2683 13.0558 26.4264 12.9762 26.6022C 12.8966 26.7781 12.8535 26.9681 12.8496 27.161C 12.8456 27.3538 12.8809 27.5455 12.9532 27.7244C 13.0256 27.9033 13.1335 28.0659 13.2706 28.2023C 13.4077 28.3386 13.571 28.4461 13.7508 28.5181C 13.9307 28.5901 14.1233 28.6251 14.3171 28.6212C 14.5109 28.6173 14.7019 28.5744 14.8786 28.4952C 15.0553 28.416 15.2142 28.3021 15.3455 28.1603L 16.7794 26.7319C 17.0489 26.4638 17.2004 26.1002 17.2007 25.7209C 17.201 25.3417 17.05 24.9778 16.781 24.7093L 16.7794 24.7093ZM 21.9191 24.7093L 16.1868 30.4256C 16.0442 30.5564 15.9297 30.7144 15.8501 30.8903C 15.7705 31.0661 15.7275 31.2562 15.7235 31.449C 15.7196 31.6419 15.7548 31.8335 15.8272 32.0125C 15.8995 32.1914 16.0075 32.3539 16.1446 32.4903C 16.2816 32.6267 16.445 32.7341 16.6248 32.8061C 16.8046 32.8781 16.9972 32.9132 17.191 32.9093C 17.3848 32.9054 17.5758 32.8625 17.7526 32.7833C 17.9293 32.7041 18.0881 32.5901 18.2195 32.4483L 23.9518 26.7335C 24.0944 26.6029 24.209 26.4449 24.2888 26.2691C 24.3685 26.0933 24.4117 25.9033 24.4158 25.7105C 24.4199 25.5176 24.3848 25.326 24.3126 25.147C 24.2404 24.968 24.1325 24.8054 23.9956 24.6689C 23.8586 24.5324 23.6954 24.4248 23.5156 24.3527C 23.3358 24.2806 23.1433 24.2453 22.9495 24.2491C 22.7557 24.2529 22.5646 24.2956 22.3878 24.3747C 22.211 24.4537 22.0521 24.5675 21.9206 24.7093L 21.9191 24.7093ZM 54.4661 37.1565C 54.2776 37.1565 54.0909 37.1935 53.9167 37.2654C 53.7425 37.3373 53.5843 37.4426 53.4512 37.5755C 53.318 37.7083 53.2124 37.8659 53.1405 38.0394C 53.0687 38.2129 53.0319 38.3987 53.0323 38.5863L 53.0323 41.4445C 53.0259 41.6358 53.0583 41.8263 53.1275 42.0048C 53.1966 42.1834 53.3012 42.3462 53.4349 42.4837C 53.5686 42.6212 53.7287 42.7306 53.9057 42.8053C 54.0828 42.8799 54.2731 42.9184 54.4654 42.9184C 54.6576 42.9184 54.848 42.8799 55.025 42.8053C 55.202 42.7306 55.3622 42.6212 55.4959 42.4837C 55.6296 42.3462 55.7341 42.1834 55.8033 42.0048C 55.8724 41.8263 55.9048 41.6358 55.8984 41.4445L 55.8984 38.5863C 55.8997 38.3985 55.8636 38.2122 55.7923 38.0382C 55.721 37.8642 55.6158 37.706 55.4829 37.5725C 55.35 37.4391 55.1919 37.3331 55.0176 37.2606C 54.8434 37.1882 54.6565 37.1507 54.4677 37.1503L 54.4661 37.1565ZM 51.6 24.2907C 50.7477 24.2892 49.914 24.5393 49.2046 25.0093C 48.4951 25.4794 47.9418 26.1483 47.6145 26.9315C 47.2873 27.7146 47.2009 28.5767 47.3662 29.4087C 47.5315 30.2407 47.9412 31.0052 48.5433 31.6055C 49.1455 32.2058 49.913 32.6148 50.7489 32.7808C 51.5847 32.9468 52.4513 32.8624 53.2389 32.5382C 54.0265 32.214 54.6998 31.6646 55.1735 30.9595C 55.6472 30.2544 55.9 29.4254 55.9 28.5772C 55.8996 27.4419 55.4467 26.353 54.6406 25.5494C 53.8345 24.7459 52.741 24.2932 51.6 24.2907ZM 51.6 30.0071C 51.3157 30.0077 51.0375 29.9244 50.8008 29.7676C 50.5641 29.6109 50.3794 29.3878 50.2702 29.1266C 50.1609 28.8654 50.132 28.5778 50.1871 28.3002C 50.2422 28.0226 50.3788 27.7676 50.5797 27.5673C 50.7805 27.367 51.0366 27.2305 51.3154 27.1751C 51.5942 27.1196 51.8833 27.1478 52.1461 27.2559C 52.4088 27.364 52.6334 27.5473 52.7915 27.7825C 52.9495 28.0177 53.0339 28.2943 53.0339 28.5772C 53.0339 28.9559 52.8829 29.3191 52.6141 29.5872C 52.3453 29.8553 51.9806 30.0063 51.6 30.0071Z"/>
<path id="path1_fill" d="M 27.2323 15.7177L 27.2323 4.28651C 27.2323 3.151 26.7795 2.06189 25.9733 1.25823C 25.1671 0.454582 24.0734 0.00206081 22.9323 0L 4.3 0C 3.15885 0.00206081 2.06515 0.454582 1.25896 1.25823C 0.452782 2.06189 -1.87936e-06 3.151 5.85044e-12 4.28651L 5.85044e-12 15.7177C 0.000411311 16.8531 0.453329 17.942 1.25942 18.7455C 2.06551 19.5491 3.15898 20.0017 4.3 20.0042L 22.9339 20.0042C 24.0746 20.0013 25.1677 19.5485 25.9734 18.745C 26.7792 17.9415 27.2319 16.8528 27.2323 15.7177ZM 2.86458 15.7177L 2.86458 4.28651C 2.86458 3.90782 3.01555 3.5446 3.28436 3.27653C 3.55317 3.00847 3.91787 2.85746 4.29844 2.85663L 22.9323 2.85663C 23.3127 2.85746 23.6773 3.00852 23.9458 3.27663C 24.2144 3.54474 24.365 3.90796 24.3646 4.28651L 24.3646 15.7177C 24.3646 16.096 24.2138 16.4588 23.9453 16.7266C 23.6767 16.9944 23.3124 17.1452 22.9323 17.146L 4.3 17.146C 3.9197 17.1452 3.55524 16.9944 3.28647 16.7267C 3.01771 16.459 2.86656 16.0961 2.86614 15.7177L 2.86458 15.7177ZM 9.61167 6.13336C 9.47875 5.99957 9.32048 5.89336 9.14602 5.82086C 8.97155 5.74837 8.78437 5.71104 8.59531 5.71104C 8.40624 5.71104 8.21906 5.74837 8.0446 5.82086C 7.87013 5.89336 7.71186 5.99957 7.57894 6.13336L 6.14509 7.56168C 6.00256 7.69241 5.88806 7.85045 5.80845 8.02631C 5.72884 8.20217 5.68578 8.39223 5.68183 8.58507C 5.67789 8.77791 5.71316 8.96955 5.78551 9.14848C 5.85786 9.32742 5.96581 9.48997 6.10288 9.62636C 6.23994 9.76274 6.40329 9.87016 6.58312 9.94215C 6.76295 10.0141 6.95554 10.0492 7.14934 10.0453C 7.34314 10.0414 7.53414 9.99854 7.71088 9.91932C 7.88761 9.84011 8.04644 9.72617 8.17782 9.58435L 9.61167 8.15603C 9.88114 7.88786 10.0327 7.52425 10.033 7.14502C 10.0332 6.76579 9.88229 6.40194 9.61323 6.13336L 9.61167 6.13336ZM 14.7513 6.13336L 9.01905 11.8497C 8.87653 11.9805 8.76202 12.1385 8.68242 12.3144C 8.60281 12.4902 8.55974 12.6803 8.5558 12.8731C 8.55186 13.066 8.58712 13.2576 8.65947 13.4366C 8.73183 13.6155 8.83978 13.778 8.97684 13.9144C 9.1139 14.0508 9.27726 14.1582 9.45708 14.2302C 9.63691 14.3022 9.82951 14.3373 10.0233 14.3334C 10.2171 14.3295 10.4081 14.2866 10.5848 14.2074C 10.7616 14.1282 10.9204 14.0142 11.0518 13.8724L 16.7841 8.15759C 16.9267 8.02697 17.0413 7.86902 17.1211 7.69322C 17.2008 7.51742 17.244 7.32739 17.2481 7.13456C 17.2522 6.94172 17.2171 6.75006 17.1449 6.57106C 17.0727 6.39207 16.9648 6.22944 16.8279 6.09295C 16.6909 5.95646 16.5276 5.84892 16.3479 5.77679C 16.1681 5.70466 15.9755 5.66942 15.7817 5.67319C 15.5879 5.67697 15.3969 5.71968 15.2201 5.79875C 15.0433 5.87783 14.8844 5.99164 14.7529 6.13336L 14.7513 6.13336Z"/>
</defs>
</svg>
