<svg width="57" height="70" viewBox="0 0 57 70" version="1.1" xmlns="http://www.w3.org/2000/svg" xmlns:xlink="http://www.w3.org/1999/xlink">
<title>005-stethoscope</title>
<desc>Created using Figma</desc>
<g id="Canvas" transform="translate(19716 -7365)">
<g id="005-stethoscope">
<g id="Group">
<g id="Vector">
<use xlink:href="#path0_fill" transform="translate(-19716 7365)" fill="#B8C0D1"/>
</g>
<g id="Vector">
<use xlink:href="#path1_fill" transform="translate(-19673 7405.83)" fill="#FF871C"/>
</g>
</g>
</g>
</g>
<defs>
<path id="path0_fill" d="M 47.6939 36.1667C 42.9571 36.1667 39.0438 39.7367 38.468 44.3333L 25.5918 44.3333L 25.5918 37.1875C 26.8016 36.8853 27.8474 36.1165 28.507 35.0023L 43.5364 9.5095C 44.4158 8.022 44.4309 6.23583 43.5771 4.73317C 42.7232 3.2305 41.1842 2.33333 39.4591 2.33333L 36.8162 2.33333C 36.1601 0.959 34.7712 0 33.1531 0C 31.2965 0 26.7551 1.4315 26.7551 4.08333C 26.7551 6.73517 31.2965 8.16667 33.1531 8.16667C 35.1981 8.16667 36.8802 6.64067 37.1652 4.66667L 39.458 4.66667C 40.3362 4.66667 41.1203 5.124 41.5542 5.88933C 41.9892 6.6535 41.9811 7.5635 41.5332 8.32183L 26.5038 33.8147C 26.0653 34.5567 25.2894 35 24.4286 35C 23.5678 35 22.7919 34.5567 22.3452 33.803L 6.89584 8.32067C 6.44798 7.5635 6.43984 6.6535 6.8749 5.88933C 7.30996 5.124 8.094 4.66667 8.9711 4.66667L 11.6908 4.66667C 11.977 6.64067 13.6591 8.16667 15.7041 8.16667C 17.5607 8.16667 22.102 6.73517 22.102 4.08333C 22.102 1.4315 17.5607 0 15.7041 0C 14.086 0 12.697 0.959 12.041 2.33333L 8.9711 2.33333C 7.24598 2.33333 5.70698 3.23167 4.85314 4.73433C 3.99931 6.237 4.01443 8.022 4.90084 9.52117L 20.3513 35.0035C 21.0097 36.1177 22.0555 36.8853 23.2653 37.1875L 23.2653 44.3333L 12.7959 44.3333C 5.74071 44.3333 4.13275e-15 50.0908 4.13275e-15 57.1667C 4.13275e-15 64.2425 5.74071 70 12.7959 70C 19.8511 70 25.5918 64.2425 25.5918 57.1667L 25.5918 46.6667L 38.468 46.6667C 39.0438 51.2633 42.9571 54.8333 47.6939 54.8333C 52.825 54.8333 57 50.6462 57 45.5C 57 40.3538 52.825 36.1667 47.6939 36.1667ZM 33.1531 5.83333C 31.7176 5.83333 29.2468 4.6795 29.084 4.08333C 29.2468 3.48717 31.7176 2.33333 33.1531 2.33333C 34.1151 2.33333 34.898 3.1185 34.898 4.08333C 34.898 5.04817 34.1151 5.83333 33.1531 5.83333ZM 15.7041 2.33333C 17.1396 2.33333 19.6103 3.48717 19.7732 4.08333C 19.6103 4.6795 17.1396 5.83333 15.7041 5.83333C 14.7421 5.83333 13.9592 5.04817 13.9592 4.08333C 13.9592 3.1185 14.7421 2.33333 15.7041 2.33333ZM 23.2653 57.1667C 23.2653 62.9568 18.568 67.6667 12.7959 67.6667C 7.0238 67.6667 2.32653 62.9568 2.32653 57.1667C 2.32653 51.3765 7.0238 46.6667 12.7959 46.6667L 23.2653 46.6667L 23.2653 57.1667ZM 47.6939 52.5C 43.8446 52.5 40.7143 49.3605 40.7143 45.5C 40.7143 41.6395 43.8446 38.5 47.6939 38.5C 51.5431 38.5 54.6735 41.6395 54.6735 45.5C 54.6735 49.3605 51.5431 52.5 47.6939 52.5Z"/>
<path id="path1_fill" d="M 4.65306 0C 2.0869 0 0 2.093 0 4.66667C 0 7.24033 2.0869 9.33333 4.65306 9.33333C 7.21922 9.33333 9.30612 7.24033 9.30612 4.66667C 9.30612 2.093 7.21922 0 4.65306 0ZM 4.65306 7C 3.36998 7 2.32653 5.9535 2.32653 4.66667C 2.32653 3.37983 3.36998 2.33333 4.65306 2.33333C 5.93614 2.33333 6.97959 3.37983 6.97959 4.66667C 6.97959 5.9535 5.93614 7 4.65306 7Z"/>
</defs>
</svg>
