<svg width="67" height="70" viewBox="0 0 67 70" version="1.1" xmlns="http://www.w3.org/2000/svg" xmlns:xlink="http://www.w3.org/1999/xlink">
<title>003-cosmetics</title>
<desc>Created using Figma</desc>
<g id="Canvas" transform="translate(19721 -7093)">
<g id="003-cosmetics">
<g id="Group">
<g id="Vector">
<use xlink:href="#path0_fill" transform="translate(-19721 7098.53)" fill="#FF871C"/>
</g>
<g id="Mask Group">
<mask id="mask0_alpha" mask-type="alpha">
<g id="Vector">
<use xlink:href="#path0_fill" transform="translate(-19721 7098.53)" fill="#FF871C"/>
</g>
</mask>
<g id="Rectangle" mask="url(#mask0_alpha)">
<use xlink:href="#path1_fill" transform="translate(-19724 7128)" fill="#B8C0D1"/>
</g>
</g>
<g id="Vector">
<use xlink:href="#path2_fill" transform="translate(-19700.1 7147.14)" fill="#B8C0D1"/>
</g>
<g id="Vector">
<use xlink:href="#path3_fill" transform="translate(-19704.1 7093)" fill="#B8C0D1"/>
</g>
<g id="Vector">
<use xlink:href="#path4_fill" transform="translate(-19703.2 7098.55)" fill="#B8C0D1"/>
</g>
<g id="Vector">
<use xlink:href="#path5_fill" transform="translate(-19693.6 7111.62)" fill="#B8C0D1"/>
</g>
<g id="Vector">
<use xlink:href="#path6_fill" transform="translate(-19686.2 7117.85)" fill="#B8C0D1"/>
</g>
</g>
</g>
</g>
<defs>
<path id="path0_fill" d="M 18.7923 26.7729L 18.0242 26.7729L 18.0242 20.5549C 18.0242 19.8179 17.426 19.2205 16.6877 19.2205L 16.573 19.2205L 16.573 6.49909C 16.573 5.99379 16.2871 5.53173 15.8341 5.30559L 5.49141 0.140898C 5.07727 -0.0658466 4.58526 -0.0439622 4.19109 0.199256C 3.79691 0.442296 3.55705 0.871798 3.55705 1.33439L 3.55705 19.2205L 3.44229 19.2205C 2.70401 19.2205 2.10579 19.8179 2.10579 20.5549L 2.10579 26.7729L 1.3365 26.7729C 0.598218 26.7729 -4.07868e-09 27.3703 -4.07868e-09 28.1073L -4.07868e-09 63.1344C -4.07868e-09 63.8714 0.598218 64.4688 1.3365 64.4688L 18.7919 64.4688C 19.5302 64.4688 20.1284 63.8714 20.1284 63.1344L 20.1284 28.1073C 20.1288 27.3703 19.5305 26.7729 18.7923 26.7729ZM 6.23041 3.49382L 13.9001 7.32375L 13.9001 19.2205L 6.23041 19.2205L 6.23041 3.49382ZM 4.77932 21.8893L 15.3514 21.8893L 15.3514 26.7729L 4.77932 26.7729L 4.77932 21.8893ZM 17.4558 61.8L 2.67336 61.8L 2.67336 29.4417L 17.4558 29.4417L 17.4558 61.8Z"/>
<path id="path1_fill" d="M 0 0L 25 0L 25 36L 0 36L 0 0Z"/>
<path id="path2_fill" d="M 44.7467 1.73751e-07L 1.3365 1.73751e-07C 0.598217 1.73751e-07 -3.698e-07 0.597459 -3.698e-07 1.33441C -3.698e-07 2.07136 0.598217 2.66882 1.3365 2.66882L 42.6203 2.66882L 42.3147 3.30311C 40.6358 6.78609 37.0496 9.03679 33.1782 9.03679L 1.3365 9.03679C 0.598217 9.03679 -3.698e-07 9.63425 -3.698e-07 10.3712C -3.698e-07 11.1082 0.598217 11.7056 1.3365 11.7056L 33.1782 11.7056C 38.0703 11.7056 42.6021 8.86172 44.7232 4.46031L 45.951 1.91301C 46.1504 1.49952 46.123 1.01273 45.8783 0.624326C 45.6336 0.235924 45.2063 1.73751e-07 44.7467 1.73751e-07Z"/>
<path id="path3_fill" d="M 2.24451 9.81217C 7.22787 5.2058 13.7151 2.66882 20.5114 2.66882C 35.3402 2.66882 47.4043 14.7141 47.4043 29.5196C 47.4043 37.5017 43.8815 45.0176 37.7395 50.1401C 37.1728 50.6127 37.0972 51.4541 37.5705 52.0197C 37.8348 52.3357 38.2144 52.4987 38.597 52.4987C 38.899 52.4987 39.203 52.3969 39.453 52.1884C 46.2052 46.5573 50.0775 38.2949 50.0775 29.5194C 50.0773 13.2425 36.8141 0 20.5114 0C 13.0397 0 5.90759 2.78927 0.428477 7.85397C -0.113073 8.35464 -0.145685 9.19888 0.35577 9.73976C 0.857047 10.2803 1.70261 10.3128 2.24451 9.81217Z"/>
<path id="path4_fill" d="M 19.6078 2.66882C 31.3718 2.66882 40.9426 12.2246 40.9426 23.9703C 40.9426 35.7159 31.3718 45.2717 19.6078 45.2717C 14.319 45.2717 9.24597 43.3256 5.32272 39.7923C 4.77493 39.2987 3.92973 39.3419 3.43504 39.8892C 2.94072 40.4363 2.9842 41.2802 3.53234 41.7738C 7.94742 45.7505 13.6564 47.9405 19.6078 47.9405C 32.8457 47.9405 43.6156 37.1875 43.6156 23.9703C 43.6156 10.753 32.8457 4.34378e-08 19.6078 4.34378e-08C 12.0049 4.34378e-08 4.77208 3.6545 0.260232 9.77588C -0.177427 10.3694 -0.0500153 11.2048 0.54446 11.6416C 1.13894 12.0782 1.97523 11.9513 2.41306 11.3578C 6.42328 5.91712 12.8513 2.66882 19.6078 2.66882Z"/>
<path id="path5_fill" d="M 24.7813 0.390848L 0.391461 24.7426C -0.130487 25.2637 -0.130487 26.1086 0.391461 26.6296C 0.652524 26.8901 0.994668 27.0205 1.33663 27.0205C 1.6786 27.0205 2.02074 26.8903 2.28181 26.6296L 26.6715 2.27788C 27.1935 1.75675 27.1935 0.911802 26.6715 0.390848C 26.1494 -0.130283 25.3033 -0.130283 24.7813 0.390848Z"/>
<path id="path6_fill" d="M 0.39146 18.674C -0.130488 19.1952 -0.130488 20.0401 0.39146 20.5611C 0.652523 20.8215 0.994667 20.952 1.33663 20.952C 1.6786 20.952 2.02074 20.8217 2.28181 20.5611L 20.5936 2.27788C 21.1156 1.75675 21.1156 0.911801 20.5936 0.390848C 20.0715 -0.130283 19.2254 -0.130283 18.7035 0.390848L 0.39146 18.674Z"/>
</defs>
</svg>
