<svg width="15" height="31" viewBox="0 0 15 31" version="1.1" xmlns="http://www.w3.org/2000/svg" xmlns:xlink="http://www.w3.org/1999/xlink">
<title>Group</title>
<desc>Created using Figma</desc>
<g id="Canvas" transform="translate(14565 -9203)">
<g id="Group">
<g id="Group">
<g id="Vector">
<use xlink:href="#path0_fill" transform="translate(-14565 9211.38)" fill="#B8C0D1"/>
</g>
</g>
<g id="Group">
<g id="Vector">
<use xlink:href="#path1_fill" transform="translate(-14562.7 9220.99)" fill="#B8C0D1"/>
</g>
</g>
<g id="Group">
<g id="Vector">
<use xlink:href="#path2_fill" transform="translate(-14560.7 9203)" fill="#B8C0D1"/>
</g>
</g>
<g id="Group">
<g id="Vector">
<use xlink:href="#path3_fill" transform="translate(-14559.4 9207.92)" fill="#B8C0D1"/>
</g>
</g>
<g id="Group">
<g id="Vector">
<use xlink:href="#path4_fill" transform="translate(-14559.4 9209.63)" fill="#B8C0D1"/>
</g>
</g>
<g id="Group">
<g id="Vector">
<use xlink:href="#path5_fill" transform="translate(-14560.7 9220.99)" fill="#B8C0D1"/>
</g>
</g>
<g id="Group">
<g id="Vector">
<use xlink:href="#path6_fill" transform="translate(-14555.3 9220.99)" fill="#B8C0D1"/>
</g>
</g>
<g id="Group">
<g id="Vector">
<use xlink:href="#path7_fill" transform="translate(-14562.7 9226.03)" fill="#B8C0D1"/>
</g>
</g>
<g id="Group">
<g id="Vector">
<use xlink:href="#path8_fill" transform="translate(-14555.3 9226.03)" fill="#B8C0D1"/>
</g>
</g>
<g id="Group">
<g id="Vector">
<use xlink:href="#path9_fill" transform="translate(-14562.8 9214.38)" fill="#B8C0D1"/>
</g>
</g>
<g id="Group">
<g id="Vector">
<use xlink:href="#path10_fill" transform="translate(-14559.9 9214.38)" fill="#B8C0D1"/>
</g>
</g>
</g>
</g>
<defs>
<path id="path0_fill" d="M 13.4213 22.6233L 1.47946 22.6233C 1.07425 22.6233 0.74055 22.3131 0.692878 21.9313C 0.216157 18.1607 -0.0222086 14.2947 0.00162743 10.5003C 0.0254635 7.23087 0.239991 3.9376 0.645203 0.692062C 0.692875 0.28637 1.02658 -1.35653e-14 1.43179 -1.35653e-14L 4.41129 -1.35653e-14C 4.79267 -1.35653e-14 5.12637 0.28637 5.19788 0.644334L 9.75057 0.644334C 9.82208 0.262506 10.1558 -1.35653e-14 10.5372 -1.35653e-14L 13.4452 -1.35653e-14C 13.8504 -1.35653e-14 14.1841 0.28637 14.2317 0.692062C 14.6846 3.88987 14.9468 7.13541 14.9945 10.3571C 15.0422 14.2231 14.78 18.1368 14.2317 21.979C 14.1602 22.3369 13.8265 22.6233 13.4213 22.6233ZM 1.62247 21.6687L 13.3021 21.6687C 13.8265 17.9221 14.0887 14.1038 14.0411 10.3332C 13.9934 7.207 13.755 4.03306 13.3021 0.930705L 10.6802 0.930705C 10.6563 1.09775 10.5848 1.24094 10.4656 1.36027C 10.3226 1.50345 10.1081 1.59891 9.89358 1.59891L 5.0787 1.59891C 4.69732 1.59891 4.36362 1.31253 4.29211 0.95457L 1.59864 0.95457C 1.21727 4.10465 1.00273 7.32633 0.978899 10.5241C 0.931227 14.2231 1.14575 17.9698 1.62247 21.6687Z"/>
<path id="path1_fill" d="M 9.27221 11.0492L 1.12029 11.0492C 0.500554 11.0492 -5.81934e-06 10.548 -5.81934e-06 9.92753L -5.81934e-06 1.12162C -5.81934e-06 0.501149 0.500554 -2.91312e-06 1.12029 -2.91312e-06L 9.27221 -2.91312e-06C 9.89195 -2.91312e-06 10.3925 0.501149 10.3925 1.12162L 10.3925 9.92753C 10.3925 10.5241 9.89195 11.0492 9.27221 11.0492ZM 1.09646 0.954567C 1.00112 0.954567 0.929605 1.02616 0.929605 1.12162L 0.929605 9.92753C 0.929605 10.023 1.00112 10.0946 1.09646 10.0946L 9.24838 10.0946C 9.34373 10.0946 9.41523 10.023 9.41523 9.92753L 9.41523 1.12162C 9.41523 1.02616 9.34373 0.954567 9.24838 0.954567L 1.09646 0.954567Z"/>
<path id="path2_fill" d="M 6.41189 8.9491L 5.45845 8.9491L 5.45845 2.79212L 4.88639 3.50805L 4.09979 2.17165L 3.2417 3.6035L 2.26443 2.12392L 1.454 3.50805L 0.953447 2.83985L 0.953447 8.9491L 5.81934e-06 8.9491L 5.81934e-06 -1.45656e-06L 1.33482 1.78982L 2.21675 0.310235L 3.19403 1.78982L 4.07596 0.262507L 5.00557 1.83755L 6.41189 0.071592L 6.41189 8.9491Z"/>
<path id="path3_fill" d="M 3.14636 0.95457L 0.476723 0.95457C 0.214527 0.95457 2.90967e-06 0.739792 2.90967e-06 0.477285C 2.90967e-06 0.214778 0.214527 0 0.476723 0L 3.14636 0C 3.40856 0 3.62308 0.214778 3.62308 0.477285C 3.62308 0.739792 3.40856 0.95457 3.14636 0.95457Z"/>
<path id="path4_fill" d="M 3.14636 0.95457L 0.476723 0.95457C 0.214527 0.95457 2.90967e-06 0.739791 2.90967e-06 0.477284C 2.90967e-06 0.214778 0.214527 -7.28279e-07 0.476723 -7.28279e-07L 3.14636 -7.28279e-07C 3.40856 -7.28279e-07 3.62308 0.214778 3.62308 0.477284C 3.62308 0.739791 3.40856 0.95457 3.14636 0.95457Z"/>
<path id="path5_fill" d="M 0.476726 11.0492C 0.21453 11.0492 5.81934e-06 10.8344 5.81934e-06 10.5719L 5.81934e-06 0.477282C 5.81934e-06 0.214775 0.21453 -2.91312e-06 0.476726 -2.91312e-06C 0.738923 -2.91312e-06 0.953447 0.214775 0.953447 0.477282L 0.953447 10.5719C 0.953447 10.8344 0.738923 11.0492 0.476726 11.0492Z"/>
<path id="path6_fill" d="M 0.476718 11.0492C 0.214521 11.0492 -2.90967e-06 10.8344 -2.90967e-06 10.5719L -2.90967e-06 0.477282C -2.90967e-06 0.214775 0.214521 -2.91312e-06 0.476718 -2.91312e-06C 0.738914 -2.91312e-06 0.953438 0.214775 0.953438 0.477282L 0.953438 10.5719C 0.953438 10.8344 0.738914 11.0492 0.476718 11.0492Z"/>
<path id="path7_fill" d="M 2.45512 0.954569L 0.476715 0.954569C 0.214518 0.954569 -5.81934e-06 0.739791 -5.81934e-06 0.477284C -5.81934e-06 0.214777 0.214518 -1.45656e-06 0.476715 -1.45656e-06L 2.45512 -1.45656e-06C 2.71731 -1.45656e-06 2.93184 0.214777 2.93184 0.477284C 2.93184 0.739791 2.71731 0.954569 2.45512 0.954569Z"/>
<path id="path8_fill" d="M 2.47895 0.954569L 0.476718 0.954569C 0.214521 0.954569 -2.90967e-06 0.739791 -2.90967e-06 0.477284C -2.90967e-06 0.214777 0.214521 -1.45656e-06 0.476718 -1.45656e-06L 2.47895 -1.45656e-06C 2.74115 -1.45656e-06 2.95567 0.214777 2.95567 0.477284C 2.95567 0.739791 2.74115 0.954569 2.47895 0.954569Z"/>
<path id="path9_fill" d="M 1.22046 2.43897C 1.12511 2.43897 1.0536 2.43898 0.958253 2.41511C 0.290844 2.27193 -0.114359 1.62759 0.0286568 0.959393C 0.171673 0.291193 0.81524 -0.114498 1.48265 0.0286878C 2.15006 0.171873 2.55528 0.816203 2.41226 1.4844C 2.29308 2.03328 1.79252 2.43897 1.22046 2.43897ZM 1.22046 0.935527C 1.10128 0.935527 0.982089 1.03098 0.958253 1.1503C 0.934417 1.29349 1.02977 1.43667 1.17278 1.4844C 1.3158 1.50827 1.45881 1.41281 1.50648 1.26963C 1.53031 1.12644 1.43498 0.983255 1.29196 0.935527C 1.26813 0.935527 1.24429 0.935527 1.22046 0.935527Z"/>
<path id="path10_fill" d="M 1.21941 2.43793C 1.12407 2.43793 1.05257 2.43794 0.957222 2.41407C 0.647354 2.34248 0.361319 2.15156 0.194466 1.88906C 0.0276142 1.60268 -0.0438968 1.29245 0.0276113 0.958351C 0.0991194 0.648116 0.28981 0.361742 0.552007 0.194692C 0.838039 0.0276425 1.1479 -0.0439459 1.4816 0.0276469C 1.79147 0.0992396 2.07751 0.290149 2.24436 0.552656C 2.41121 0.839027 2.48272 1.14926 2.41121 1.48336C 2.33971 1.7936 2.14901 2.07997 1.88682 2.24702C 1.67229 2.36634 1.43394 2.43793 1.21941 2.43793ZM 1.19558 0.934486C 1.14791 0.934486 1.10023 0.958353 1.05256 0.982217C 0.981049 1.02995 0.957213 1.07767 0.933377 1.14926C 0.909541 1.22086 0.93338 1.29245 0.981052 1.36404C 1.02872 1.43563 1.0764 1.4595 1.14791 1.48336C 1.21942 1.50722 1.29091 1.48337 1.36242 1.43564C 1.43393 1.38791 1.45777 1.34018 1.4816 1.26858C 1.50544 1.19699 1.48161 1.1254 1.43394 1.05381C 1.38627 0.982214 1.3386 0.95835 1.26709 0.934486C 1.24325 0.934486 1.21942 0.934486 1.19558 0.934486Z"/>
</defs>
</svg>
