<svg width="25" height="23" viewBox="0 0 25 23" version="1.1" xmlns="http://www.w3.org/2000/svg" xmlns:xlink="http://www.w3.org/1999/xlink">
<title>Group</title>
<desc>Created using Figma</desc>
<g id="Canvas" transform="translate(20560 -9655)">
<g id="Group">
<g id="Vector">
<use xlink:href="#path0_fill" transform="translate(-20552.1 9655)" fill="#B8C0D1"/>
</g>
<g id="Vector">
<use xlink:href="#path1_fill" transform="translate(-20556 9659.1)" fill="#B8C0D1"/>
</g>
<g id="Vector">
<use xlink:href="#path2_fill" transform="translate(-20560 9657.54)" fill="#B8C0D1"/>
</g>
</g>
</g>
<defs>
<path id="path0_fill" d="M 13.297 3.21288e-09L 0.874766 3.21288e-09C 0.58453 3.21288e-09 0.31315 0.144107 0.150439 0.384566C -0.0122716 0.625109 -0.0452681 0.930673 0.0625602 1.20036L 3.90271 10.8062C 4.03554 11.1386 4.35726 11.3565 4.71492 11.3565L 6.89262 11.3565L 5.29581 20.3949C 5.18142 21.0425 5.35802 21.703 5.78041 22.2069C 6.2028 22.7109 6.82216 23 7.47949 23L 10.5125 23C 11.5901 23 12.5085 22.2293 12.6962 21.1674L 14.4616 11.1739C 15.9962 10.6799 17.11 9.23851 17.11 7.54123L 17.11 3.81517C 17.11 1.71151 15.3995 3.21288e-09 13.297 3.21288e-09ZM 2.16677 1.75051L 4.09632 1.75051L 7.23664 9.60589L 5.30718 9.60589L 2.16677 1.75051ZM 10.9734 20.8625C 10.9339 21.0866 10.74 21.2493 10.5126 21.2493L 7.47957 21.2493C 7.28959 21.2493 7.17334 21.1445 7.12098 21.082C 7.06863 21.0194 6.98563 20.8867 7.01871 20.6996L 7.65112 17.1199L 8.99152 17.1199C 9.4746 17.1199 9.86627 16.728 9.86627 16.2447C 9.86627 15.7613 9.4746 15.3694 8.99152 15.3694L 7.96038 15.3694L 8.66938 11.3564L 12.6529 11.3564L 10.9734 20.8625ZM 15.3606 7.54123C 15.3606 8.67977 14.4349 9.60598 13.297 9.60598L 9.12098 9.60598L 5.98066 1.75059L 13.297 1.75059C 14.4349 1.75059 15.3606 2.6768 15.3606 3.81534L 15.3606 7.54123Z"/>
<path id="path1_fill" d="M 3.56286 5.10445C 2.83323 4.79585 2.26749 4.22153 1.96967 3.4871C 1.67178 2.75267 1.67767 1.94623 1.98609 1.21626C 2.17422 0.771052 1.96589 0.257539 1.52094 0.069299C 1.07599 -0.118941 0.562686 0.0895128 0.374639 0.53472C -0.115681 1.69541 -0.125025 2.97763 0.348461 4.14531C 0.821946 5.31299 1.72169 6.22614 2.88163 6.71691C 2.99274 6.76391 3.10823 6.78623 3.22178 6.78623C 3.56277 6.78623 3.88685 6.58553 4.02792 6.25149C 4.21606 5.8062 4.00781 5.29269 3.56286 5.10445Z"/>
<path id="path2_fill" d="M 6.00975 10.364C 2.46631 8.86529 0.802171 4.76158 2.30007 1.21618C 2.4882 0.770969 2.27987 0.257456 1.83492 0.0692161C 1.3898 -0.118856 0.876666 0.0895141 0.688619 0.534637C -1.18487 4.9691 0.8967 10.1019 5.32861 11.9764C 5.4398 12.0234 5.5552 12.0458 5.66876 12.0458C 6.00975 12.0458 6.33382 11.845 6.4749 11.511C 6.66303 11.0657 6.45479 10.5522 6.00975 10.364Z"/>
</defs>
</svg>
