<svg width="26" height="22" viewBox="0 0 26 22" version="1.1" xmlns="http://www.w3.org/2000/svg" xmlns:xlink="http://www.w3.org/1999/xlink">
<title>Group</title>
<desc>Created using Figma</desc>
<g id="Canvas" transform="translate(14574 -11059)">
<g id="Group">
<g id="Group">
<g id="Vector">
<use xlink:href="#path0_fill" transform="translate(-14574 11059)" fill="#B8C0D1"/>
</g>
</g>
<g id="Group">
<g id="Vector">
<use xlink:href="#path1_fill" transform="translate(-14573.5 11059.7)" fill="#B8C0D1"/>
</g>
</g>
<g id="Group">
<g id="Vector">
<use xlink:href="#path2_fill" transform="translate(-14569.7 11066.5)" fill="#B8C0D1"/>
</g>
<g id="Vector">
<use xlink:href="#path3_fill" transform="translate(-14566.1 11066.5)" fill="#B8C0D1"/>
</g>
<g id="Vector">
<use xlink:href="#path4_fill" transform="translate(-14563 11066.5)" fill="#B8C0D1"/>
</g>
<g id="Vector">
<use xlink:href="#path5_fill" transform="translate(-14559 11066.5)" fill="#B8C0D1"/>
</g>
</g>
</g>
</g>
<defs>
<path id="path0_fill" d="M 21.1273 18.9335L 2.12391 18.9335C 0.961349 18.9335 0 17.9346 0 16.7265L 0 2.20697C 0 0.998946 0.961349 8.86204e-08 2.12391 8.86204e-08L 21.1273 8.86204e-08C 22.2899 8.86204e-08 23.2512 0.998946 23.2512 2.20697L 23.2512 16.7265C 23.2512 17.9578 22.3122 18.9335 21.1273 18.9335ZM 2.12391 0.929253C 1.4532 0.929253 0.894278 1.51004 0.894278 2.20697L 0.894278 16.7265C 0.894278 17.4235 1.4532 18.0043 2.12391 18.0043L 21.1273 18.0043C 21.798 18.0043 22.3569 17.4235 22.3569 16.7265L 22.3569 2.20697C 22.3569 1.51004 21.798 0.929253 21.1273 0.929253L 2.12391 0.929253Z"/>
<path id="path1_fill" d="M 22.8041 21.2567L 22.7817 21.2567L 4.11367 21.0476C 3.53239 21.0476 2.99583 20.792 2.5934 20.3506L 2.72912e-06 17.4235L 0.648346 16.7962L 3.24176 19.7234C 3.46533 19.9789 3.77832 20.1183 4.11367 20.1183L 22.7817 20.3274L 22.8041 20.3274C 23.2736 20.3274 23.7207 20.1183 24.0114 19.7466C 24.4138 19.2588 24.615 18.6547 24.615 18.0275L 24.615 5.36643C 24.615 4.85535 24.4361 4.34426 24.1231 3.94932L 21.485 0.580783L 22.1781 -1.77241e-07L 24.8162 3.36854C 25.2634 3.92609 25.5093 4.64626 25.5093 5.38967L 25.5093 18.0507C 25.5093 18.9103 25.2186 19.7234 24.6821 20.3739C 24.2349 20.9082 23.5419 21.2567 22.8041 21.2567Z"/>
<path id="path2_fill" d="M 2.59341 3.36854L 1.14021 3.36854L 0.91664 3.8564L -2.72912e-06 3.8564L -2.72912e-06 3.71701L 1.65442 3.54482e-07L 2.05684 3.54482e-07L 3.71126 3.71701L 3.71126 3.8564L 2.79462 3.8564L 2.59341 3.36854ZM 1.87799 1.53327L 1.4532 2.53221L 2.30276 2.53221L 1.87799 1.53327Z"/>
<path id="path3_fill" d="M 0 0.88279C 0 0.580783 0 0.302007 0 0L 2.72755 0C 2.72755 0.278776 2.72755 0.580783 2.72755 0.88279L 1.83327 0.88279L 1.83327 3.83317C 1.52027 3.83317 1.20727 3.83317 0.894278 3.83317L 0.894278 0.88279L 0 0.88279Z"/>
<path id="path4_fill" d="M -2.72912e-06 1.98628C -2.72912e-06 -0.662093 3.75596 -0.662093 3.75596 1.98628C 3.77832 4.61142 -2.72912e-06 4.61142 -2.72912e-06 1.98628ZM 2.81698 1.98628C 2.81698 0.61563 0.983708 0.61563 0.983708 1.98628C 0.961351 3.35692 2.81698 3.35692 2.81698 1.98628Z"/>
<path id="path5_fill" d="M 0.91664 3.8564L -2.72912e-06 3.8564L -2.72912e-06 3.71701L 1.65442 -1.77241e-07L 2.05684 -1.77241e-07L 3.71126 3.71701L 3.71126 3.8564L 2.79462 3.8564L 1.85562 1.62619L 0.91664 3.8564Z"/>
</defs>
</svg>
