<svg width="25" height="27" viewBox="0 0 25 27" version="1.1" xmlns="http://www.w3.org/2000/svg" xmlns:xlink="http://www.w3.org/1999/xlink">
<title>Group</title>
<desc>Created using Figma</desc>
<g id="Canvas" transform="translate(14572 -8120)">
<g id="Group">
<g id="Group">
<g id="Vector">
<use xlink:href="#path0_fill" transform="translate(-14571 8131.62)" fill="#B8C0D1"/>
</g>
</g>
<g id="Group">
<g id="Vector">
<use xlink:href="#path1_fill" transform="translate(-14572 8136.62)" fill="#B8C0D1"/>
</g>
</g>
<g id="Group">
<g id="Vector">
<use xlink:href="#path2_fill" transform="translate(-14569 8135.23)" fill="#B8C0D1"/>
</g>
</g>
<g id="Group">
<g id="Vector">
<use xlink:href="#path3_fill" transform="translate(-14551.1 8135.05)" fill="#B8C0D1"/>
</g>
</g>
<g id="Group">
<g id="Vector">
<use xlink:href="#path4_fill" transform="translate(-14557.6 8120)" fill="#B8C0D1"/>
</g>
</g>
<g id="Group">
<g id="Vector">
<use xlink:href="#path5_fill" transform="translate(-14568.9 8139.44)" fill="#B8C0D1"/>
</g>
</g>
<g id="Group">
<g id="Vector">
<use xlink:href="#path6_fill" transform="translate(-14556.5 8122.49)" fill="#B8C0D1"/>
</g>
</g>
</g>
</g>
<defs>
<path id="path0_fill" d="M 21.5078 3.94863L 0.924264 3.94863C 0.424663 3.94863 0 3.53838 0 2.99993L 0 0.948698C 0 0.435888 0.399683 0 0.924264 0L 21.5078 0C 22.0074 0 22.4321 0.410248 22.4321 0.948698L 22.4321 2.99993C 22.4071 3.53838 22.0074 3.94863 21.5078 3.94863ZM 0.999201 2.92301L 21.4329 2.92301L 21.4329 1.05126L 0.999201 1.05126L 0.999201 2.92301Z"/>
<path id="path1_fill" d="M 23.517 10.3844L 1.45962 10.3844C 1.03496 10.3844 0.635286 10.2049 0.360506 9.87158C 0.0857259 9.53826 -0.0391804 9.10237 0.0107797 8.66648L 0.935044 1.3333C 1.03496 0.56409 1.65945 3.64373e-15 2.40886 3.64373e-15L 21.9932 3.64373e-15C 22.6926 3.64373e-15 23.2922 0.512809 23.442 1.2051L 24.9658 8.53828C 25.0657 8.99981 24.9408 9.46134 24.6661 9.8203C 24.3913 10.1793 23.9666 10.3844 23.517 10.3844ZM 1.88428 1.43587L 0.960017 8.76904C 0.935037 8.92288 0.984997 9.05109 1.08492 9.15365C 1.18484 9.25621 1.30974 9.33313 1.43464 9.33313L 23.492 9.33313C 23.6419 9.33313 23.7668 9.25621 23.8667 9.15365C 23.9666 9.02545 23.9916 8.89724 23.9666 8.7434L 22.4428 1.41023C 22.3929 1.17946 22.193 1.02562 21.9682 1.02562L 2.35891 1.02562C 2.13409 1.02562 1.93424 1.2051 1.88428 1.43587Z"/>
<path id="path2_fill" d="M 0.999195 0L -6.09864e-06 0L -6.09864e-06 2.05124L 0.999195 2.05124L 0.999195 0Z"/>
<path id="path3_fill" d="M 0.999201 0L 0 0L 0 2.05124L 0.999201 2.05124L 0.999201 0Z"/>
<path id="path4_fill" d="M 4.8711 11.8715L 3.8719 11.8715L 3.8719 3.51275C 3.8719 2.94865 4.32154 2.48713 4.8711 2.48713L 6.07014 2.48713L 6.07014 1.02562L 0.999201 1.02562L 0.999201 2.48713L 2.19824 2.48713C 2.7478 2.48713 3.19744 2.94865 3.19744 3.51275L 3.19744 11.8715L 2.19824 11.8715L 2.19824 3.51275L 0.999201 3.51275C 0.44964 3.51275 0 3.05122 0 2.48713L 0 0.769214C 0 0.333326 0.32474 -4.89053e-08 0.749401 -4.89053e-08L 6.31994 -4.89053e-08C 6.7446 -4.89053e-08 7.06934 0.333326 7.06934 0.769214L 7.06934 2.48713C 7.06934 3.05122 6.6197 3.51275 6.07014 3.51275L 4.8711 3.51275L 4.8711 11.8715Z"/>
<path id="path5_fill" d="M 17.536 5.17938L 1.27399 5.17938C 0.574547 5.17938 -3.04932e-06 4.58964 -3.04932e-06 3.87171L -3.04932e-06 1.30766C -3.04932e-06 0.589731 0.574547 -3.64373e-15 1.27399 -3.64373e-15L 17.536 -3.64373e-15C 18.2354 -3.64373e-15 18.8099 0.589731 18.8099 1.30766L 18.8099 3.87171C 18.8099 4.58964 18.2354 5.17938 17.536 5.17938ZM 1.27399 1.02562C 1.12411 1.02562 0.999198 1.15382 0.999198 1.30766L 0.999198 3.87171C 0.999198 4.02555 1.12411 4.15376 1.27399 4.15376L 17.536 4.15376C 17.6859 4.15376 17.8107 4.02555 17.8107 3.87171L 17.8107 1.30766C 17.8107 1.15382 17.6859 1.02562 17.536 1.02562L 1.27399 1.02562Z"/>
<path id="path6_fill" d="M 4.64629 0L -6.09864e-06 0L -6.09864e-06 1.02562L 4.64629 1.02562L 4.64629 0Z"/>
</defs>
</svg>
