<svg width="15" height="31" viewBox="0 0 15 31" version="1.1" xmlns="http://www.w3.org/2000/svg" xmlns:xlink="http://www.w3.org/1999/xlink">
<title>Group</title>
<desc>Created using Figma</desc>
<g id="Canvas" transform="translate(14566 -9096)">
<g id="Group">
<g id="Group">
<g id="Vector">
<use xlink:href="#path0_fill" transform="translate(-14563.7 9106.91)" fill="#B8C0D1"/>
</g>
</g>
<g id="Group">
<g id="Vector">
<use xlink:href="#path1_fill" transform="translate(-14566 9104.33)" fill="#B8C0D1"/>
</g>
</g>
<g id="Group">
<g id="Vector">
<use xlink:href="#path2_fill" transform="translate(-14563.7 9111.11)" fill="#B8C0D1"/>
</g>
</g>
<g id="Group">
<g id="Vector">
<use xlink:href="#path3_fill" transform="translate(-14561.7 9096)" fill="#B8C0D1"/>
</g>
</g>
<g id="Group">
<g id="Vector">
<use xlink:href="#path4_fill" transform="translate(-14560.3 9100.92)" fill="#B8C0D1"/>
</g>
</g>
<g id="Group">
<g id="Vector">
<use xlink:href="#path5_fill" transform="translate(-14560.3 9102.63)" fill="#B8C0D1"/>
</g>
</g>
<g id="Group">
<g id="Vector">
<use xlink:href="#path6_fill" transform="translate(-14561.7 9111.11)" fill="#B8C0D1"/>
</g>
</g>
<g id="Group">
<g id="Vector">
<use xlink:href="#path6_fill" transform="translate(-14556.2 9111.11)" fill="#B8C0D1"/>
</g>
</g>
<g id="Group">
<g id="Vector">
<use xlink:href="#path7_fill" transform="translate(-14563.7 9117.6)" fill="#B8C0D1"/>
</g>
</g>
<g id="Group">
<g id="Vector">
<use xlink:href="#path8_fill" transform="translate(-14556.3 9117.6)" fill="#B8C0D1"/>
</g>
</g>
</g>
</g>
<defs>
<path id="path0_fill" d="M 7.47627 3.15012L 0.878167 3.15012C 0.37975 3.15012 0 2.74443 0 2.26714L 0 0.882988C 0 0.381832 0.403484 2.91316e-06 0.878167 2.91316e-06L 7.47627 2.91316e-06C 7.97468 2.91316e-06 8.35443 0.405696 8.35443 0.882988L 8.35443 2.26714C 8.37817 2.76829 7.97468 3.15012 7.47627 3.15012ZM 0.949367 2.19554L 7.42879 2.19554L 7.42879 0.93072L 0.949367 0.93072L 0.949367 2.19554Z"/>
<path id="path1_fill" d="M 13.3149 22.6713L 1.68512 22.6713C 0.759491 22.6713 2.89724e-06 21.9077 2.89724e-06 20.977L 2.89724e-06 1.69438C 2.89724e-06 0.763666 0.759491 -1.45658e-06 1.68512 -1.45658e-06L 13.3149 -1.45658e-06C 14.2405 -1.45658e-06 15 0.763666 15 1.69438L 15 20.977C 15 21.9077 14.2405 22.6713 13.3149 22.6713ZM 1.68512 0.978448C 1.28164 0.978448 0.94937 1.31255 0.94937 1.71825L 0.94937 21.0008C 0.94937 21.4065 1.28164 21.7406 1.68512 21.7406L 13.3149 21.7406C 13.7184 21.7406 14.0506 21.4065 14.0506 21.0008L 14.0506 1.71825C 14.0506 1.31255 13.7184 0.978448 13.3149 0.978448L 1.68512 0.978448Z"/>
<path id="path2_fill" d="M 9.2326 13.913L 1.11551 13.913C 0.498421 13.913 0 13.4119 0 12.7914L 0 1.12164C 0 0.501156 0.498421 -2.91316e-06 1.11551 -2.91316e-06L 9.2326 -2.91316e-06C 9.84969 -2.91316e-06 10.3481 0.501156 10.3481 1.12164L 10.3481 12.7914C 10.3481 13.4119 9.84969 13.913 9.2326 13.913ZM 1.11551 0.978446C 1.02057 0.978446 0.949367 1.05004 0.949367 1.1455L 0.949367 12.8153C 0.949367 12.9107 1.02057 12.9823 1.11551 12.9823L 9.2326 12.9823C 9.32754 12.9823 9.39873 12.9107 9.39873 12.8153L 9.39873 1.1455C 9.39873 1.05004 9.32754 0.978446 9.2326 0.978446L 1.11551 0.978446Z"/>
<path id="path3_fill" d="M 6.40822 8.94922L 5.45886 8.94922L 5.45886 2.79215L 4.8655 3.50809L 4.08228 2.14781L 3.25158 3.60355L 2.27849 2.10008L 1.44779 3.50809L 0.949364 2.83988L 0.949364 8.94922L -2.89724e-06 8.94922L -2.89724e-06 0L 1.35285 1.78984L 2.23102 0.31024L 3.20411 1.78984L 4.08228 0.262512L 5.00792 1.83757L 6.40822 0.0715945L 6.40822 8.94922Z"/>
<path id="path4_fill" d="M 3.13292 0.954584L 0.474686 0.954584C 0.21361 0.954584 2.89724e-06 0.739803 2.89724e-06 0.477293C 2.89724e-06 0.214783 0.21361 1.45658e-06 0.474686 1.45658e-06L 3.13292 1.45658e-06C 3.39399 1.45658e-06 3.6076 0.214783 3.6076 0.477293C 3.6076 0.739803 3.39399 0.954584 3.13292 0.954584Z"/>
<path id="path5_fill" d="M 3.13292 0.954584L 0.474686 0.954584C 0.21361 0.954584 2.89724e-06 0.739803 2.89724e-06 0.477292C 2.89724e-06 0.214782 0.21361 7.28289e-07 0.474686 7.28289e-07L 3.13292 7.28289e-07C 3.39399 7.28289e-07 3.6076 0.214782 3.6076 0.477292C 3.6076 0.739803 3.39399 0.954584 3.13292 0.954584Z"/>
<path id="path6_fill" d="M 0.474681 13.913C 0.213605 13.913 -2.89724e-06 13.6983 -2.89724e-06 13.4358L -2.89724e-06 0.477289C -2.89724e-06 0.214778 0.213605 -2.91316e-06 0.474681 -2.91316e-06C 0.735757 -2.91316e-06 0.949364 0.214778 0.949364 0.477289L 0.949364 13.4358C 0.949364 13.6983 0.735757 13.913 0.474681 13.913Z"/>
<path id="path7_fill" d="M 2.44462 0.954583L 0.474684 0.954583C 0.213608 0.954583 0 0.739802 0 0.477291C 0 0.214781 0.213608 0 0.474684 0L 2.44462 0C 2.70569 0 2.9193 0.214781 2.9193 0.477291C 2.9193 0.739802 2.70569 0.954583 2.44462 0.954583Z"/>
<path id="path8_fill" d="M 2.46835 0.954583L 0.474686 0.954583C 0.21361 0.954583 2.89724e-06 0.739802 2.89724e-06 0.477291C 2.89724e-06 0.214781 0.21361 0 0.474686 0L 2.46835 0C 2.72942 0 2.94303 0.214781 2.94303 0.477291C 2.94303 0.739802 2.72942 0.954583 2.46835 0.954583Z"/>
</defs>
</svg>
