<svg width="25" height="27" viewBox="0 0 25 27" version="1.1" xmlns="http://www.w3.org/2000/svg" xmlns:xlink="http://www.w3.org/1999/xlink">
<title>Group</title>
<desc>Created using Figma</desc>
<g id="Canvas" transform="translate(14572 -8329)">
<g id="Group">
<g id="Group">
<g id="Vector">
<use xlink:href="#path0_fill" transform="translate(-14572 8350.86)" fill="#B8C0D1"/>
</g>
</g>
<g id="Group">
<g id="Vector">
<use xlink:href="#path1_fill" transform="translate(-14571.2 8348.86)" fill="#B8C0D1"/>
</g>
</g>
<g id="Group">
<g id="Vector">
<use xlink:href="#path2_fill" transform="translate(-14564.9 8329)" fill="#B8C0D1"/>
</g>
</g>
<g id="Group">
<g id="Vector">
<use xlink:href="#path3_fill" transform="translate(-14554.7 8336.71)" fill="#B8C0D1"/>
</g>
</g>
<g id="Group">
<g id="Vector">
<use xlink:href="#path4_fill" transform="translate(-14552.9 8336.71)" fill="#B8C0D1"/>
</g>
</g>
</g>
</g>
<defs>
<path id="path0_fill" d="M 23.9699 5.14034L 1.03007 5.14034C 0.445438 5.14034 0 4.65336 0 4.00405L 0 1.13628C 0 0.486979 0.445438 4.12818e-07 1.03007 4.12818e-07L 23.9699 4.12818e-07C 24.5546 4.12818e-07 25 0.486979 25 1.13628L 25 4.00405C 24.9722 4.6263 24.5267 5.14034 23.9699 5.14034ZM 1.11359 4.05816L 23.8586 4.05816C 23.8586 4.03111 23.8586 4.03111 23.8586 4.00405L 23.8586 1.13628C 23.8586 1.10923 23.8586 1.08218 23.8586 1.08218L 1.11359 1.08218C 1.11359 1.10923 1.11359 1.10923 1.11359 1.13628L 1.11359 4.00405C 1.11359 4.03111 1.11359 4.03111 1.11359 4.05816Z"/>
<path id="path1_fill" d="M 22.4387 3.0842L 1.00222 3.0842C 0.445431 3.0842 3.39839e-06 2.70544 3.39839e-06 2.24552L 3.39839e-06 0.838686C 3.39839e-06 0.378761 0.445431 -3.84466e-15 1.00222 -3.84466e-15L 22.4387 -3.84466e-15C 22.9955 -3.84466e-15 23.441 0.378761 23.441 0.838686L 23.441 2.24552C 23.441 2.70544 22.9955 3.0842 22.4387 3.0842ZM 1.11359 2.00203L 22.2996 2.00203L 22.2996 1.08218L 1.11359 1.08218L 1.11359 2.00203Z"/>
<path id="path2_fill" d="M 15.2561 8.25159L 1.14143 8.25159C 0.501114 8.25159 6.79679e-06 7.73756 6.79679e-06 7.14236L 6.79679e-06 1.10923C 6.79679e-06 0.48698 0.528953 1.03204e-07 1.14143 1.03204e-07L 15.2561 1.03204e-07C 15.8964 1.03204e-07 16.3975 0.514034 16.3975 1.10923L 16.3975 7.14236C 16.3975 7.76461 15.8686 8.25159 15.2561 8.25159ZM 1.14143 1.05512C 1.11359 1.05512 1.11359 1.08218 1.11359 1.08218L 1.11359 7.11531C 1.11359 7.14236 1.14143 7.14236 1.14143 7.14236L 15.2561 7.14236C 15.284 7.14236 15.284 7.11531 15.284 7.11531L 15.284 1.10923C 15.284 1.08218 15.2561 1.08218 15.2561 1.08218L 1.14143 1.08218L 1.14143 1.05512Z"/>
<path id="path3_fill" d="M 1.11359 0L 0 0L 0 12.6615L 1.11359 12.6615L 1.11359 0Z"/>
<path id="path4_fill" d="M 1.11359 0L 3.39839e-06 0L 3.39839e-06 12.6615L 1.11359 12.6615L 1.11359 0Z"/>
</defs>
</svg>
