<svg width="29" height="17" viewBox="0 0 29 17" version="1.1" xmlns="http://www.w3.org/2000/svg" xmlns:xlink="http://www.w3.org/1999/xlink">
<title>Group</title>
<desc>Created using Figma</desc>
<g id="Canvas" transform="translate(14574 -8229)">
<g id="Group">
<g id="Group">
<g id="Vector">
<use xlink:href="#path0_fill" transform="translate(-14572.8 8229)" fill="#B8C0D1"/>
</g>
</g>
<g id="Group">
<g id="Vector">
<use xlink:href="#path1_fill" transform="translate(-14574 8234.51)" fill="#B8C0D1"/>
</g>
</g>
<g id="Group">
<g id="Vector">
<use xlink:href="#path2_fill" transform="translate(-14570.7 8232.8)" fill="#B8C0D1"/>
</g>
</g>
<g id="Group">
<g id="Vector">
<use xlink:href="#path3_fill" transform="translate(-14550.1 8232.63)" fill="#B8C0D1"/>
</g>
</g>
<g id="Group">
<g id="Vector">
<use xlink:href="#path4_fill" transform="translate(-14570.4 8237.6)" fill="#B8C0D1"/>
</g>
</g>
<g id="Group">
<g id="Vector">
<use xlink:href="#path5_fill" transform="translate(-14555.1 8237.6)" fill="#B8C0D1"/>
</g>
</g>
</g>
</g>
<defs>
<path id="path0_fill" d="M 24.949 4.37049L 1.07215 4.37049C 0.49261 4.37049 0 3.91641 0 3.32044L 0 1.05005C 0 0.482458 0.463633 -1.73216e-06 1.07215 -1.73216e-06L 24.949 -1.73216e-06C 25.5286 -1.73216e-06 26.0212 0.454078 26.0212 1.05005L 26.0212 3.32044C 25.9922 3.91641 25.5286 4.37049 24.949 4.37049ZM 1.15907 3.2353L 24.8621 3.2353L 24.8621 1.16357L 1.15907 1.16357L 1.15907 3.2353Z"/>
<path id="path1_fill" d="M 27.2797 11.4938L 1.69316 11.4938C 1.20055 11.4938 0.736932 11.2952 0.418187 10.9262C 0.099442 10.5573 -0.0454492 10.0748 0.0125044 9.59237L 1.08465 1.47575C 1.20056 0.652735 1.92497 8.66082e-07 2.79427 8.66082e-07L 25.5121 8.66082e-07C 26.3235 8.66082e-07 27.0189 0.567596 27.1928 1.33385L 28.9604 9.45047C 29.0763 9.96131 28.9314 10.4721 28.6126 10.8695C 28.2649 11.2668 27.8013 11.4938 27.2797 11.4938ZM 2.18577 1.61765L 1.11362 9.73427C 1.08464 9.90455 1.1426 10.0464 1.2585 10.16C 1.37441 10.2735 1.5193 10.3586 1.66419 10.3586L 27.2507 10.3586C 27.4246 10.3586 27.5695 10.2735 27.6854 10.16C 27.8013 10.0181 27.8303 9.87616 27.8013 9.70589L 26.0337 1.58927C 25.9757 1.33385 25.7439 1.16357 25.4831 1.16357L 2.73633 1.16357C 2.47554 1.13519 2.24372 1.33385 2.18577 1.61765Z"/>
<path id="path2_fill" d="M 1.15907 0L 0 0L 0 2.27038L 1.15907 2.27038L 1.15907 0Z"/>
<path id="path3_fill" d="M 1.15907 0L -3.53721e-06 0L -3.53721e-06 2.27038L 1.15907 2.27038L 1.15907 0Z"/>
<path id="path4_fill" d="M 12.0833 5.73271L 1.47782 5.73271C 0.666467 5.73271 7.07442e-06 5.07998 7.07442e-06 4.28535L 7.07442e-06 1.44737C 7.07442e-06 0.652736 0.666467 -8.66082e-07 1.47782 -8.66082e-07L 12.0833 -8.66082e-07C 12.8947 -8.66082e-07 13.5612 0.652736 13.5612 1.44737L 13.5612 4.28535C 13.5612 5.07998 12.8947 5.73271 12.0833 5.73271ZM 1.47782 1.10681C 1.30396 1.10681 1.15908 1.24871 1.15908 1.41899L 1.15908 4.25697C 1.15908 4.42724 1.30396 4.56915 1.47782 4.56915L 12.0833 4.56915C 12.2572 4.56915 12.4021 4.42724 12.4021 4.25697L 12.4021 1.41899C 12.4021 1.24871 12.2572 1.10681 12.0833 1.10681L 1.47782 1.10681Z"/>
<path id="path5_fill" d="M 4.78118 5.73271L 1.47781 5.73271C 0.666463 5.73271 3.53721e-06 5.07998 3.53721e-06 4.28535L 3.53721e-06 1.44737C 3.53721e-06 0.652736 0.666463 -8.66082e-07 1.47781 -8.66082e-07L 4.78118 -8.66082e-07C 5.59253 -8.66082e-07 6.25899 0.652736 6.25899 1.44737L 6.25899 4.28535C 6.28797 5.07998 5.62151 5.73271 4.78118 5.73271ZM 1.5068 1.10681C 1.33294 1.10681 1.18805 1.24871 1.18805 1.41899L 1.18805 4.25697C 1.18805 4.42724 1.33294 4.56915 1.5068 4.56915L 4.81015 4.56915C 4.98401 4.56915 5.1289 4.42724 5.1289 4.25697L 5.1289 1.41899C 5.1289 1.24871 4.98401 1.10681 4.81015 1.10681L 1.5068 1.10681Z"/>
</defs>
</svg>
