<svg width="17" height="31" viewBox="0 0 17 31" version="1.1" xmlns="http://www.w3.org/2000/svg" xmlns:xlink="http://www.w3.org/1999/xlink">
<title>Group</title>
<desc>Created using Figma</desc>
<g id="Canvas" transform="translate(14569 -7139)">
<g id="Group">
<g id="Group">
<g id="Group">
<g id="Group">
<g id="Vector">
<use xlink:href="#path0_fill" transform="translate(-14563.1 7165.71)" fill="#B8C0D1"/>
</g>
</g>
</g>
</g>
<g id="Group">
<g id="Vector">
<use xlink:href="#path1_fill" transform="translate(-14569 7139)" fill="#B8C0D1"/>
</g>
</g>
<g id="Group">
<g id="Vector">
<use xlink:href="#path2_fill" transform="translate(-14565.2 7165.15)" fill="#B8C0D1"/>
</g>
</g>
<g id="Group">
<g id="Vector">
<use xlink:href="#path3_fill" transform="translate(-14566.7 7154.02)" fill="#B8C0D1"/>
</g>
</g>
<g id="Group">
<g id="Vector">
<use xlink:href="#path4_fill" transform="translate(-14562.3 7154.02)" fill="#B8C0D1"/>
</g>
</g>
<g id="Group">
<g id="Vector">
<use xlink:href="#path5_fill" transform="translate(-14557.9 7154.02)" fill="#B8C0D1"/>
</g>
</g>
<g id="Group">
<g id="Vector">
<use xlink:href="#path6_fill" transform="translate(-14566.7 7157.48)" fill="#B8C0D1"/>
</g>
</g>
<g id="Group">
<g id="Vector">
<use xlink:href="#path7_fill" transform="translate(-14562.3 7157.48)" fill="#B8C0D1"/>
</g>
</g>
<g id="Group">
<g id="Vector">
<use xlink:href="#path8_fill" transform="translate(-14557.9 7157.48)" fill="#B8C0D1"/>
</g>
</g>
<g id="Group">
<g id="Vector">
<use xlink:href="#path9_fill" transform="translate(-14566.7 7160.95)" fill="#B8C0D1"/>
</g>
</g>
<g id="Group">
<g id="Vector">
<use xlink:href="#path10_fill" transform="translate(-14562.3 7160.95)" fill="#B8C0D1"/>
</g>
</g>
<g id="Group">
<g id="Vector">
<use xlink:href="#path11_fill" transform="translate(-14557.9 7160.95)" fill="#B8C0D1"/>
</g>
</g>
<g id="Group">
<g id="Vector">
<use xlink:href="#path12_fill" transform="translate(-14566.5 7142.4)" fill="#B8C0D1"/>
</g>
</g>
</g>
</g>
<defs>
<path id="path0_fill" d="M 2.12761 0L 0 0L 0 3.69195L 2.12761 3.69195L 2.12761 0Z"/>
<path id="path1_fill" d="M 8.34356 26.978C 5.31902 26.978 2.06503 26.8543 0.876075 25.6993C 0.563191 25.3899 0.417177 25.0393 0.417177 24.6474L -1.27313e-06 3.01132C -1.27313e-06 2.45444 0.208588 1.95943 0.625766 1.54692C 2.21104 -0.0206119 6.59141 1.35604e-05 8.6773 1.35604e-05L 8.7816 1.35604e-05C 11.6601 0.020639 17 0.0412643 17 2.9907L 16.5828 24.6474C 16.5828 26.9781 11.6184 26.978 8.63558 26.978L 8.59387 26.978C 8.48957 26.978 8.42699 26.978 8.34356 26.978ZM 8.13497 0.82503C 6.11166 0.82503 2.44049 0.907531 1.23067 2.10381C 0.980366 2.35131 0.855215 2.64007 0.855215 2.97007L 1.27239 24.6061C 1.27239 24.7918 1.33497 24.9361 1.48098 25.0805C 2.54479 26.1324 6.61227 26.1324 8.57301 26.1324L 8.61473 26.1324C 10.5546 26.1324 15.7276 26.1118 15.7276 24.6061L 16.1448 2.94945C 16.1448 0.82503 10.9718 0.804405 8.76073 0.804405L 8.6773 0.82503C 8.51043 0.82503 8.34356 0.82503 8.13497 0.82503Z"/>
<path id="path2_fill" d="M 8.36441 4.84697L 0.980367 4.84697C 0.438036 4.84697 2.54625e-06 4.41384 2.54625e-06 3.87758L 2.54625e-06 6.29438e-07L 0.834358 6.29438e-07L 0.834358 3.87758C 0.834358 3.96008 0.896931 4.02196 0.980367 4.02196L 8.36441 4.02196C 8.44785 4.02196 8.51043 3.96008 8.51043 3.87758L 8.51043 6.29438e-07L 9.34478 6.29438e-07L 9.34478 3.87758C 9.34478 4.41384 8.90674 4.84697 8.36441 4.84697Z"/>
<path id="path3_fill" d="M 2.98282 2.74318L 0.625767 2.74318C 0.271166 2.74318 0 2.47505 0 2.12442L 0 0.618763C 0 0.268131 0.271166 6.29437e-07 0.625767 6.29437e-07L 2.98282 6.29437e-07C 3.33742 6.29437e-07 3.60859 0.268131 3.60859 0.618763L 3.60859 2.12442C 3.60859 2.47505 3.33742 2.74318 2.98282 2.74318ZM 0.834356 1.91816L 2.77423 1.91816L 2.77423 0.825017L 0.834356 0.825017L 0.834356 1.91816Z"/>
<path id="path4_fill" d="M 2.98282 2.74318L 0.625767 2.74318C 0.271166 2.74318 0 2.47505 0 2.12442L 0 0.618763C 0 0.268131 0.271166 6.29437e-07 0.625767 6.29437e-07L 2.98282 6.29437e-07C 3.33742 6.29437e-07 3.60859 0.268131 3.60859 0.618763L 3.60859 2.12442C 3.60859 2.47505 3.31656 2.74318 2.98282 2.74318ZM 0.813496 1.91816L 2.75338 1.91816L 2.75338 0.825017L 0.813496 0.825017L 0.813496 1.91816Z"/>
<path id="path5_fill" d="M 2.98282 2.74318L 0.625766 2.74318C 0.271164 2.74318 -1.27313e-06 2.47505 -1.27313e-06 2.12442L -1.27313e-06 0.618763C -1.27313e-06 0.268131 0.271164 6.29437e-07 0.625766 6.29437e-07L 2.98282 6.29437e-07C 3.33743 6.29437e-07 3.60859 0.268131 3.60859 0.618763L 3.60859 2.12442C 3.60859 2.47505 3.31657 2.74318 2.98282 2.74318ZM 0.834355 1.91816L 2.77424 1.91816L 2.77424 0.825017L 0.834355 0.825017L 0.834355 1.91816Z"/>
<path id="path6_fill" d="M 2.98282 2.74318L 0.625767 2.74318C 0.271166 2.74318 0 2.47505 0 2.12442L 0 0.618762C 0 0.26813 0.271166 -3.14719e-07 0.625767 -3.14719e-07L 2.98282 -3.14719e-07C 3.33742 -3.14719e-07 3.60859 0.26813 3.60859 0.618762L 3.60859 2.12442C 3.60859 2.47505 3.33742 2.74318 2.98282 2.74318ZM 0.834356 1.91816L 2.77423 1.91816L 2.77423 0.825016L 0.834356 0.825016L 0.834356 1.91816Z"/>
<path id="path7_fill" d="M 2.98282 2.74318L 0.625767 2.74318C 0.271166 2.74318 0 2.47505 0 2.12442L 0 0.618762C 0 0.26813 0.271166 -3.14719e-07 0.625767 -3.14719e-07L 2.98282 -3.14719e-07C 3.33742 -3.14719e-07 3.60859 0.26813 3.60859 0.618762L 3.60859 2.12442C 3.60859 2.47505 3.31656 2.74318 2.98282 2.74318ZM 0.813496 1.91816L 2.75338 1.91816L 2.75338 0.825016L 0.813496 0.825016L 0.813496 1.91816Z"/>
<path id="path8_fill" d="M 2.98282 2.74318L 0.625766 2.74318C 0.271164 2.74318 -1.27313e-06 2.47505 -1.27313e-06 2.12442L -1.27313e-06 0.618762C -1.27313e-06 0.26813 0.271164 -3.14719e-07 0.625766 -3.14719e-07L 2.98282 -3.14719e-07C 3.33743 -3.14719e-07 3.60859 0.26813 3.60859 0.618762L 3.60859 2.12442C 3.60859 2.47505 3.31657 2.74318 2.98282 2.74318ZM 0.834355 1.91816L 2.77424 1.91816L 2.77424 0.825016L 0.834355 0.825016L 0.834355 1.91816Z"/>
<path id="path9_fill" d="M 2.98282 2.74318L 0.625767 2.74318C 0.271166 2.74318 0 2.47505 0 2.12442L 0 0.618762C 0 0.268131 0.271166 3.14719e-07 0.625767 3.14719e-07L 2.98282 3.14719e-07C 3.33742 3.14719e-07 3.60859 0.268131 3.60859 0.618762L 3.60859 2.12442C 3.60859 2.47505 3.33742 2.74318 2.98282 2.74318ZM 0.834356 1.91816L 2.77423 1.91816L 2.77423 0.825017L 0.834356 0.825017L 0.834356 1.91816Z"/>
<path id="path10_fill" d="M 2.98282 2.74318L 0.625767 2.74318C 0.271166 2.74318 0 2.47505 0 2.12442L 0 0.618762C 0 0.268131 0.271166 3.14719e-07 0.625767 3.14719e-07L 2.98282 3.14719e-07C 3.33742 3.14719e-07 3.60859 0.268131 3.60859 0.618762L 3.60859 2.12442C 3.60859 2.47505 3.31656 2.74318 2.98282 2.74318ZM 0.813496 1.91816L 2.75338 1.91816L 2.75338 0.825017L 0.813496 0.825017L 0.813496 1.91816Z"/>
<path id="path11_fill" d="M 2.98282 2.74318L 0.625766 2.74318C 0.271164 2.74318 -1.27313e-06 2.47505 -1.27313e-06 2.12442L -1.27313e-06 0.618762C -1.27313e-06 0.268131 0.271164 3.14719e-07 0.625766 3.14719e-07L 2.98282 3.14719e-07C 3.33743 3.14719e-07 3.60859 0.268131 3.60859 0.618762L 3.60859 2.12442C 3.60859 2.47505 3.31657 2.74318 2.98282 2.74318ZM 0.834355 1.91816L 2.77424 1.91816L 2.77424 0.825017L 0.834355 0.825017L 0.834355 1.91816Z"/>
<path id="path12_fill" d="M 10.8675 9.44644L 1.25153 9.44644C 0.56319 9.44644 0 8.88955 0 8.20891L 0 1.23752C 0 0.556886 0.56319 0 1.25153 0L 10.8675 0C 11.5558 0 12.119 0.556886 12.119 1.23752L 12.119 8.20891C 12.119 8.88955 11.5558 9.44644 10.8675 9.44644ZM 1.25153 0.825016C 1.02209 0.825016 0.834356 1.01064 0.834356 1.23752L 0.834356 8.20891C 0.834356 8.43579 1.02209 8.62142 1.25153 8.62142L 10.8675 8.62142C 11.0969 8.62142 11.2847 8.43579 11.2847 8.20891L 11.2847 1.23752C 11.2847 1.01064 11.0969 0.825016 10.8675 0.825016L 1.25153 0.825016Z"/>
</defs>
</svg>
