<svg width="21" height="20" viewBox="0 0 21 20" version="1.1" xmlns="http://www.w3.org/2000/svg" xmlns:xlink="http://www.w3.org/1999/xlink">
<title>Vector</title>
<desc>Created using Figma</desc>
<g id="Canvas" transform="translate(21680 -9880)">
<g id="Vector">
<use xlink:href="#path0_fill" transform="translate(-21680 9880)" fill="#FFFFFF"/>
</g>
</g>
<defs>
<path id="path0_fill" d="M 20.2808 3.10034L 5.07732 3.10034L 4.20154 1.0807C 4.1119 0.873991 3.92727 0.72153 3.70445 0.670052L 0.884028 0.0190029C 0.497402 -0.0705205 0.1102 0.16486 0.0192965 0.544233C -0.0717219 0.923551 0.167964 1.30338 0.554648 1.39262L 3.02054 1.96193L 9.33331 16.5207C 9.13782 16.8595 9.02551 17.2504 9.02551 17.6667C 9.02551 18.9533 10.0924 20 11.4037 20C 12.7151 20 13.782 18.9533 13.782 17.6667C 13.782 17.3435 13.7146 17.0355 13.593 16.7554L 16.1826 16.7554C 16.0611 17.0355 15.9936 17.3434 15.9936 17.6667C 15.9936 18.9533 17.0606 20 18.372 20C 19.6833 20 20.7502 18.9533 20.7502 17.6667C 20.7502 16.38 19.6833 15.3333 18.372 15.3333L 10.3863 15.3442L 9.40132 13.0727L 20.2808 13.0727C 20.678 13.0727 21 12.7567 21 12.3671L 21 3.80591C 20.9999 3.41626 20.678 3.10034 20.2808 3.10034ZM 18.3735 16.7452C 18.8925 16.7452 19.3132 17.1579 19.3132 17.6671C 19.3132 18.1763 18.8925 18.5891 18.3735 18.5891C 17.8545 18.5891 17.4338 18.1763 17.4338 17.6671C 17.4338 17.1579 17.8545 16.7452 18.3735 16.7452ZM 11.4073 16.7452C 11.9264 16.7452 12.3471 17.1579 12.3471 17.6671C 12.3471 18.1763 11.9264 18.5891 11.4073 18.5891C 10.8883 18.5891 10.4676 18.1763 10.4676 17.6671C 10.4676 17.1579 10.8884 16.7452 11.4073 16.7452ZM 19.5616 7.38092C 19.5616 7.57535 19.5616 7.87879 19.5616 7.87879C 19.5616 7.87879 19.5616 7.74956 19.5616 8.1392C 19.5616 8.52885 19.5616 8.48485 19.5616 8.79207L 19.5616 11.6615L 8.78951 11.6615L 5.68913 4.51149L 19.5616 4.51149C 19.5616 4.51149 19.5616 6.26034 19.5616 7.38092Z"/>
</defs>
</svg>
