<svg width="73" height="37" viewBox="0 0 73 37" version="1.1" xmlns="http://www.w3.org/2000/svg" xmlns:xlink="http://www.w3.org/1999/xlink">
<title>logo Lad_red</title>
<desc>Created using Figma</desc>
<g id="Canvas" transform="translate(21080 -6977)">
<g id="logo Lad_red">
<g id="Vector">
<use xlink:href="#path0_fill" transform="translate(-21070.4 7003.23)" fill="#C4C5CC"/>
</g>
<g id="Vector">
<use xlink:href="#path1_fill" transform="translate(-21070.8 6983.17)" fill="#C4C5CC"/>
</g>
<g id="Vector">
<use xlink:href="#path2_fill" transform="translate(-21034.5 6983.17)" fill="#C4C5CC"/>
</g>
<g id="Vector">
<use xlink:href="#path3_fill" transform="translate(-21026.2 7009.14)" fill="#C4C5CC"/>
</g>
<g id="Vector">
<use xlink:href="#path4_fill" transform="translate(-21080 6977)" fill="#C4C5CC"/>
</g>
<g id="Vector">
<use xlink:href="#path5_fill" transform="translate(-21053.2 6983.17)" fill="#C4C5CC"/>
</g>
</g>
</g>
<defs>
<path id="path0_fill" fill-rule="evenodd" d="M 4.83548e-05 0.82665L 2.547 0.82665L 2.547 1.23034L 0.522627 1.23034L 0.522627 4.2678L -2.20203e-06 4.2678L -2.20203e-06 0.82665L 4.83548e-05 0.82665ZM 2.96784 4.2678L 2.96784 0.82665L 4.45496 0.82665C 4.71625 0.82665 4.9161 0.837863 5.05457 0.859493C 5.24803 0.887516 5.41029 0.941188 5.54139 1.01971C 5.6725 1.09899 5.77792 1.20956 5.85767 1.35132C 5.93742 1.49312 5.97686 1.64928 5.97686 1.8199C 5.97686 2.11147 5.87052 2.35901 5.6569 2.56083C 5.44421 2.7635 5.0582 2.86442 4.50079 2.86442L 3.49042 2.86442L 3.49042 4.2678L 2.96784 4.2678ZM 3.49042 2.46068L 4.5081 2.46068C 4.84551 2.46068 5.08388 2.40621 5.22599 2.29649C 5.36717 2.18677 5.43776 2.03295 5.43776 1.83349C 5.43776 1.69012 5.39648 1.56673 5.31305 1.46421C 5.22962 1.36169 5.11959 1.29359 4.98389 1.26078C 4.8959 1.24076 4.73359 1.23034 4.49798 1.23034L 3.49042 1.23034L 3.49042 2.46068ZM 6.11717 0.82665L 6.64159 0.82665L 7.93157 2.94213L 9.05284 0.82665L 9.56627 0.82665L 8.09107 3.50363C 7.90681 3.83846 7.7555 4.05793 7.63724 4.16126C 7.51897 4.26459 7.35027 4.31585 7.13021 4.31585C 6.99635 4.31585 6.83225 4.28863 6.63695 4.23415L 6.63695 3.84485C 6.77629 3.91533 6.92391 3.95059 7.07977 3.95059C 7.20632 3.95059 7.31539 3.91452 7.40802 3.84324C 7.49969 3.77196 7.60148 3.60933 7.71243 3.35544L 6.11717 0.82665ZM 10.0165 0.82665L 13.1081 0.82665L 13.1081 4.2678L 12.5855 4.2678L 12.5855 1.23034L 10.5391 1.23034L 10.5391 4.2678L 10.0165 4.2678L 10.0165 0.82665L 10.0165 0.82665ZM 13.9708 0.82665L 17.0624 0.82665L 17.0624 4.2678L 16.5398 4.2678L 16.5398 1.23034L 14.4934 1.23034L 14.4934 4.2678L 13.9708 4.2678L 13.9708 0.82665L 13.9708 0.82665ZM 17.4877 4.2678L 18.9987 0.82665L 19.5717 0.82665L 21.1753 4.2678L 20.582 4.2678L 20.1264 3.2249L 18.4678 3.2249L 18.0406 4.2678L 17.4877 4.2678ZM 18.621 2.85481L 19.9632 2.85481L 19.5525 1.90079C 19.4287 1.61084 19.3352 1.3713 19.2701 1.1823C 19.216 1.40656 19.1436 1.62684 19.0528 1.84475L 18.621 2.85481ZM 23.1281 0.82665L 23.6507 0.82665L 23.6507 2.33577C 23.8882 2.33577 24.0559 2.29492 24.1522 2.21403C 24.2494 2.13314 24.3722 1.93931 24.5226 1.6317C 24.6317 1.40503 24.7215 1.24562 24.7931 1.15271C 24.8636 1.05899 24.9645 0.98051 25.0956 0.917228C 25.2258 0.853946 25.3707 0.821904 25.5284 0.821904C 25.7292 0.821904 25.8346 0.823512 25.8456 0.826729L 25.8456 1.22081C 25.8273 1.22081 25.7924 1.22001 25.7411 1.2184C 25.6834 1.21679 25.6485 1.21599 25.6357 1.21599C 25.4698 1.21599 25.346 1.25121 25.2653 1.32173C 25.1828 1.39221 25.0893 1.54281 24.9829 1.7727C 24.8509 2.06426 24.7391 2.24852 24.6474 2.32459C 24.5566 2.39989 24.4466 2.46076 24.32 2.50644C 24.574 2.56731 24.8252 2.77319 25.0728 3.12241L 25.8841 4.26788L 25.2369 4.26788L 24.5758 3.3355C 24.3952 3.07678 24.2439 2.89896 24.1229 2.80283C 24.001 2.70589 23.8442 2.65785 23.6508 2.65785L 23.6508 4.26788L 23.1282 4.26788L 23.1282 0.82665L 23.1281 0.82665ZM 26.1005 2.59288C 26.1005 2.02257 26.2765 1.57558 26.6277 1.25278C 26.9789 0.929976 27.4318 0.768954 27.9874 0.768954C 28.3514 0.768954 28.6786 0.84506 28.9711 0.99643C 29.2626 1.14784 29.4855 1.35928 29.6386 1.63082C 29.7917 1.90156 29.8687 2.20917 29.8687 2.55279C 29.8687 2.90125 29.788 3.21364 29.6266 3.4884C 29.4653 3.76396 29.237 3.97222 28.9418 4.11318C 28.6456 4.25494 28.3265 4.32545 27.9846 4.32545C 27.6133 4.32545 27.2823 4.24693 26.9898 4.09074C 26.6983 3.93454 26.4764 3.72146 26.326 3.45072C 26.1757 3.18083 26.1005 2.89485 26.1005 2.59288ZM 26.6396 2.60088C 26.6396 3.01502 26.767 3.341 27.0219 3.57894C 27.2768 3.81683 27.5968 3.93619 27.9819 3.93619C 28.3743 3.93619 28.6961 3.81606 28.95 3.57572C 29.2031 3.33542 29.3296 2.9942 29.3296 2.55203C 29.3296 2.27249 29.2755 2.02816 29.1673 1.8199C 29.0592 1.61164 28.9005 1.44982 28.6924 1.33528C 28.4834 1.22074 28.2496 1.16308 27.9902 1.16308C 27.6216 1.16308 27.3044 1.2736 27.0385 1.49469C 26.7726 1.71577 26.6396 2.08421 26.6396 2.60088ZM 30.5279 4.2678L 30.5279 0.82665L 31.3091 0.82665L 32.2406 3.26252C 32.3268 3.4892 32.3891 3.65902 32.4285 3.77196C 32.4734 3.647 32.544 3.46278 32.6394 3.22007L 33.5874 0.82665L 34.2851 0.82665L 34.2851 4.2678L 33.7845 4.2678L 33.7845 1.38895L 32.6348 4.2678L 32.1654 4.2678L 31.0285 1.33608L 31.0285 4.2678L 30.5279 4.2678ZM 35.1268 0.82665L 38.2183 0.82665L 38.2183 4.2678L 37.6958 4.2678L 37.6958 1.23034L 35.6494 1.23034L 35.6494 4.2678L 35.1268 4.2678L 35.1268 0.82665L 35.1268 0.82665ZM 38.6437 4.2678L 40.1547 0.82665L 40.7277 0.82665L 42.3312 4.2678L 41.738 4.2678L 41.2824 3.2249L 39.6238 3.2249L 39.1965 4.2678L 38.6437 4.2678ZM 39.7769 2.85481L 41.1192 2.85481L 40.7084 1.90079C 40.5846 1.61084 40.4911 1.3713 40.4261 1.1823C 40.3719 1.40656 40.2996 1.62684 40.2088 1.84475L 39.7769 2.85481ZM 42.7668 4.2678L 42.7668 0.82665L 43.2893 0.82665L 43.2893 2.24442L 45.3247 2.24442L 45.3247 0.82665L 45.8473 0.82665L 45.8473 4.2678L 45.3247 4.2678L 45.3247 2.64816L 43.2893 2.64816L 43.2893 4.2678L 42.7668 4.2678ZM 46.7284 0.82665L 47.2015 0.82665L 47.2015 3.55172L 49.2983 0.82665L 49.8145 0.82665L 49.8145 4.2678L 49.3414 4.2678L 49.3414 1.54997L 47.2501 4.2678L 46.7284 4.2678L 46.7284 0.82665ZM 50.6827 0.82665L 51.1558 0.82665L 51.1558 3.55172L 53.2526 0.82665L 53.7688 0.82665L 53.7688 4.2678L 53.2957 4.2678L 53.2957 1.54997L 51.2044 4.2678L 50.6827 4.2678L 50.6827 0.82665ZM 52.6465 9.81559e-07L 52.9766 9.81559e-07C 52.95 0.197848 52.8675 0.35002 52.73 0.455758C 52.5925 0.562301 52.41 0.615173 52.1817 0.615173C 51.9525 0.615173 51.7691 0.562302 51.6325 0.457368C 51.4959 0.35163 51.4134 0.199456 51.3868 9.81559e-07L 51.7168 9.81559e-07C 51.7416 0.108111 51.792 0.189042 51.8663 0.241911C 51.9406 0.295584 52.0414 0.322001 52.167 0.322001C 52.3128 0.322001 52.4229 0.29635 52.4971 0.244326C 52.5714 0.193065 52.6218 0.111328 52.6465 9.81559e-07Z"/>
<path id="path1_fill" fill-rule="evenodd" d="M 11.6397 7.45984e-07L 4.3302 7.45984e-07L 2.86986 4.85724L 7.74487 4.85724L 8.94419 8.47047L 11.8343 16.7019L 17.6561 16.7019L 11.6397 7.45984e-07ZM 4.08424 5.5332L 7.19684 5.54422L 8.33735 9.09799L 5.76578 16.7019L -1.16843e-06 16.7019L 4.08424 5.5332Z"/>
<path id="path2_fill" fill-rule="evenodd" d="M 17.2305 11.8408L 12.929 7.45984e-07L 5.62156 7.45984e-07L 4.1638 4.85724L 9.15685 4.85724L 10.0689 7.61528L 10.0924 7.61528L 11.4687 11.8408L 8.77061 11.8408L 9.67822 8.87513L 8.6021 5.54422L 5.36501 5.5332L 2.94989 11.8408L 1.49085 11.8408L -1.79758e-06 16.7019L 17.6812 16.7019L 19.1717 11.8408L 17.2305 11.8408Z"/>
<path id="path3_fill" fill-rule="evenodd" d="M 0.0829249 4.5906L 3.59515e-07 4.86102L 17.6814 4.86102L 19.1718 1.33492e-06L 18.8751 1.33492e-06L 17.4676 4.5906L 0.0829249 4.5906Z"/>
<path id="path4_fill" fill-rule="evenodd" d="M 19.0889 0.270456L 19.1718 8.83403e-08L 1.49048 8.83403e-08L -6.74092e-08 4.86102L 0.296724 4.86102L 1.70427 0.270456L 19.0889 0.270456Z"/>
<path id="path5_fill" fill-rule="evenodd" d="M 13.0726 7.45984e-07L 3.7674 7.45984e-07L 2.24977 4.8611L 3.7674 4.8611L 3.76611 4.87015L 9.15219 4.85724L 9.15219 4.8611L 9.16199 4.8611L 10.7385 10.1669L 7.56131 10.1669L 8.90876 5.54422L 3.55471 5.53047L 1.30324e-06 16.7019L 6.01552 16.7019L 6.63202 14.4928L 11.8026 14.4928L 12.4794 16.7019L 18.6928 16.7019L 13.0726 7.45984e-07Z"/>
</defs>
</svg>
