<svg width="88" height="26" viewBox="0 0 88 26" version="1.1" xmlns="http://www.w3.org/2000/svg" xmlns:xlink="http://www.w3.org/1999/xlink">
<title>logo Lad_red</title>
<desc>Created using Figma</desc>
<g id="Canvas" transform="translate(21259 -12660)">
<g id="logo Lad_red">
<g id="Vector">
<use xlink:href="#path0_fill" transform="translate(-21259 12660)" fill="#FFFFFF"/>
</g>
<g id="Vector">
<use xlink:href="#path1_fill" transform="translate(-21201.4 12660)" fill="#FFFFFF"/>
</g>
<g id="Vector">
<use xlink:href="#path2_fill" transform="translate(-21231 12660)" fill="#FFFFFF"/>
</g>
</g>
</g>
<defs>
<path id="path0_fill" fill-rule="evenodd" d="M 18.4488 1.16128e-06L 6.86328 1.16128e-06L 4.54868 7.5613L 12.2755 7.5613L 14.1764 13.186L 18.7571 26L 27.9846 26L 18.4488 1.16128e-06ZM 6.47343 8.61357L 11.4069 8.63072L 13.2145 14.1629L 9.13865 26L -1.85193e-06 26L 6.47343 8.61357Z"/>
<path id="path1_fill" fill-rule="evenodd" d="M 27.31 18.4326L 20.4923 1.16128e-06L 8.91006 1.16128e-06L 6.59954 7.5613L 14.5134 7.5613L 15.959 11.8548L 15.9962 11.8548L 18.1777 18.4326L 13.9013 18.4326L 15.3398 13.816L 13.6342 8.63072L 8.50344 8.61357L 4.67552 18.4326L 2.36296 18.4326L -2.84913e-06 26L 28.0244 26L 30.3868 18.4326L 27.31 18.4326Z"/>
<path id="path2_fill" fill-rule="evenodd" d="M 20.7197 0L 5.97125 0L 3.56584 7.56731L 5.97125 7.56731L 5.96921 7.58139L 14.506 7.5613L 14.506 7.56731L 14.5216 7.56731L 17.0203 15.827L 11.9845 15.827L 14.1202 8.63072L 5.63414 8.60931L 0 26L 9.53447 26L 10.5116 22.5611L 18.7068 22.5611L 19.7796 26L 29.6277 26L 20.7197 0Z"/>
</defs>
</svg>
