<svg width="159" height="29" viewBox="0 0 159 29" version="1.1" xmlns="http://www.w3.org/2000/svg" xmlns:xlink="http://www.w3.org/1999/xlink">
<title>Union</title>
<desc>Created using Figma</desc>
<g id="Canvas" transform="translate(21259 -6979)">
<g id="Union">
<use xlink:href="#path0_fill" transform="translate(-21259 6979.65)" fill="#FF7800"/>
</g>
</g>
<defs>
<path id="path0_fill" fill-rule="evenodd" d="M 0.0410156 5.80225C 2.54688 2.15381 6.60938 0.0825195 11.2559 0C 18.6426 0 25.043 5.84375 25.043 13.6763C 25.043 21.207 19.6035 27.4351 11.2559 27.4351C 6.80273 27.4351 2.6582 25.3911 0 21.6323L 4.68945 18.2168C 6.08008 20.4526 8.54297 21.7832 11.2832 21.7832C 14.7344 21.7832 17.6973 19.6294 18.8105 16.4746L 9.54492 16.4746L 8.15234 10.9463L 18.7969 10.9463C 17.7109 7.94238 14.9141 5.6377 11.2832 5.6377C 8.66797 5.6377 6.23242 6.8999 4.68945 9.24561L 0.0410156 5.80225ZM 51.3516 8.10693C 51.3516 10.1099 50.5586 11.9893 49 13.5254C 50.6836 14.9385 51.4766 16.7764 51.4766 19.0947C 51.4355 23.7588 47.6504 27.0234 42.9473 27.0234L 29.6328 27.0234L 29.6328 5.93994L 28.2422 0.411621L 43.0176 0.411621C 47.4004 0.411621 51.3516 3.51172 51.3516 8.10693ZM 42.9902 5.83008L 35.3789 5.83008L 35.3789 11.0562L 42.9902 11.0562C 44.3809 11.0562 45.6191 10 45.6191 8.46387C 45.6191 7.00977 44.5059 5.83008 42.9902 5.83008ZM 35.3652 21.605L 43.1426 21.605C 44.6172 21.605 45.7031 20.5488 45.8145 18.9849C 45.8145 17.5308 44.7012 16.3511 43.1426 16.3511L 35.3652 16.3511L 35.3652 21.605ZM 82.0859 0.411621L 83.4766 5.93994L 89.752 5.93994L 89.752 27.0234L 95.5254 27.0234L 95.5254 5.93994L 101.842 5.93994L 103.232 0.411621L 82.0859 0.411621ZM 135.648 0.411621L 148.531 0.411621C 154.277 0.494141 158.604 4.33496 158.604 10.2061C 158.604 15.9673 154.361 19.7671 148.531 19.7671L 142.66 19.7671L 142.66 27.0234L 136.914 27.0234L 136.914 5.47314L 135.648 0.411621ZM 142.674 14.2524L 148.656 14.2524C 151.078 14.2524 152.664 12.5654 152.816 10.0962C 152.816 7.77783 151.078 5.98096 148.656 5.98096L 142.674 5.98096L 142.674 14.2524ZM 76.9922 8.98535C 74.8633 7.77783 72.4844 7.17432 69.8398 7.17432L 69.8398 7.1333C 67.1973 7.1333 64.8184 7.73682 62.6895 8.93018C 60.5605 10.1372 58.8906 11.7837 57.709 13.855C 56.5254 15.9263 55.9277 18.2168 55.9277 20.7549C 55.9277 23.0117 56.4004 25.0845 57.3379 26.9819L 64.457 26.9819C 63.7539 26.3936 63.1738 25.6929 62.7031 24.8838C 62.0078 23.6626 61.6602 22.3047 61.6602 20.7959C 61.6602 19.2871 61.9941 17.9287 62.7031 16.708C 63.4121 15.4873 64.3867 14.5405 65.625 13.8276C 66.8633 13.1279 68.2676 12.771 69.8398 12.771C 71.4121 12.771 72.8184 13.1143 74.0566 13.8276C 75.3086 14.5405 76.2676 15.5146 76.9785 16.7354C 77.6738 17.9565 78.0215 19.3145 78.0215 20.8232C 78.0215 22.332 77.6738 23.6904 76.9629 24.9111C 76.5 25.7075 75.9258 26.3994 75.2383 26.9819L 82.3594 26.9819C 83.2852 25.105 83.7539 23.0537 83.7539 20.8096C 83.7539 18.2856 83.1543 15.981 81.9727 13.9097C 80.7754 11.8384 79.1211 10.1924 76.9922 8.98535ZM 105.457 7.11963C 105.457 4.67676 106.045 2.43701 107.098 0.507812L 114.744 0.507812C 112.627 1.94287 111.244 4.34277 111.244 7.16064C 111.244 11.4409 114.682 15.2817 119.426 15.2817C 123.891 15.2817 127.676 11.6602 127.689 7.16064C 127.689 4.41553 126.311 1.9707 124.16 0.507812L 131.699 0.507812C 132.795 2.46289 133.422 4.72021 133.422 7.14697C 133.422 14.4858 127.467 20.8511 119.453 20.8511C 111.996 20.8511 105.457 15.0483 105.457 7.11963Z"/>
</defs>
</svg>
